<svg id="Capa_1" data-name="Capa 1" xmlns="http://www.w3.org/2000/svg" viewBox="0 0 53 53"><title>a</title><circle cx="26.5" cy="26.5" r="25" transform="translate(-8.12 12.16) rotate(-22.5)" fill="#dc772d" stroke="#bc642b" stroke-miterlimit="10"/><path d="M26.5,5.83A20.67,20.67,0,1,0,47.17,26.5,20.66,20.66,0,0,0,26.5,5.83Zm0,38.69a18,18,0,1,1,18-18A18,18,0,0,1,26.5,44.52Z" fill="#fff"/><path d="M30,17.05a1.8,1.8,0,0,0-2.56,0l-.64.64-9,9h0l-.28.28s-.9.91-2.93,7.47l-.05.14c0,.12-.07.24-.11.36s-.06.22-.1.33a2.76,2.76,0,0,1-.08.27c-.06.22-.13.44-.2.66-.14.5-.5,1.62-.1,2s1.52,0,2-.1l.65-.19.29-.09.31-.09.38-.12.11,0c6.25-1.95,7.37-2.86,7.46-2.95h0l.29-.29,0,0,9-9h0l.64-.64a1.8,1.8,0,0,0,0-2.56ZM24.2,33.47l0,0h-.05l0,0a21,21,0,0,1-3.3,1.41l-.8.28-3-3c.1-.29.19-.56.28-.81a20.85,20.85,0,0,1,1.41-3.31v0l0,0v0l0,0,.22-.22,5.47,5.48ZM40.27,17.05l-5.13-5.13a1.8,1.8,0,0,0-2.56,0L31.3,13.2a1.8,1.8,0,0,0,0,2.56l5.12,5.13a1.8,1.8,0,0,0,2.56,0l1.29-1.28A1.82,1.82,0,0,0,40.27,17.05Z" fill-rule="evenodd" opacity="0.8"/></svg>