<svg xmlns="http://www.w3.org/2000/svg" viewBox="0 0 32 32"><title>icono</title><g id="Capa_4" data-name="Capa 4"><path d="M29,25.4C29,31.29,23.19,31,16,31S3,31.24,3,25.4,8.81,9.73,16,9.73,29,19.57,29,25.4Z" fill="#ffd949"/><path d="M16,9.78c7.19,0,13,9.79,13,15.67S23.19,31,16,31" fill="#fcc62d"/><path d="M9.68,3.7C9.68.86,12.53,1,16,1s6.32-.14,6.32,2.7S19.47,11.32,16,11.32,9.68,6.55,9.68,3.7Z" fill="#ffd949"/><path d="M16,1c3.47,0,6.32-.14,6.32,2.7S19.47,11.32,16,11.32" fill="#fcc62d"/><path d="M21.44,10.35a.87.87,0,0,1-.88.88H11.2a.87.87,0,0,1-.87-.87V10a.86.86,0,0,1,.87-.86h9.42a.86.86,0,0,1,.87.86v.31Z" fill="#04af76"/><path d="M11.21,9.18h9.41a.86.86,0,0,1,.87.86v.24a.94.94,0,0,1-1,.87" fill="#008c61"/><circle cx="16" cy="21.45" r="5.79" fill="#04af76"/><path d="M11.9,17.35a5.8,5.8,0,0,1,8.2,8.2" fill="#008c61"/><path d="M15.62,26.21V24.92a10.49,10.49,0,0,1-2-.48l.29-1.3a4.11,4.11,0,0,0,1.83.48c.63,0,1.06-.24,1.06-.68s-.34-.67-1.2-1c-1.21-.39-2-1-2-2s.43-1.73,2-2V17.1h.88v1a2.92,2.92,0,0,1,1.58.39l-.28,1.24a3.1,3.1,0,0,0-1.53-.38c-.7,0-.93.29-.93.62s.37.58,1.3,1c1.25.48,1.76,1.05,1.76,2.06A2,2,0,0,1,16.5,25v1.2Z" fill="#fff6e1"/><path d="M15.91,16.81v2.35h.33a3.37,3.37,0,0,1,1.59.41l.29-1.26a2.84,2.84,0,0,0-1.62-.38V16.81Z" fill="#ffeebd"/><path d="M16.63,20.72a5.52,5.52,0,0,0-.72-.24v1.64c.57.24.86.49.86.82s-.29.58-.86.68v2.59h.59V24.87c1.43-.24,2-1.06,2-2.07S17.93,21.21,16.63,20.72Z" fill="#ffeebd"/></g></svg>