<svg xmlns="http://www.w3.org/2000/svg" viewBox="0 0 39 32"><title>icono</title><g id="Capa_4" data-name="Capa 4"><path d="M6.88,8.72c-6.21,0-5.52,7.55-5.49,13a.58.58,0,0,0,.29.5,10.29,10.29,0,0,0,5.2,1.38,10.37,10.37,0,0,0,5.21-1.38.59.59,0,0,0,.28-.5C12.4,16.27,13.09,8.72,6.88,8.72Z" fill="#694b4b"/><path d="M6.48,8.73c-5.77.33-5.12,7.66-5.09,13a.58.58,0,0,0,.29.5,10.29,10.29,0,0,0,5.2,1.38l1.57-11" fill="#5a4146"/><path d="M6.88,8.72C3.35,8.72,3.11,13,3.11,13c2-.34,3.28.52,5.34-.34l-1.57,11a10.37,10.37,0,0,0,5.21-1.38.59.59,0,0,0,.28-.5C12.4,16.27,13.09,8.72,6.88,8.72Z" fill="#694b4b"/><path d="M12.37,21.74c0-4.7.54-10.93-3.26-12.59a3.36,3.36,0,0,0,.13,1.92c.78,1.57,1.56,1.57,2.35,2.75.78,4.31-1.5,8.89-2.26,9.52h0a9.84,9.84,0,0,0,2.76-1.1A.59.59,0,0,0,12.37,21.74Z" fill="#785550"/><path d="M12.7,23,9.27,21.57a.79.79,0,0,1-.48-.73v-.91H4.86v.91a.78.78,0,0,1-.49.73L.94,23a1.17,1.17,0,0,0-.73,1.08v1.5a.79.79,0,0,0,.79.79H12.64a.79.79,0,0,0,.79-.79v-1.5A1.17,1.17,0,0,0,12.7,23Z" fill="#e6af78"/><path d="M12.71,22.92,9.36,21.51l-2.54,1.1-2.54-1.1L.93,22.92A1.18,1.18,0,0,0,.21,24v1.57a.79.79,0,0,0,.79.79H12.64a.79.79,0,0,0,.79-.79V24A1.18,1.18,0,0,0,12.71,22.92Z" fill="#5b5d6e"/><path d="M8.78,19.93H4.86v.95a.78.78,0,0,1-.49.72l-.54.23C8,22.9,8.78,19.93,8.78,19.93Z" fill="#d29b6e"/><path d="M2.25,24.43.57,23.18A1.17,1.17,0,0,0,.21,24v1.57a.79.79,0,0,0,.79.79H2.71v-1A1.18,1.18,0,0,0,2.25,24.43Z" fill="#e4eaf6"/><path d="M13,26.36a.79.79,0,0,0,.79-.79V24a1.13,1.13,0,0,0-.36-.81l-1.68,1.24a1.18,1.18,0,0,0-.46.92v1Z" fill="#e4eaf6"/><path d="M7.05,25.64H7a.31.31,0,0,1-.31-.32V22.79h.72v2.53A.31.31,0,0,1,7.05,25.64Z" fill="#e4eaf6"/><path d="M6.88,22.63,4.64,20.94a.31.31,0,0,0-.45.08l-.45.66,1.38,1.93a.3.3,0,0,0,.45.06Z" fill="#e4eaf6"/><path d="M6.88,22.63l2.25-1.69a.31.31,0,0,1,.45.08l.44.66L8.64,23.61a.3.3,0,0,1-.45.06Z" fill="#e4eaf6"/><path d="M8.84,12.25c-2,2-5.81.39-5.81,3.53l.25,2.31a1.53,1.53,0,0,0,.8,1.23l2.23,1.24a1.16,1.16,0,0,0,1.14,0l2.24-1.24a1.58,1.58,0,0,0,.8-1.23l.28-2.74c0-.2,0-.4,0-.59C10.64,13.76,9.24,13,8.84,12.25Z" fill="#f0c087"/><path d="M3,15.78l.25,2.31a1.53,1.53,0,0,0,.8,1.23l2.23,1.24a1.18,1.18,0,0,0,.8.12h0a3.28,3.28,0,0,1-1.8-2.15,11.48,11.48,0,0,1-.24-3.86c.48-.71,3.19-.79,4-2.1l-.11-.15h0l-.1-.16C6.88,14.21,3,12.64,3,15.78Z" fill="#e6af78"/><path d="M9.9,25.64H8.74a.67.67,0,0,0-.67.67v.05h2.5v-.05A.67.67,0,0,0,9.9,25.64Z" fill="#e4eaf6"/><polygon points="33.79 21.01 33.79 18.86 28.07 18.86 28.07 21.01 30.93 23.47 33.79 21.01" fill="#e6af78"/><path d="M38.79,23.33a1.24,1.24,0,0,0-.95-1.2L34,21.24l-.16-.07L30.75,23l-3-1.88a.63.63,0,0,1-.28.15l-3.83.89a1.24,1.24,0,0,0-.95,1.2v2.41a.62.62,0,0,0,.62.62H38.17a.62.62,0,0,0,.62-.62Z" fill="#5b5d6e"/><path d="M28.07,18.86v2.27a5,5,0,0,0,5.72-1.89v-.38Z" fill="#d29b6e"/><path d="M26.93,12.07l.27,5.87a1.82,1.82,0,0,0,.73,1.39l1.26.94a1.85,1.85,0,0,0,1.11.37h1.22a1.85,1.85,0,0,0,1.11-.37l1.26-.94a1.82,1.82,0,0,0,.73-1.39l.27-5.87Z" fill="#f0c087"/><path d="M30.06,13.3c1.23,0,3.06-.31,3.5-1.23H27l.27,5.87A1.82,1.82,0,0,0,28,19.33l1.26.94a1.85,1.85,0,0,0,1.11.37H31c-.61,0-1.84-1.22-1.84-2.75V14.21A1,1,0,0,1,30.06,13.3Z" fill="#e6af78"/><path d="M36.46,24.36l2-1.79a1.22,1.22,0,0,1,.28.76v2.41a.62.62,0,0,1-.62.62H35.93v-.84A1.51,1.51,0,0,1,36.46,24.36Z" fill="#e4eaf6"/><polygon points="31.7 26.36 30.12 26.36 30.32 23.5 31.51 23.5 31.7 26.36" fill="#e4eaf6"/><path d="M31.64,22.79H30.21v.34a.63.63,0,0,0,.68.73h0a.67.67,0,0,0,.71-.73v-.34Z" fill="#a0d2f0"/><path d="M28.1,20.42,30.91,23a10.67,10.67,0,0,0-1.76,1.2.39.39,0,0,1-.61-.14l-1.32-2.9.42-.63A.31.31,0,0,1,28.1,20.42Z" fill="#e4eaf6"/><path d="M33.72,20.42,30.91,23a10.67,10.67,0,0,1,1.76,1.2.39.39,0,0,0,.61-.14l1.32-2.9-.41-.63A.32.32,0,0,0,33.72,20.42Z" fill="#e4eaf6"/><path d="M32.78,9.84l.28,2c1.32.27,1.51,2.33,1.54,2.92a.57.57,0,0,0,.1.31l.5.77a3,3,0,0,1,.61-2.15S36.08,8.6,32.78,9.84Z" fill="#785550"/><path d="M34.89,14.93a.64.64,0,0,1,.62.79l-.35,1.39a.36.36,0,0,1-.36.28h0a.38.38,0,0,1-.37-.32l-.17-1.43a.63.63,0,0,1,.63-.71Z" fill="#f0c087"/><path d="M27.2,9.28l.46.31A4.6,4.6,0,0,0,26,13.72a3.81,3.81,0,0,1,.61,2.15l.62-.61s-.24-1.78.92-2.46,2-.31,3-.31c2.58,0,3.3-1,3.18-2.15-.07-.62-1-1.89-3.39-1.85A10.64,10.64,0,0,0,27.2,9.28Z" fill="#694b4b"/><path d="M27,12.22a3.39,3.39,0,0,1,.63-2.63A4.6,4.6,0,0,0,26,13.72a3.81,3.81,0,0,1,.61,2.15l.62-.61s-.24-1.78.92-2.46,2-.31,3-.31a7.22,7.22,0,0,0,1.11-.08C30.25,12.48,29.08,11,27,12.22Z" fill="#5a4146"/><path d="M26.93,14.93a.64.64,0,0,0-.62.79l.35,1.39a.36.36,0,0,0,.36.28h0a.38.38,0,0,0,.37-.32l.18-1.43a.64.64,0,0,0-.64-.71Z" fill="#e6af78"/><path d="M34.6,25.64H33.06a.76.76,0,0,0-.61.72h2.77A.77.77,0,0,0,34.6,25.64Z" fill="#e4eaf6"/><path d="M19.58,1C9,1,10.19,13.83,10.24,23.14a1,1,0,0,0,.49.85,17.82,17.82,0,0,0,17.69,0,1,1,0,0,0,.49-.85C29,13.83,30.13,1,19.58,1Z" fill="#694b4b"/><path d="M18.89,1c-9.81.55-8.7,13-8.65,22.11a1,1,0,0,0,.49.85,17.55,17.55,0,0,0,8.85,2.35L22.24,7.67" fill="#5a4146"/><path d="M19.58,1c-6,0-6.42,7.25-6.42,7.25,3.46-.58,5.58.88,9.08-.58L19.58,26.34A17.54,17.54,0,0,0,28.42,24a1,1,0,0,0,.49-.85C29,13.83,30.13,1,19.58,1Z" fill="#694b4b"/><path d="M28.91,23.14c0-8,.91-18.59-5.55-21.42A6,6,0,0,0,23.58,5c1.33,2.67,2.66,2.67,4,4.67C28.91,17,25,24.79,23.74,25.85h0A17,17,0,0,0,28.42,24,1,1,0,0,0,28.91,23.14Z" fill="#785550"/><path d="M29.7,25.2l-5.81-2.45a1.33,1.33,0,0,1-.82-1.23V19.93H16.29v1.59a1.34,1.34,0,0,1-.82,1.23L9.65,25.2A2,2,0,0,0,8.43,27v2.63A1.34,1.34,0,0,0,9.76,31H29.6a1.34,1.34,0,0,0,1.33-1.33V27A2,2,0,0,0,29.7,25.2Z" fill="#e6af78"/><path d="M29.7,25.15,24,22.76l-4.32,1.87-4.32-1.87L9.65,25.15A2,2,0,0,0,8.43,27v2.67A1.34,1.34,0,0,0,9.76,31H29.6a1.34,1.34,0,0,0,1.33-1.33V27A2,2,0,0,0,29.7,25.15Z" fill="#5b5d6e"/><path d="M23,19.93H16.29v1.61a1.34,1.34,0,0,1-.82,1.23l-.93.39C21.65,25,23,19.93,23,19.93Z" fill="#d29b6e"/><path d="M11.62,27.73,9,25.6A2,2,0,0,0,8.43,27v2.67A1.34,1.34,0,0,0,9.76,31h2.6V29.29A2,2,0,0,0,11.62,27.73Z" fill="#a0d2f0"/><path d="M29.59,31a1.34,1.34,0,0,0,1.34-1.33V27a2,2,0,0,0-.56-1.39l-2.63,2.12A2,2,0,0,0,27,29.29V31Z" fill="#a0d2f0"/><path d="M19.5,29.6h0a.69.69,0,0,1-.71-.66V24.57h1.42v4.37A.69.69,0,0,1,19.5,29.6Z" fill="#a0d2f0"/><path d="M19.58,24.64l-3.82-2.86a.53.53,0,0,0-.77.13L14.24,23l2.34,3.28a.54.54,0,0,0,.77.1Z" fill="#a0d2f0"/><path d="M19.58,24.64l3.81-2.86a.53.53,0,0,1,.77.13L24.91,23l-2.34,3.28a.54.54,0,0,1-.77.1Z" fill="#a0d2f0"/><path d="M22.91,7C19.58,10.34,13,7.67,13,13l.42,3.93A2.67,2.67,0,0,0,14.81,19l3.79,2.11a2,2,0,0,0,1.95,0L24.34,19a2.67,2.67,0,0,0,1.36-2.09l.48-4.66a6.72,6.72,0,0,0,0-1C26,9.57,23.58,8.33,22.91,7Z" fill="#f0c087"/><path d="M13,13l.42,3.93A2.67,2.67,0,0,0,14.81,19l3.79,2.11a2,2,0,0,0,1.36.2h0s-1.91-.58-3.05-3.66c-.35-.94-.84-6-.42-6.56.82-1.2,5.42-1.33,6.78-3.57-.07-.08-.13-.17-.19-.25v0A1.91,1.91,0,0,1,22.91,7C19.58,10.34,13,7.67,13,13Z" fill="#e6af78"/><path d="M24.9,29.57H22.31a.67.67,0,0,0-.67.67V31h3.93v-.76A.67.67,0,0,0,24.9,29.57Z" fill="#a0d2f0"/></g></svg>