<svg id="Capa_1" data-name="Capa 1" xmlns="http://www.w3.org/2000/svg" viewBox="0 0 53 53"><defs><style>.cls-1{fill:#dc772d;stroke:#bc642b;stroke-miterlimit:10;}.cls-2{fill:#fff;}.cls-3{opacity:0.8;}.cls-4{fill:#030104;}</style></defs><title>platillos</title><circle class="cls-1" cx="26.5" cy="26.5" r="25" transform="translate(-8.12 12.16) rotate(-22.5)"/><path class="cls-2" d="M26.5,5.83A20.67,20.67,0,1,0,47.17,26.5,20.66,20.66,0,0,0,26.5,5.83Zm0,38.69a18,18,0,1,1,18-18A18,18,0,0,1,26.5,44.52Z"/><g class="cls-3"><path class="cls-4" d="M18.5,35.5v6h16v-10h-16Zm2-2h12v2h-12Zm0,4h12v2h-12Z"/><polygon class="cls-4" points="34.5 17.5 34.5 11.5 18.5 11.5 18.5 17.5 18.5 21.5 34.5 21.5 34.5 17.5"/><path class="cls-4" d="M38.5,17.5h-2v6h-20v-6h-2a4.3,4.3,0,0,0-4,4v10a4.3,4.3,0,0,0,4,4h2v-6h20v6h2a4.3,4.3,0,0,0,4-4v-10A4.3,4.3,0,0,0,38.5,17.5Z"/></g></svg>