<svg xmlns="http://www.w3.org/2000/svg" xmlns:xlink="http://www.w3.org/1999/xlink" viewBox="0 0 51 33"><defs><clipPath id="clip-path"><path d="M7.59,14.84S32.43-.49,44.42,7.17c9.33,5.95,4.11,25.32-11.59,21.57C18.91,25.41,11.74,18.18,7.59,14.84Z" fill="none"/></clipPath></defs><title>icono</title><g id="Capa_4" data-name="Capa 4"><path d="M34.28,6.32S27.49-.11,25.61.55s4.33,7.57,4.33,7.57Z" fill="#fab217"/><path d="M33.37,26.68s-6.79,6.43-8.67,5.77S29,24.88,29,24.88Z" fill="#fab217"/><path d="M32.06,6a.08.08,0,0,1-.07,0l-3.2-2.64a.09.09,0,0,1,0-.13.1.1,0,0,1,.14,0l3.2,2.64a.1.1,0,0,1,0,.14A.09.09,0,0,1,32.06,6Z" fill="#fff"/><path d="M31.22,6.46l-.06,0-2.9-2.05a.1.1,0,0,1,.12-.16l2.89,2.05a.1.1,0,0,1,0,.14A.12.12,0,0,1,31.22,6.46Z" fill="#fff"/><path d="M26,29.72a.09.09,0,0,1-.07,0,.1.1,0,0,1,0-.14l2.9-2.79a.11.11,0,0,1,.14,0,.1.1,0,0,1,0,.14L26,29.69A.11.11,0,0,1,26,29.72Z" fill="#fff"/><path d="M27.41,30.42a.12.12,0,0,1-.08,0,.11.11,0,0,1,0-.14l3.05-2.61a.11.11,0,0,1,.14,0,.1.1,0,0,1,0,.14l-3.05,2.61A.09.09,0,0,1,27.41,30.42Z" fill="#fff"/><path d="M7.59,14.84S32.43-.49,44.42,7.17c9.33,5.95,4.11,25.32-11.59,21.57C18.91,25.41,11.74,18.18,7.59,14.84Z" fill="#3c2a34"/><path d="M11.8,12.51v5.73S2.15,23.13,1,22.15s4.9-6,4.9-6-7-5.21-5-6S11.8,12.51,11.8,12.51Z" fill="#fab217"/><path d="M37.4,5.07V29.22s11.39,1.53,12.92-9.66C52.3,5.07,37.4,5.07,37.4,5.07Z" fill="#fab217"/><path d="M46.92,15.79a3.46,3.46,0,1,1-3.46-3.47A3.46,3.46,0,0,1,46.92,15.79Z" fill="#fff"/><path d="M45.51,15.79A1.76,1.76,0,1,1,43.76,14,1.75,1.75,0,0,1,45.51,15.79Z" fill="#3c2a34"/><g clip-path="url(#clip-path)"><path d="M36.42,29.86a2.92,2.92,0,0,1-1.86-.56,1.11,1.11,0,0,1-.36-.85c0-1.19,1.69-1.79,2.43-2-.75-.26-2.52-1-2.44-1.93S35.8,23.16,36.54,23c-.71-.24-2.19-.85-2.34-1.87a.83.83,0,0,1,.18-.67,4,4,0,0,1,2.3-.95c-.66-.37-2.22-1.33-2.22-1.95,0-1,1.51-1.37,2.28-1.49-.83-.31-2.56-1.14-2.28-2.66.17-.92,1.95-1.29,2.71-1.41-.75-.35-2.56-1.32-2.4-2.38C34.9,8.7,36,8.29,36.65,8.13c-.74-.17-2-.63-1.88-1.74.15-1.53,2.64-1.88,2.75-1.89a.1.1,0,0,1,.11.08c0,.06,0,.11-.09.11S35.1,5,35,6.4,37.17,8,37.19,8a.1.1,0,0,1,0,.2s-2,.27-2.23,1.42,2.58,2.3,2.61,2.32a.1.1,0,0,1,.06.1.1.1,0,0,1-.09.08s-2.7.29-2.89,1.3C34.32,15.21,37.19,16,37.22,16a.09.09,0,0,1,.07.1.09.09,0,0,1-.09.09s-2.55.2-2.55,1.35c0,.47,1.46,1.43,2.38,1.93a.09.09,0,0,1,0,.1c0,.05,0,.08-.08.08s-1.9.19-2.47.91a.66.66,0,0,0-.14.52c.18,1.19,2.55,1.82,2.57,1.83A.1.1,0,0,1,37,23c0,.05,0,.09-.09.09s-2.49.41-2.57,1.43c-.06.84,1.88,1.61,2.64,1.83a.1.1,0,0,1,.06.1.09.09,0,0,1-.07.09s-2.63.56-2.62,1.89a1,1,0,0,0,.3.71,3,3,0,0,0,1.86.5.09.09,0,0,1,.1.09.11.11,0,0,1-.09.11Z" fill="#fff"/><path d="M30.7,29.32a2.78,2.78,0,0,1-1.77-.54,1.15,1.15,0,0,1-.36-.87c0-1.19,1.62-1.79,2.32-2-.71-.26-2.4-1-2.33-1.93s1.54-1.36,2.24-1.53c-.68-.24-2.09-.86-2.23-1.88s1.92-1.64,2.76-1.81c-.76-.32-2.51-1.13-2.51-1.75,0-1,1.44-1.38,2.18-1.49-.8-.31-2.45-1.14-2.18-2.66.16-.92,1.82-1.36,2.53-1.51-.7-.33-2.39-1.22-2.24-2.28.13-.91,1.42-1.29,2.22-1.44C30.46,7.44,29,7,29.12,5.84,29.26,4.31,31.64,4,31.74,4a.11.11,0,0,1,.11.09.1.1,0,0,1-.08.11s-2.33.34-2.46,1.71S32,7.54,32,7.54a.1.1,0,0,1,0,.2S29.47,8,29.31,9.1s2.39,2.19,2.41,2.2a.09.09,0,0,1,.06.1.11.11,0,0,1-.08.09s-2.51.39-2.69,1.4c-.32,1.78,2.42,2.57,2.45,2.58a.08.08,0,0,1,.07.1s0,.08-.09.09S29,15.86,29,17c0,.46,1.66,1.28,2.7,1.69a.11.11,0,0,1,.06.11.11.11,0,0,1-.08.08c-.87.14-3.07.69-2.93,1.66.17,1.19,2.43,1.82,2.45,1.83a.1.1,0,0,1,.08.1.12.12,0,0,1-.09.09S28.83,23,28.75,24c-.06.85,1.79,1.62,2.51,1.84a.09.09,0,0,1,.07.1.09.09,0,0,1-.08.09s-2.5.56-2.49,1.89a1,1,0,0,0,.31.73,2.85,2.85,0,0,0,1.75.48c.05,0,.09,0,.1.09a.1.1,0,0,1-.09.1Z" fill="#fff"/><path d="M33.45,31.1a2.8,2.8,0,0,1-1.76-.53,1.2,1.2,0,0,1-.37-.87c0-1.19,1.79-1.67,2.59-1.83-.8-.31-2.67-1.16-2.6-2.1s1.54-1.37,2.25-1.53c-.68-.24-2.09-.86-2.24-1.88a.92.92,0,0,1,.19-.69,3.84,3.84,0,0,1,2.19-.92c-.63-.38-2.13-1.34-2.13-2,0-1,1.45-1.37,2.19-1.49-.8-.3-2.46-1.14-2.19-2.66.16-.86,1.66-1.24,2.45-1.38-.86-.25-2.58-.87-2.43-1.88s1.94-1.55,2.81-1.75c-.87-.22-2.64-.81-2.53-2s1.5-1.33,2.25-1.34c-.62-.32-1.69-1-1.69-1.76a.09.09,0,0,1,.1-.1.09.09,0,0,1,.09.1c0,1,2,1.77,2,1.77a.1.1,0,0,1,0,.12.08.08,0,0,1-.1.07S32.2,6.3,32.07,7.65s2.78,1.88,2.81,1.88a.1.1,0,0,1,.08.1.09.09,0,0,1-.08.09s-2.93.53-3.1,1.68,2.72,1.79,2.75,1.79a.11.11,0,0,1,.08.1.12.12,0,0,1-.09.1s-2.57.28-2.75,1.29c-.32,1.77,2.42,2.57,2.45,2.57a.12.12,0,0,1,.07.11.12.12,0,0,1-.09.09s-2.43.19-2.43,1.34c0,.53,1.64,1.58,2.27,1.93a.1.1,0,0,1,.05.11.12.12,0,0,1-.09.08s-1.78.18-2.33.88a.69.69,0,0,0-.15.54c.17,1.19,2.43,1.83,2.45,1.83a.1.1,0,0,1,.07.1.1.1,0,0,1-.08.1s-2.37.4-2.45,1.42c-.06.85,2,1.76,2.81,2a.08.08,0,0,1,.06.1.1.1,0,0,1-.08.09s-2.79.36-2.78,1.68a1,1,0,0,0,.31.74,2.79,2.79,0,0,0,1.74.47.1.1,0,0,1,.11.1.1.1,0,0,1-.1.1Z" fill="#fff"/><path d="M25.21,29.32a2.78,2.78,0,0,1-1.77-.54,1.15,1.15,0,0,1-.36-.87c0-1.19,1.62-1.79,2.33-2-.72-.26-2.41-1-2.34-1.93s1.67-1.43,2.44-1.64c-.75-.2-2.29-.75-2.43-1.77a.81.81,0,0,1,.19-.68A3.74,3.74,0,0,1,25.45,19c-.63-.38-2.12-1.33-2.12-1.95,0-1,1.44-1.38,2.18-1.49-.8-.31-2.45-1.14-2.18-2.66.16-.92,1.82-1.36,2.53-1.51-.7-.33-2.39-1.22-2.24-2.28.13-.91,1.42-1.29,2.22-1.44C25,7.44,23.52,7,23.63,5.84,23.77,4.31,26.15,4,26.25,4a.11.11,0,0,1,.11.09.1.1,0,0,1-.08.11S24,4.49,23.82,5.86s2.64,1.68,2.67,1.68a.1.1,0,0,1,0,.2S24,8,23.82,9.1s2.39,2.19,2.41,2.2a.09.09,0,0,1,.06.1.11.11,0,0,1-.08.09s-2.51.39-2.69,1.4c-.32,1.78,2.42,2.57,2.45,2.58a.08.08,0,0,1,.07.1s0,.08-.09.09-2.43.2-2.43,1.35c0,.53,1.64,1.57,2.27,1.92a.1.1,0,0,1,0,.19S24,19.3,23.42,20a.67.67,0,0,0-.15.54c.17,1.18,2.66,1.7,2.68,1.7a.1.1,0,0,1,.08.1.09.09,0,0,1-.08.09S23.34,23,23.26,24c-.06.85,1.79,1.62,2.51,1.84a.09.09,0,0,1,.07.1.1.1,0,0,1-.07.09s-2.51.56-2.5,1.89a1,1,0,0,0,.31.73,2.85,2.85,0,0,0,1.75.48.09.09,0,0,1,.1.09.1.1,0,0,1-.09.1Z" fill="#fff"/><path d="M28,31.1a2.81,2.81,0,0,1-1.76-.53,1.2,1.2,0,0,1-.37-.87c0-1.19,1.62-1.8,2.33-2-.71-.26-2.41-1-2.34-1.93s1.54-1.37,2.25-1.53c-.68-.24-2.09-.86-2.24-1.88a.92.92,0,0,1,.19-.69,3.84,3.84,0,0,1,2.19-.92c-.63-.38-2.13-1.34-2.13-2,0-1,1.59-1.56,2.38-1.78a3.76,3.76,0,0,1-2.11-1.19,1.49,1.49,0,0,1-.26-1.18c.15-.86,1.56-1.23,2.3-1.37-.81-.25-2.44-.88-2.29-1.89s1.78-1.55,2.57-1.75c-.79-.22-2.4-.81-2.29-2s1.5-1.33,2.25-1.34c-.62-.32-1.69-1-1.69-1.76a.09.09,0,0,1,.1-.1.09.09,0,0,1,.09.1c0,1,2,1.77,2,1.77a.1.1,0,0,1,.05.12.08.08,0,0,1-.1.07s-2.38-.19-2.51,1.16,2.51,1.88,2.53,1.88a.1.1,0,0,1,.08.1.09.09,0,0,1-.08.09s-2.65.53-2.82,1.68,2.56,1.79,2.59,1.8a.1.1,0,0,1,.08.1s0,.09-.09.09-2.41.28-2.59,1.29a1.34,1.34,0,0,0,.22,1,4.33,4.33,0,0,0,2.43,1.2A.09.09,0,0,1,29,17a.1.1,0,0,1-.08.1s-2.65.53-2.65,1.69c0,.53,1.64,1.58,2.27,1.93a.1.1,0,0,1,.05.11.12.12,0,0,1-.09.08s-1.78.18-2.33.88a.69.69,0,0,0-.15.54c.17,1.19,2.43,1.83,2.45,1.83s.08.06.07.1a.1.1,0,0,1-.08.1s-2.37.4-2.45,1.42c-.06.85,1.79,1.61,2.51,1.84a.1.1,0,0,1,.07.1.09.09,0,0,1-.08.09S26,28.37,26,29.69a1,1,0,0,0,.31.74,2.81,2.81,0,0,0,1.74.47.1.1,0,0,1,.11.1.1.1,0,0,1-.1.1Z" fill="#fff"/><path d="M19.73,29.32A2.77,2.77,0,0,1,18,28.78a1.2,1.2,0,0,1-.37-.87c0-1.19,1.62-1.79,2.33-2-.72-.26-2.41-1-2.33-1.93s1.53-1.36,2.24-1.53c-.68-.24-2.09-.86-2.24-1.88s1.93-1.64,2.76-1.81c-.75-.32-2.51-1.13-2.51-1.75,0-1,1.45-1.38,2.19-1.49-.8-.31-2.46-1.14-2.18-2.66.16-.92,1.79-1.36,2.51-1.51C19.59,11,17.65,10.09,17.81,9c.13-.92,1.34-1.3,2.07-1.45-.71-.18-1.83-.64-1.72-1.73C18.3,4.31,20.68,4,20.78,4a.1.1,0,0,1,0,.2s-2.32.34-2.45,1.71,2.09,1.62,2.12,1.62a.09.09,0,0,1,.08.1.11.11,0,0,1-.09.1S18.17,7.9,18,9.05s2.73,2.24,2.76,2.25a.09.09,0,0,1,.06.1.11.11,0,0,1-.08.09s-2.51.39-2.69,1.4c-.32,1.78,2.42,2.57,2.45,2.58a.1.1,0,0,1,.07.1s0,.08-.09.09-2.43.2-2.43,1.35c0,.46,1.65,1.28,2.69,1.69a.1.1,0,0,1,0,.19c-.86.14-3.06.69-2.92,1.66.17,1.19,2.43,1.82,2.45,1.83a.08.08,0,0,1,.07.1.09.09,0,0,1-.08.09S17.87,23,17.79,24c-.06.85,1.79,1.62,2.51,1.84a.1.1,0,0,1,.07.1.09.09,0,0,1-.08.09s-2.5.56-2.49,1.89a1,1,0,0,0,.3.73,2.86,2.86,0,0,0,1.75.48c.07,0,.1,0,.11.09a.1.1,0,0,1-.1.1Z" fill="#fff"/><path d="M22.49,31.1a2.8,2.8,0,0,1-1.76-.53,1.16,1.16,0,0,1-.37-.87c0-1.19,1.62-1.8,2.33-2-.72-.26-2.41-1-2.34-1.93s1.54-1.37,2.25-1.53c-.68-.24-2.09-.86-2.24-1.88a.92.92,0,0,1,.19-.69,3.84,3.84,0,0,1,2.18-.92c-.62-.38-2.12-1.34-2.12-2,0-1,1.44-1.37,2.19-1.49-.8-.3-2.46-1.14-2.19-2.66.16-.86,1.58-1.28,2.32-1.45-.81-.22-2.45-.8-2.3-1.81s1.78-1.55,2.56-1.75c-.78-.22-2.39-.81-2.28-2S22.4,6.3,23.16,6.29c-.63-.32-1.69-1-1.69-1.76a.09.09,0,0,1,.09-.1.09.09,0,0,1,.1.1c0,1,2,1.77,2,1.77a.1.1,0,0,1,.06.12.08.08,0,0,1-.1.07s-2.39-.19-2.51,1.16,2.5,1.88,2.53,1.88a.1.1,0,0,1,.08.1.09.09,0,0,1-.08.09s-2.65.53-2.82,1.68,2.57,1.7,2.6,1.71a.11.11,0,0,1,.08.1s0,.09-.09.09-2.42.37-2.6,1.38c-.32,1.77,2.42,2.57,2.45,2.57a.12.12,0,0,1,.07.11.14.14,0,0,1-.09.09s-2.43.19-2.43,1.34c0,.53,1.64,1.58,2.27,1.93a.14.14,0,0,1,.05.11.12.12,0,0,1-.09.08s-1.78.18-2.33.88a.69.69,0,0,0-.15.54c.17,1.19,2.43,1.83,2.45,1.83a.12.12,0,0,1,.07.1.11.11,0,0,1-.08.1s-2.38.4-2.45,1.42c-.07.85,1.79,1.61,2.51,1.84a.1.1,0,0,1,.07.1.11.11,0,0,1-.08.09s-2.5.56-2.49,1.88a1,1,0,0,0,.3.74,2.83,2.83,0,0,0,1.75.47.09.09,0,0,1,.1.1.09.09,0,0,1-.09.1Z" fill="#fff"/><path d="M14.08,29.32a2.77,2.77,0,0,1-1.76-.54,1.2,1.2,0,0,1-.37-.87c0-1.19,1.63-1.79,2.33-2-.71-.26-2.4-1-2.33-1.93s1.54-1.36,2.24-1.53c-.68-.24-2.09-.86-2.23-1.88a.84.84,0,0,1,.18-.68A3.79,3.79,0,0,1,14.33,19c-.63-.38-2.12-1.33-2.12-1.95,0-1,1.44-1.38,2.18-1.49-.8-.31-2.45-1.14-2.18-2.66.16-.93,1.86-1.29,2.59-1.41-.72-.36-2.45-1.33-2.3-2.38s1.16-1.32,1.8-1.49c-.71-.17-1.9-.62-1.79-1.74C12.65,4.31,15,4,15.13,4a.11.11,0,0,1,.11.09.1.1,0,0,1-.08.11s-2.33.34-2.46,1.71,2.1,1.62,2.12,1.62a.09.09,0,0,1,.08.1.08.08,0,0,1-.08.09s-2,.27-2.13,1.43,2.46,2.3,2.49,2.31a.1.1,0,0,1,.06.11.11.11,0,0,1-.09.08s-2.57.28-2.75,1.29c-.32,1.78,2.42,2.57,2.45,2.58a.08.08,0,0,1,.07.1s0,.08-.09.09-2.43.2-2.43,1.35c0,.53,1.64,1.57,2.27,1.92a.1.1,0,0,1,0,.19s-1.78.18-2.33.89a.67.67,0,0,0-.15.54c.17,1.19,2.43,1.82,2.45,1.83a.1.1,0,0,1,.08.1.12.12,0,0,1-.09.09S12.22,23,12.14,24c-.06.85,1.79,1.62,2.51,1.84a.1.1,0,0,1,.07.1.09.09,0,0,1-.08.09s-2.5.56-2.49,1.89a1,1,0,0,0,.31.73,2.84,2.84,0,0,0,1.74.48.1.1,0,1,1,0,.19Z" fill="#fff"/><path d="M16.84,31.1a2.8,2.8,0,0,1-1.76-.53,1.16,1.16,0,0,1-.37-.87c0-1.19,1.62-1.8,2.33-2-.72-.26-2.41-1-2.34-1.93S16.24,24.4,17,24.24c-.68-.24-2.09-.86-2.24-1.88a.92.92,0,0,1,.19-.69,3.84,3.84,0,0,1,2.19-.92c-.63-.38-2.13-1.34-2.13-2,0-1,1.68-1.56,2.52-1.78a4.06,4.06,0,0,1-2.26-1.22A1.51,1.51,0,0,1,15,14.64c.16-.86,1.66-1.24,2.45-1.38-.86-.25-2.58-.87-2.43-1.88s1.78-1.55,2.56-1.75c-.78-.22-2.39-.81-2.28-2s1.49-1.33,2.25-1.34c-.62-.32-1.69-1-1.69-1.76a.09.09,0,0,1,.1-.1.09.09,0,0,1,.09.1c0,1,2,1.77,2,1.77a.11.11,0,0,1,.05.12.08.08,0,0,1-.1.07s-2.38-.19-2.51,1.16S18,9.53,18,9.53a.1.1,0,0,1,.08.1.09.09,0,0,1-.08.09s-2.65.53-2.82,1.68,2.72,1.79,2.75,1.79a.11.11,0,0,1,.08.1.12.12,0,0,1-.09.1s-2.57.28-2.75,1.29a1.24,1.24,0,0,0,.22,1A4.55,4.55,0,0,0,18,16.91a.11.11,0,0,1,.08.09.1.1,0,0,1-.08.1s-2.81.53-2.81,1.69c0,.53,1.64,1.58,2.27,1.93a.1.1,0,0,1,.05.11.12.12,0,0,1-.09.08s-1.78.18-2.33.88a.69.69,0,0,0-.15.54c.17,1.19,2.43,1.83,2.45,1.83a.1.1,0,0,1,.07.1.1.1,0,0,1-.08.1s-2.37.4-2.45,1.42c-.06.85,1.79,1.61,2.51,1.84a.1.1,0,0,1,.07.1.11.11,0,0,1-.08.09s-2.5.56-2.49,1.88a1,1,0,0,0,.3.74A2.83,2.83,0,0,0,17,30.9a.11.11,0,0,1,.11.1.1.1,0,0,1-.1.1Z" fill="#fff"/><path d="M36.8,21.36a.58.58,0,0,1-.57.57.57.57,0,0,1-.57-.57.56.56,0,0,1,.57-.57A.57.57,0,0,1,36.8,21.36Z" fill="#ee4623"/><path d="M36.94,17.55a.57.57,0,0,1-.57.57.58.58,0,0,1-.57-.57.57.57,0,0,1,.57-.57A.56.56,0,0,1,36.94,17.55Z" fill="#ee4623"/><path d="M36.89,14a.57.57,0,0,1-1.14,0,.57.57,0,0,1,1.14,0Z" fill="#ee4623"/><path d="M37.18,6.23a.56.56,0,0,1-.57.57A.57.57,0,0,1,36,6.23a.58.58,0,0,1,.57-.57A.57.57,0,0,1,37.18,6.23Z" fill="#ee4623"/><path d="M34.28,7.9a.57.57,0,0,1-.57.57.58.58,0,0,1-.57-.57.57.57,0,0,1,.57-.57A.56.56,0,0,1,34.28,7.9Z" fill="#ee4623"/><path d="M34.51,11.48a.57.57,0,0,1-.57.57.58.58,0,0,1-.57-.57.57.57,0,0,1,.57-.57A.56.56,0,0,1,34.51,11.48Z" fill="#ee4623"/><path d="M33.94,15.55a.57.57,0,1,1-.57-.58A.57.57,0,0,1,33.94,15.55Z" fill="#ee4623"/><path d="M34.28,19.25a.56.56,0,0,1-.57.57.57.57,0,0,1-.57-.57.58.58,0,0,1,.57-.57A.57.57,0,0,1,34.28,19.25Z" fill="#ee4623"/><path d="M33.94,22.63a.57.57,0,1,1-.57-.57A.57.57,0,0,1,33.94,22.63Z" fill="#ee4623"/><path d="M33.94,26.21a.57.57,0,1,1-.57-.57A.57.57,0,0,1,33.94,26.21Z" fill="#ee4623"/><path d="M31.31,27.54a.58.58,0,0,1-.57.57.57.57,0,0,1-.57-.57.56.56,0,0,1,.57-.57A.57.57,0,0,1,31.31,27.54Z" fill="#ee4623"/><path d="M31.11,20.53a.57.57,0,1,1-.57-.57A.57.57,0,0,1,31.11,20.53Z" fill="#ee4623"/><path d="M31.35,17a.57.57,0,1,1-1.13,0,.57.57,0,1,1,1.13,0Z" fill="#ee4623"/><path d="M31.32,13.46a.57.57,0,1,1-.56-.58A.57.57,0,0,1,31.32,13.46Z" fill="#ee4623"/><path d="M31.62,9.63a.57.57,0,0,1-.57.57.56.56,0,0,1-.57-.57.57.57,0,0,1,.57-.57A.58.58,0,0,1,31.62,9.63Z" fill="#ee4623"/><path d="M32.06,5.86a.58.58,0,0,1-.57.57.57.57,0,0,1-.57-.57.56.56,0,0,1,.57-.57A.57.57,0,0,1,32.06,5.86Z" fill="#ee4623"/><path d="M28.89,7.81a.56.56,0,0,1-.57.57.57.57,0,0,1,0-1.14A.56.56,0,0,1,28.89,7.81Z" fill="#ee4623"/><path d="M28.89,11.39a.57.57,0,0,1-.57.57.58.58,0,0,1-.57-.57.57.57,0,0,1,.57-.57A.56.56,0,0,1,28.89,11.39Z" fill="#ee4623"/><path d="M28.32,15.22a.57.57,0,0,1-.57.57.58.58,0,1,1,.57-.57Z" fill="#ee4623"/><path d="M28.89,18.89a.57.57,0,0,1-.57.57.58.58,0,0,1-.57-.57.57.57,0,0,1,.57-.57A.56.56,0,0,1,28.89,18.89Z" fill="#ee4623"/><path d="M28.32,22.52a.57.57,0,0,1-.57.57.58.58,0,0,1-.57-.57.57.57,0,0,1,.57-.57A.56.56,0,0,1,28.32,22.52Z" fill="#ee4623"/><path d="M25.82,24.31a.57.57,0,0,1-.57.57.56.56,0,0,1-.57-.57.57.57,0,0,1,.57-.57A.58.58,0,0,1,25.82,24.31Z" fill="#ee4623"/><path d="M25.82,20.53a.57.57,0,0,1-.57.57.57.57,0,0,1,0-1.14A.57.57,0,0,1,25.82,20.53Z" fill="#ee4623"/><path d="M26,17a.57.57,0,1,1-1.13,0A.57.57,0,1,1,26,17Z" fill="#ee4623"/><path d="M25.82,13.2a.57.57,0,0,1-.57.57.56.56,0,0,1-.57-.57.57.57,0,0,1,.57-.57A.58.58,0,0,1,25.82,13.2Z" fill="#ee4623"/><path d="M26.39,9.18a.57.57,0,0,1-.57.57.56.56,0,0,1-.57-.57.57.57,0,0,1,.57-.57A.58.58,0,0,1,26.39,9.18Z" fill="#ee4623"/><path d="M23.5,7.86a.57.57,0,1,1-.56-.57A.56.56,0,0,1,23.5,7.86Z" fill="#ee4623"/><path d="M23.36,11.34a.57.57,0,0,1-1.14,0,.57.57,0,1,1,1.14,0Z" fill="#ee4623"/><path d="M23.21,15.22a.57.57,0,0,1-.57.57.58.58,0,1,1,.57-.57Z" fill="#ee4623"/><path d="M23.26,18.68a.56.56,0,0,1-.57.57.57.57,0,0,1-.57-.57.58.58,0,0,1,.57-.57A.57.57,0,0,1,23.26,18.68Z" fill="#ee4623"/><path d="M23,22.41a.58.58,0,0,1-.57.57.57.57,0,0,1-.57-.57.56.56,0,0,1,.57-.57A.57.57,0,0,1,23,22.41Z" fill="#ee4623"/><path d="M20.77,24.31a.56.56,0,0,1-.57.57.57.57,0,0,1-.57-.57.58.58,0,0,1,.57-.57A.57.57,0,0,1,20.77,24.31Z" fill="#ee4623"/><path d="M20.48,20.53a.57.57,0,0,1-.57.57.57.57,0,1,1,0-1.14A.57.57,0,0,1,20.48,20.53Z" fill="#ee4623"/><path d="M20.48,17a.58.58,0,0,1-.57.57.57.57,0,0,1-.57-.57.56.56,0,0,1,.57-.57A.57.57,0,0,1,20.48,17Z" fill="#ee4623"/><path d="M20.38,13.2a.57.57,0,0,1-.57.57.56.56,0,0,1-.57-.57.57.57,0,0,1,.57-.57A.58.58,0,0,1,20.38,13.2Z" fill="#ee4623"/><path d="M20.57,9.43a.57.57,0,1,1-1.13,0,.57.57,0,1,1,1.13,0Z" fill="#ee4623"/><path d="M17.79,11a.58.58,0,0,1-.57.58.58.58,0,1,1,.57-.58Z" fill="#ee4623"/><path d="M17.2,15.22a.57.57,0,0,1-.57.57.58.58,0,1,1,.57-.57Z" fill="#ee4623"/><path d="M17.44,18.68a.57.57,0,0,1-1.14,0,.57.57,0,0,1,1.14,0Z" fill="#ee4623"/><path d="M17.44,22a.57.57,0,1,1-.57-.57A.58.58,0,0,1,17.44,22Z" fill="#ee4623"/><path d="M14.85,20.13a.57.57,0,0,1-1.14,0,.57.57,0,1,1,1.14,0Z" fill="#ee4623"/><path d="M14.46,17.12a.57.57,0,0,1-.57.57.57.57,0,0,1,0-1.14A.57.57,0,0,1,14.46,17.12Z" fill="#ee4623"/><path d="M14.46,13.46a.58.58,0,0,1-.57.57.58.58,0,0,1,0-1.15A.58.58,0,0,1,14.46,13.46Z" fill="#ee4623"/><path d="M23.41,25.41a.57.57,0,0,1-.57.57.56.56,0,0,1-.57-.57.57.57,0,0,1,.57-.57A.58.58,0,0,1,23.41,25.41Z" fill="#ee4623"/><path d="M28.32,26a.57.57,0,0,1-.57.58.58.58,0,0,1,0-1.15A.57.57,0,0,1,28.32,26Z" fill="#ee4623"/><path d="M31.21,24a.58.58,0,0,1-.57.57.57.57,0,0,1-.57-.57.56.56,0,0,1,.57-.57A.57.57,0,0,1,31.21,24Z" fill="#ee4623"/><path d="M36.89,9.9a.57.57,0,1,1-1.13,0,.57.57,0,1,1,1.13,0Z" fill="#ee4623"/><path d="M36.61,24.53a.58.58,0,0,1-.57.57.57.57,0,0,1-.57-.57A.56.56,0,0,1,36,24,.57.57,0,0,1,36.61,24.53Z" fill="#ee4623"/><path d="M36.7,28.12a.57.57,0,0,1-.57.57.58.58,0,0,1-.57-.57.57.57,0,0,1,.57-.57A.56.56,0,0,1,36.7,28.12Z" fill="#ee4623"/></g><polygon points="38.81 29.29 38.81 5.07 37.4 5.07 37.4 29.22 38.81 29.29" fill="#ee4623"/><path d="M11.8,14.12h0l-3.95-1.3a.09.09,0,0,1-.06-.12.09.09,0,0,1,.12-.06l4,1.29a.11.11,0,0,1,.07.13A.11.11,0,0,1,11.8,14.12Z" fill="#fff"/><path d="M7.85,16.54a.1.1,0,0,1,0-.19l4-.27a.09.09,0,0,1,.1.09.11.11,0,0,1-.09.11l-3.95.26Z" fill="#fff"/><path d="M8,18.31a.1.1,0,0,1-.09-.07A.09.09,0,0,1,8,18.12l3.78-1a.11.11,0,0,1,.12.07.1.1,0,0,1-.07.12l-3.78,1Z" fill="#fff"/><path d="M11.8,15.26h0L8,14.51a.1.1,0,0,1-.07-.12A.09.09,0,0,1,8,14.32l3.78.75a.1.1,0,0,1,.08.12A.1.1,0,0,1,11.8,15.26Z" fill="#fff"/></g></svg>