<svg xmlns="http://www.w3.org/2000/svg" xmlns:xlink="http://www.w3.org/1999/xlink" viewBox="0 0 325 325"><defs><clipPath id="clip-path"><path d="M309.24,188.08v.1c0,5-2.55,9.9-7.22,14.46h0c-19.35,18.86-75.37,32.49-141.46,32.49-66.43,0-122.68-13.76-141.76-32.75-4.51-4.5-6.95-9.29-6.95-14.26a17.12,17.12,0,0,1,2.61-8.63c12.84-21.83,73.29-38.38,146.1-38.38s133.26,16.55,146.08,38.38A17.35,17.35,0,0,1,309.24,188.08Z" fill="none"/></clipPath><clipPath id="clip-path-2"><path d="M165,136.66c0-.49-6.14-1.26-8.37,6.1C156.66,142.76,165.33,146.61,165,136.66Z" fill="none"/></clipPath><clipPath id="clip-path-3"><polygon points="152.04 146.64 168.88 146.64 163.38 152.49 172.95 188.82 147.96 188.82 157.44 152.93 152.04 146.64" fill="#664020"/></clipPath><clipPath id="clip-path-4"><path d="M155.17,138.71c.65-.12.4-8.42-9.85-9.85C145.32,128.86,142,141.18,155.17,138.71Z" fill="none"/></clipPath><clipPath id="clip-path-5"><path d="M309.41,217.58v.1c-.09,23.12-52.94,42.32-122.53,46.23q-7.06.39-14.35.58-5.85.13-11.81.14-6.43,0-12.73-.17-6.81-.18-13.45-.55C64.89,260,12,240.77,12,217.63a16.41,16.41,0,0,1,2-7.59c23.77,22.72,85.64,34.51,147,34.51,61,0,122.54-11.68,146.55-34.18A16.31,16.31,0,0,1,309.41,217.58Z" fill="none"/></clipPath><clipPath id="clip-path-6"><path d="M201.09,292.21a12.44,12.44,0,0,0-8.83-3.65H173v-23.9q-5.85.15-11.81.15-6.44,0-12.73-.18v23.93H129.18a12.49,12.49,0,1,0,0,25h63.08a12.49,12.49,0,0,0,8.83-21.32Z" fill="none"/></clipPath><clipPath id="clip-path-7"><path d="M658,188.08v.1c0,5-2.55,9.9-7.21,14.46h0c-19.35,18.86-75.37,32.49-141.46,32.49-66.43,0-122.68-13.76-141.76-32.75-4.51-4.5-6.95-9.29-6.95-14.26a17,17,0,0,1,2.61-8.63c12.84-21.83,73.29-38.38,146.1-38.38s133.25,16.55,146.08,38.38A17.23,17.23,0,0,1,658,188.08Z" fill="none"/></clipPath><clipPath id="clip-path-8"><path d="M658.19,217.58v.1c-.09,23.12-52.94,42.32-122.53,46.23q-7.08.39-14.35.58-5.85.13-11.81.14-6.45,0-12.73-.17-6.81-.18-13.45-.55C413.67,260,360.8,240.77,360.8,217.63a16.29,16.29,0,0,1,2-7.59c23.76,22.72,85.63,34.51,146.94,34.51,61,0,122.55-11.68,146.56-34.18A16.44,16.44,0,0,1,658.19,217.58Z" fill="none"/></clipPath></defs><title>Icono mesa</title><g style="isolation:isolate"><g id="Capa_1" data-name="Capa 1"><g opacity="0.36"><g clip-path="url(#clip-path)"><path d="M-36.57,158.52s0-.07.26-.11h0c.9-.12,5-.22,23.22-.36,6.9-.05,15.26-.11,25.21-.16l7.71,0c118.6.05,238.17-2.81,356.92-1.38-121.23-2.86-241.62.95-363.2.09H5.05l-35.86.06a.24.24,0,0,1-.15,0,.09.09,0,0,1-.06-.08c0-.06,0-.09.21-.11h.29l1.59,0,5.46-.05,20.39-.17L11.24,156l8,0c116.73,0,233.83-4.76,350.93-2.86-117.1-2.86-235,1-352,0-3.09,0-6.1,0-9,0l-38.31,0h0c-.11,0-.21,0-.21-.11s.09-.12.2-.12h0l33.41-.26,9.35-.07c106.62-.46,213.83-3.32,320.21-3.32-107.21-.47-213.59,1-320.86.82H-35.6c-.11,0-.2-.06-.2-.12s0-.08.2-.11h.22c.4,0,1.16,0,2.64-.05l8.21-.1,30.18-.31,6.56-.07c79.24-1,158.81-2.54,238.32-3.32l9.54-.09c40.81-.45,80.39-.45,120.8-.45-43.71-.48-86.59-1.43-130.69-.84l-9.56,0c-76.42.32-152.7,1.47-229.39,1H4.7c-35.1.06-38.86,0-39,0a.09.09,0,0,1-.06-.08s0-.08.25-.12h0c.8-.11,4.1-.19,17.62-.37l19.7-.22,8.19-.08c66.21-.46,132.43-1.54,198.64-2.19l9.4-.09c37.71-.84,74.81-.36,112.75-.36-38.76,0-78.34-1-117.27-.16l-9.86,0c-62.44.28-125,.78-187.25.35-3.53,0-7,0-10.24,0H-35.28c-.11,0-.2,0-.2-.11h0c0-.07.09-.12.2-.12l45-.11c3,0,6.12,0,9.28,0q38.72-.28,77.55-.44l9.71-.05,9.71,0,9.71,0,9.72,0,9.68,0c16.45-.2,32.11-.2,48.64-.14l9.73,0,9.66,0c54.8.47,108.4-.48,162.82-.48-54.42-.48-108.85-1.43-162.86-.22l-9.6,0-9.8,0c-19.77.14-38.74.14-58.59.24l-9.77,0-9.79,0c-6.77-.18-12.54-.18-19.52.06l-9.78,0q-34.2.1-68.42.08H9.13c-27.67,0-42.72-.1-43-.27a.11.11,0,0,1-.07-.09c0-.17,0-.19,14-.29l29.13-.18,7.91,0q33.94,0,67.8-.17l9.64-.05c91.71-.69,182.43-1.65,274-1.65-107.2,0-213.58,0-321.16.07H37.77l-19.15,0H9.48l-44,0h0c-.11,0-.21,0-.21-.12h0c2.5,0,4.15,0,6.69-.17l7.11-.06,34.39-.3c2.87,0,5.83-.05,8.84-.06l9.59-.12,9.6-.11c98.63-1.08,196.76-2.51,295.71-2.51-124.52-.95-248.21.95-372.73-.48,131.12-1.43,261.41-2.38,392.52-2.38-130.29-2.86-259.76,1-390-.48,117.1-.95,234.2-3.81,351.3-3.33-117.93-1-235,1.43-352.95,0,84.12-2.38,167.4-1.43,251.52-4.77,37.11-1.42,73.39.48,110.5,0-122.87-1.9-245.75,1-368.61,0,76.69-1.42,154.2-.47,230.89-1.9,19,0,38.76-1,58.55-.48-19.79-.47-40.4.48-60.19.48-76.7,1.43-152.56-.48-229.25,1,76.69-1.9,153.38-.47,230.07-2.38,33-1,66.79.48,100.61,0-33.82,0-67.62-1.43-101.43-.48-75.87,1.91-152.56-.47-228.43,1,75.87-2.86,151.73-1.91,228.43-3.82,19.79-.47,39.58-1.9,59.37-1,34.63,1,68.44,0,103.08,0l-114.63-1.43c-14.84-.47-28.86.48-43.7.48-77.52,1-155-1-232.55,1,133.59-3.81,266.36-1.43,400-2.38-35.46-1-70.09,0-105.55-1-19.8-1-39.59,0-59.38,0-80,1-159.15-1-239.14,1,27.21.48,55.25-1.43,82.46-1.91,63.5-1,127.82,1.43,191.32,0,42.05-.47,84.93.48,127,.48-55.25.48-109.68-1.43-164.93-1-78.34,1-156.68,0-235,1.43,136.07-4.77,272.13-3.34,408.2-3.81-134.42-1.43-269.66-1-404.08,0,136.89-3.82,273-2.86,409.85-5.24q-205.33,0-410.67.47C85.65,101.2,211,101.2,337.26,99.34l8.61-.1,7.67-.09c7.54.15,15-.81,22.38-.33h-66l-9.44,0H275.33c-5-.05-10.73-.05-16,0h-11c-11.84-.1-22.56-.1-33.7.06H209l-5.79,0c-79.61.76-158.77-.19-238.76.29,75.87-1.91,150.91-1.91,226.8-2.8l6.14-.06c78.09-.78,151.89-1.58,173.32-2.06h-274c-44-.32-88.53,1.11-132.23-.32C6.48,93.58,48.54,92.63,91,92.66l9.06-.09,71.72-.69c70.6-.66,141.84-1.29,179.53-1.63l-177.9,0H47.24c-26.74,0-53.12,0-79.51,0,6.59-.95,12.37,0,18.82-.58l5.93,0c10.57-.09,24.58-.17,42.57-.26,40-.19,93.69-.36,145.58-.53,79.09-.25,160.42-.52,187-.83-59.78,0-395.48,0-399.28,0h0c-.12,0-.21,0-.21-.12h0c0-.06.09-.12.21-.12l405-2c-60.72-.51-399.63.18-403.55.19h0c-.11,0-.21-.07-.21-.12s.09-.12.21-.12h0L346.31,82.8H-28.25c-.12,0-.21,0-.21-.12s.09-.12.21-.12c2.88,0,208.71-.19,325.48-.36-117,0-323.34,0-326.24,0a.23.23,0,0,1-.14,0,.09.09,0,0,1-.06-.08s0-.07.2-.11h.06c1-.14,5.44-.3,26.26-.6,15.47-.22,37.37-.48,66.93-.79,54.14-.57,122.86-1.19,183.49-1.74,51.56-.47,98.11-.89,121.12-1.15H-36.23c-.11,0-.21-.06-.21-.12s0-.07.21-.1v0H-36c1-.08,4.74-.13,17.59-.24,10.75-.09,26.56-.2,47-.33,34.39-.21,82.35-.47,142.54-.77,84.9-.42,170.72-.81,198.25-.93-59.88-.53-398,.19-401.86.19h0c-.11,0-.21,0-.21-.11s.1-.12.21-.12l397.57-2.52c-56.44-.15-238.36,0-333.58.09-51.95,0-59.84,0-61.09,0h0c-.2,0-.22,0-.23,0a.09.09,0,0,1-.06-.08s0-.07.22-.1v0h.15c1.14-.11,5.77-.19,24.61-.33,14.61-.12,35.35-.24,63.41-.38,51.5-.26,118.28-.53,177.21-.77,42.22-.17,81.36-.33,108.83-.46-133.08.1-359.67.23-376.42,0h-.84v0h-.15c-.12-.07,0-.2.15-.2L315.52,69H-34.17c-.11,0-.21-.06-.21-.12s.1-.12.21-.12H377.08c.12,0,.21,0,.21.12h0c0,.07-.09.12-.2.12L-1.24,70.46c96.5.11,381.92-.11,385.37-.11a.29.29,0,0,1,.14,0s.07.05.07.08,0,.08-.21.1v0h-.27c-.91.06-3.61.07-11.58.12-7.21,0-17.71.11-32.12.17-27,.13-64.65.28-104.48.44-96.67.39-212.83.86-251.82,1.24l47.62,0c245.33-.21,342.73-.21,350.4,0h.35v0h.15c.12.07,0,.21-.14.21l-360,2.28c112.52-.21,348.28-.57,356.1.11h.05l.14,0c.12.07,0,.2-.14.21-3.61,0-319,1.4-397.21,2.07H384.05c.12,0,.21.05.21.12s0,.08-.21.1v0h-.13c-.74.06-3.1.09-10.59.18-6.54.08-16.1.19-29.23.31-24.68.25-59.5.56-96.36.9C143.81,80.06,5.37,81.31-23.51,82l197,0H312.68l45.87,0H371.4c2.55,0,3.73,0,4.28,0h.23v0c.24,0,.24,0,.24.1s0,.08-.23.1v0h-.19c-.53,0-1.7,0-4.33.05l-12.82,0-45.79.09L203,82.56H377.36c.12,0,.21.06.21.12a.19.19,0,0,1-.2.12L11.27,85.61c106.23-.2,362.85-.59,371.34.08h.06a.36.36,0,0,1,.15,0c.12.07,0,.21-.14.21L17.36,87.76l155.16,0H372.11c2.87,0,4,0,4.48,0h0c.31,0,.31,0,.31.1s0,.08-.23.12h0c-.76.11-3.88.19-16.62.3-10,.09-24.44.18-44.12.27-36.6.17-84.53.33-135.28.49-60.28.19-121.76.39-163,.62l-8,0c-11.45.52-23-.43-34.54.52,19.79,0,38.76,0,58.71-.21H39c116.64,0,336.48,0,339.63,0h0c.11,0,.21,0,.21.12h0c0,.06-.09.12-.21.12h0c-2.73,0-167.6,1.47-288.37,2.65L84.15,93c-36.43.14-72.72,1.1-109,1.1q56.9,0,113.88.08H377c.12,0,.21,0,.21.11s0,.08-.21.11h-.08c-1,.14-5.7.28-26.83.59-15.79.23-38.11.5-68.21.83l-71.38.75-9.44.09c-77.45,1.23-155,.75-232.48,2.66,78.34-.48,156.68-.48,235.31-.53h5.7l5.58,0c10.7.08,20.59.08,31.41-.06h28.23l30.52,0h15.85q19.92,0,33.38,0h6.35l5.55,0,8.77,0c4.81,0,7.54.09,8.25.16h0l.14,0c-139.65,2.84-279,1.89-418.38,5.22,137.72-.48,276.26-1,414,0-136.89,1.91-273,1.43-409.84,4.77,135.24-1.91,271.3-1,406.54,0-138.54,1.42-277.08-1.43-415.62,3.81,136.89-2.86,273.78-1.43,410.67-.48-102.25-.48-204.5,1-306.76-.48,27.21.48,54.42,1,81.64,1,72.57,0,145.13-.48,217.7,1-60.2,2.38-120.39-1-180.59.48-71.75,1.43-144.31-.48-216.06,1.9,74.22-2.38,149.26-.47,223.48-1,6.6,0,14-.48,21.44-.48,48.65-1,98.13,1,146.78,1.43-128.64,1-257.28,1-385.93,4.77,31.34,0,61.85-1.43,93.19-1.91,47.83,0,95.66,1.91,143.49.48,48.65-1,98.13,1,146.78,1.43-39.58,0-78.34,0-117.92-1.43-19-.48-37.11,1.43-55.25,1.9-62.68.48-124.52-.95-187.2,1,120.4-1.43,240-1,360.37.47-131.12-1-261.41-.47-392.53,1,75.05.48,150.91-.47,226-.47,8.25,0,17.32-1,26.39-1,47-.48,93.19,1,140.19,1.42-44.53,1-89.06-.47-133.59,0-9.9,0-20.62,1.43-30.51,1.43-74.22,1.43-147.61,1.43-221.83,3.34,132.77,0,265.53-1,398.3,0-124.52,0-249,2.38-373.56,3.33,125.34.48,251.51-1.43,376.86.48-135.24,0-269.66,1.91-404.9,2.38,135.24,1.91,270.48-1.43,405.72.48-107.2,0-215.23,1.9-322.38,2.8l-9.38.07L22,138l-7.19,0-19.22.17h52c109.79-.33,219.47-1.29,329.15.14-94.84.48-188.84,1.43-283.39,2l-9.79,0q-34.27.14-68.6.06l-8.31.05c-16,.08-28.17.16-34.78.23,7.25.06,21.22.1,39.69.11h8.12q33.67.1,67.42,0l9.65,0c6.21-.13,12.8-.13,19.27,0l9.67,0,9.65,0c18.74,0,38.54,0,57.91-.22l9.69,0,9.51,0c57.08-.2,113.16-.68,170.06.28-54.43.47-108.85,0-163,.66-3,0-6.13.07-9.36.09l-9.71.08-9.7.09c-7,0-12.75,0-19.4.15l-9.7.08L152,142l-9.69.06-9.69.06q-38.78.21-77.44.08,44.88.21,89.6.05l9.95,0,9.94,0,9.94,0,9.94,0,9.94,0,9.94,0,9.94,0c54.39-.77,108-.29,162.42.19-52,.47-103.08.47-155.29.84l-9.5.09c-66.8.58-133.54,1.41-200.53,1.95l-8.51.08c-13.57.14-24,.27-30.32.38,7.18,0,19.77,0,35.93,0h8.32c76.62,0,153.43-.94,230.12-1.08h9.9c42.36.18,85.24.18,127.3,1.13-37.94,1-75,0-113.36.53l-9.64.09c-83.58.8-167.15,2.64-250.87,3.5L3,149.71l-18.69.19H16.06c120.72.84,240.29-3,360.69.36-122-1.42-244.1,1.43-366.14,2.86,122,0,244.09-3.33,366.14,0C257.18,151.7,137.6,155,18.1,156.23l-6.8.05-6.41.05h8.55c121.69.15,244.56-3.19,366.79,0,1.5,0,2.32.06,2.37.09a.12.12,0,0,1,.07.09c0,.08,0,.13-1.7.17-120.5-1.64-240.89,1.69-361.09,1.41l-8.27,0c-18.84.1-33.3.21-41.19.32,7.75,0,21.76,0,39.86,0H19.6c119.65.89,238.4-2.92,357.66-.17,2.14,0,3.78,0,4.9.08a11.57,11.57,0,0,1,1.78.09.09.09,0,0,1,.06.08c0,.09,0,.14-2.25.19-1.12,0-2.81.06-5.4.09-118.35-1.38-237.92,3.86-356.51,3.82l-7.26.08-18.86.19H25.16c115.74.72,230.36-1.18,345.76,0,3.62,0,6.35,0,8.2,0h2.81c.11,0,.2.05.21.11s-.09.12-.21.12l-2.84,0-8.27.07C257.18,163.14,144.2,166,30.39,166.9l-8.93.1-31.84.34h40.6c113.15.56,226.13-.87,339,0h11c.11,0,.2.05.2.11s-.09.12-.2.12l-2.81,0-8.08.08c-108.87.2-217.72,3.06-326.72,3.8l-9.72.11-40.32.47,35.35,0H38.16c107.69-.32,215.72-1.27,323.42-.07l9.73.06c5.3,0,8.23.07,8.32.12a.11.11,0,0,1,.06.09c0,.16,0,.26-16.28.49l-8.17.09c-55.18,1.29-110.44.33-165.58,1.53l-10.06.08-59.49.47c-63,.5-119.17.94-140.55,1.19,27.16.07,110.33,0,191.22-.08l72.25-.07h7.77c22.39.06,44.51.07,66.77,0l16.72,0,16.81,0H357c12.83,0,19.3,0,21.05.1h.35v0h.14c.12.07,0,.21-.14.21l-17.82.13-7.36,0c-7,.06-12.78.06-19.44.08l-6.57.05c-4.39,0-8.81.08-13.23.16l-5.85,0-6,.05c-6.19.15-12.78.15-19,.14l-6.62.05L2.36,179c76.82,0,156.88-.08,223.37-.09h5.83q68.12-.07,136.12.07l6.68,0,4,0h1v0h.15c.06,0,.08.08.05.12a.23.23,0,0,1-.19.08l-2.91,0-8.35.06c-53.19.47-106,.95-159.46,1.08l-7.47.06L-22.11,182c6,.06,15.43.1,27.46.12h7.53c24.12.07,48.86.07,72.5,0H91l17.21,0h17.69l24.13,0h24.44c67.06.19,133-.77,199.86-.23,1.4,0,2.26,0,2.68,0h.13a.44.44,0,0,1,.18,0s.07.05.07.08,0,.08-.27.11h-.05c-.46,0-1.62,0-4.53.07-114.52.09-229.15,1-343.77,1.51,116.27,0,231.72,0,348,0h3.15c.12,0,.21,0,.21.12s0,.07-.21.1v0h-.14c-.47,0-1.58.08-4.27.12-72.15.63-143.89.63-215.63,1.1,72.57.48,144.31-1,216.88.48Q177.59,187-21.55,187.44c132.76.95,266.35,0,399.12,0-96.48,1.43-192.14.47-288.62.47q144.72.72,289.44.48c-130.29,2.38-261.4,2.38-391.7,3.33,129.47-.47,259.76,1.43,389.23,0-80.81,1.43-160.8,1.91-241.62,1,81.64,1.43,164.11.47,245.75,0-88.24,2.38-175.65,1.43-263.89,1.43,89.06.95,177.3.47,266.36,0-139.36,3.33-278.73,2.86-418.09,4.28,14,.48,28.86.48,42.88.48,61.85.48,124.52,0,186.37.95,63.5,1,127-.47,190.49-.95-93.19,1.43-185.55,2.86-278.73.95q-39.59,0-79.16,1.43c-20.62.48-41.24-.95-61.85-.47,73.39,1.9,147.61-.48,221,.95,66,1.43,131.12,0,197.09-.48-103.08,1.91-207,1.91-310.06,1.43-21.44,0-43.71.48-65.15.48,61.85-.48,122.87,0,184.72,1,63.49.48,127.82-1,191.31-1C244,207.45,105.44,207-33.92,207.45c75,2.38,149.26,0,224.3,1.43,63.5,1,127-1,190.49-1-104.73,1.91-208.64,1.43-313.36,2.39-34.64.47-70.1.47-104.73.47,14,.48,27.21.48,41.23.95,18.14.48,37.11-.47,55.25-.47,46.18-.95,92.36,0,138.54.48,59.38.47,119.57-1.43,179-.48-136.89,1-273.78.48-410.67,0,12.37,1,25.56.47,37.93.47,23.09,1,47-.47,70.09,0,103.08.95,206.16-.48,309.24,0l-9.78.26-9.78.24-9.78.23C226.78,215.36,99,214.25-28.15,216c103.67.37,207.82.17,311.61,0l9.72,0h91c-30.51.48-61.85.48-92.63.88l-9.84,0c-72.27.31-144.66.18-216.67.51,71.44,0,142.48.23,213.57.24h9.67c29.93.71,60.44-.73,90.12.23-33.8.48-66.79.48-100.59.71l-9.89,0c-89.08.32-178.14.14-267.2,1.15,87.89,0,175.36-.48,262.9-.48h9.73c35.79,0,72.07,0,107.53,1-51.95.95-104.73.48-157,1.29l-9.75.08q-87.75.66-175.47,1.38l-9.76.09c-13.36-.46-25.73.49-39.05.39l-9.77.1H188.3c61.45,0,122.48,0,184.32.95C243.16,227,113.69,226-15.78,227.46c130.29-.48,260.58.95,390.88.95-134.42,2.86-268.83,0-403.25,1.43,132.77-1,265.53,1.43,398.3.48-131.94,1.42-263.06-1-395,0,133.59-1,267.18,2.38,400.77.47-42.05,1-83.29,1.43-125.34,1-94-1-187.2-.47-281.2,1.91,133.59-2.38,266.35,2.86,400,0-33.82,1.91-67.62,2.86-101.43,1.91-98.14-1.43-197.1-.48-295.23,1.43,17.32,0,33.81-.48,51.13-1,117.1-1.9,234.2,3.81,351.3,1.43-24.74.95-49.48,1.91-74.22,1.91-109.68.47-220.18-2.86-329.85,0,110.49-1.91,221,1.9,331.5,1.43,24.74,0,49.48-.48,74.22-1.91-33.81,1.91-67.62,3.34-101.43,2.86C172.23,240.8,70,237.94-33.1,241.27c24.74,1,49.48-1.43,74.22-1,110.5,0,221.83,4.29,332.33,1-48.66.48-97.31,3.82-146,1.91-14.85-.48-28.87.47-43.71,0-62.67-1-126.17-2.86-188.84,0,11.54-.48,22.26-1,33.81-1,116.27-.48,231.72,4.28,348,1-62.68,3.33-125.35,1.91-188,2.38,63.49,0,127.82.48,191.32-1.43-33,1-66.8,1.43-99.79,2.86-28,.48-55.25-1-83.28-.48-69.27,1-139.37-4.28-208.64,1C.71,247,13.08,246,25.45,246c96.21-.4,191.84,2.18,287.86,2l9.6,0c12.6,0,25.8,0,38.42-.35l9.64-.14-9.64.22c-19.22.73-39,.73-57.7.85l-9.62.07c-89.8.54-179.59-1.35-269.38-2.1,90.43.75,180.87,3.22,271.3,2.71l9.67-.07c19.19-.73,39-.25,58.12-.94,3.25-.09,6.5-.17,9.73-.27l-9.94.28c-23.05.68-46.14.68-69.08,1.48l-9.87.15c-69,.94-137.89.57-207.16-1.43-37.1-.95-74.21,2.38-111.32,2.86,24.74,1.43,48.65-1.91,72.57-1.91,76.42,1.29,152.47,2.36,228.65,2.33h9.89c32.76.07,66.57-.41,99.56-.89-34.64.48-70.1,1-105,1.68l-9.5.13c-57.16.76-114.26,1-171.65-.38-41.23-.95-82.47,2.38-123.7,3.34,19.79,0,39.58-1,59.38-1q79.16,0,158,.2l9.86,0c63.06,1.21,124.9-.22,187.57.26-135.24,4.29-269.65,0-404.89,4.76,133.59-1.43,266.36,1,400-.47-136.07,2.86-273-1.43-409,1.43,136.06-1,273,2.38,409,0-28.86.95-58.55,1.9-87.41,1.43-104.73-.48-209.46-.48-314.19,1.9,132.76-3.33,266.36,2.38,399.12-.47-19,.47-37.11.95-56.07.95-115.45,0-230.9-2.38-346.35.47,136.06-2.85,273,1.43,409-.95-36.28.95-72.57,2.38-108.85,1.91-98.13-1.91-197.09-1.91-295.22,0,132.76-3.81,264.71,2.86,397.47-1-34.63,1.43-68.44,3.34-103.08,2.39-101.43-2.86-202,0-303.46,0C70.8,268,173.89,265.57,277,268.91c35.45.95,70.09-2.86,104.72-1.43-27.21.95-53.6,2.38-80.81,2.38H9.78c89.89.95,179.77-.48,269.66,1.9,33.81,1,66.79-1.9,100.61-1.9-40.41.95-80,3.33-120.4,2.86-92.36-1.43-184.72-.48-277.08.95,104.73-2.38,208.63,1.43,313.36,1.43,27.22,0,54.43-1.43,81.64-1.91-42.88,1-85.76,4.77-128.64,1.91,43.7,3.34,88.23-2.38,131.94-1-56.08,1-111.33,3.33-167.4.47,55.25,2.86,110.5,1,165.75-.47-58.55,3.33-117.1,2.38-175.65,1.9,59.38,1.43,118.75,1,178.12-.47-126.17,5.24-253.16.95-380.15,2.38,94,0,187.19.48,281.2,1.43,30.51.47,61-1.43,91.53-1.43-28,1.43-56.9,1.9-84.93,2.86-15.67.47-32.16-.48-47.83-1-23.09-.47-45.36,1-68.45,1-68.44,0-136.06,0-204.51,1.9,137.72-2.86,274.61,1.91,412.32-.47-47.83,0-94.83,1.9-142.66,1.9-91.54.48-182.25-1.9-273.78,2.38,14.84-.47,28.86-1.43,43.7-.95q185.55.72,371.09,0c-125.34,1.91-251.51.95-376.86,1.43-14.84,0-28.86.95-43.7,1.43,140.18-1.91,281.2,0,421.39-.95-138.54,2.38-277.08,1.43-415.62,4.76q204.09-.72,407.89-.63c2.4,0,4.25,0,5.62,0s2.25,0,2.71,0h.23v0a.32.32,0,0,1,.15,0c.12.07,0,.2-.14.2l-2.78,0-7,.06c-132.91,1.19-264.85,1.66-397.62,3.57,122.05-.48,243.27,0,365-.63h8.8c24.93,0,36.75.06,37,.19a.09.09,0,0,1,.06.08c0,.17,0,.2-8.72.3-5.31.06-13.22.12-23.52.18-9.17.06-20.47.12-33.8.18l-8.23,0c-93.24.14-186.43,1.1-279.61.62,86.59.48,172.35.48,259.3.25h89.47c.11,0,.2.06.2.12s0,.08-.2.1v0h-.26c-.55,0-1.74,0-4.33.08l-13,.15c-10.59.12-26.16.28-46.28.48l-27.9.28-7.74.08c-93.45,1.3-185.8,1.3-279,2.73,61,0,122.87,0,184.18-.28H204.1c4.42-.18,8.54-.18,12.68,0h24.88c4-.16,8.09-.16,12.13,0h6c69.14,0,123.31.07,123.77.33a.12.12,0,0,1,.06.09c0,.19,0,.32-18.05.52-10.77.12-26.61.24-47.07.36-33.39.2-79.54.4-137.23.59h-5.62l-8.89,0-8.92,0c-23.5.74-45.76.26-68.85.26,22.26,0,44.53,0,66.39-.08H172.5c59.42,0,106.75,0,140.7,0l46.37,0,13,0c2.53,0,3.73,0,4.3,0h.3v0c.2,0,.2.05.2.09s-.09.12-.2.12c-2.3,0-131.66,1-244.87,1.95l-6.64.06c-3.72.16-8.66.16-13.15.11l-6.49.06c-59,.52-102.05,1-76.26.72l-9.88.1-9.23.1-8.55.1c-13.63.16-24.16.3-30.51.42,54,0,407.48,0,411.33,0a.33.33,0,0,1,.15,0c.08,0,.07.13,0,.17l-.14,0h0c-.28,0-.86.05-1.75.08,0,0,.06.05.06.08h0c0,.07-.09.12-.21.12-42.21.09-412.51.87-414.08,0a.1.1,0,0,1,0-.18s.91,0,3.32-.06h-4.33c-1.41,0-1.41,0-1.41-.13,1.6-.14,2.42-.14,4.35-.29l5.24-.1,8.34-.13,19.75-.25,8.2-.09c6-.23,12.62-.23,18.77-.2l6.57-.07c17.95-.18,39.25-.38,63.73-.6l9.34-.09c6.57-.22,13.16-.22,19.55-.17l10.21-.08,32.39-.28c72.48-.6,145.63-1.16,182.22-1.44-38.1,0-115.94,0-191.74,0h-6.51c-62.64-.16-124.49-.16-187.16-.16,70.09,0,140.18-1,209.89-.56l7.06,0c91.68-.3,181-.71,196.3-1.18-13.78-.22-86.63-.24-167.22-.19H185.89c-72.2,0-143.95,0-216.51,0q154.62-1.43,309.3-3l5.79-.06c32.33-.32,59.45-.6,76.26-.78H299.06c-112,.46-223.31-.49-335.46.46,116.28-1.9,233.38-.47,349.88-1.82l9.12,0c26.63-.13,46.81-.25,56-.37-7.4-.05-21.95-.06-41.34-.06h-8.59c-120.95.39-241.35-.09-362.57.39,132.76-2.86,264.71-1.43,397.47-3.82-133.59.48-268,.48-401.6.48,133.6-4.29,267.19-1.9,400.78-4.76Q159.87,288.91-43,288c40.4-1.9,81.64-1.43,122-1.43,85.77-.47,170.7,0,256.46-.47-126.16,1.43-252.33-1.43-378.5.47,127-4.76,254.81-.95,382.63-3.81-127,1.91-254-1.9-381,0,114.62-3.33,228.42-1.43,343-2.86,20.61,0,41.23-.95,61.84-1.9-33,1-66,2.38-98.95,1.9Q111.21,277-42.17,278.91c100.61-2.86,201.21-1.9,301.82-.47,31.33.47,62.67-1.91,94-1.91-15.67,0-31.34,1-47,1-116.27,0-233.37-2.38-349.64-1.43,113-1.9,226.77.48,339.75.48,23.09,0,46.18-1.43,69.27-1.91-20.62,0-41.24,1.43-61.85,1.43-114.63,0-230.08-2.86-344.7-.95,21.44,0,43.71-1.91,65.15-1.43-22.27-.95-43.71,1.91-66,.95,100.6-1.9,200.38-.95,301,1,24.74.47,50.3.47,75-1.43a229.53,229.53,0,0,1-31.34,1c-113.8-1-227.6-1.91-341.4-1.43,82.47-2.86,165.76-.95,248.22-2.38,37.93-1,75.87,3.33,113.8,0-121.22.47-242.45-2.38-363.67-1,116.28-2.38,231.73,0,348-.95,23.92-.47,47-.95,70.92-2.38-138.54,3.33-277.9,0-416.44.48,104.73-.48,210.28-2.39,315,0,14.84,0,29.69,0,44.53-1-23.09,1-47,0-70.1-.47-95.65-1-191.31,0-287-.48,105.55-1.43,211.93-1.43,317.49.48,26.39.47,53.6-1.43,80-1.43-14.84,0-28.86.95-43.71.47-117.1-.95-235,0-352.12-.95,52,0,103.9-1.9,155.86-.47-53.6-1.43-106.38,1.42-160-.48q165.75-1.43,331.5-1.43c-108.85,0-218.53-.95-327.38-.95,40.41-.48,81.64-1.91,122.05-1.43-41.23-.48-81.64,1.43-122.87,0,134.41-1.91,268-1.91,402.42-4.29-68.44,0-136.89,1-205.19.76l-9.38,0q-32.91-.24-65.81-1.19c-27.48-1.19-55-.39-82.94.73l-8.4.35c-5.14.83-10.09-.12-14.75.34-2.14,0-4.31,0-6.47-.11-4.33-.12-8.66-.35-12.78-.83,22.26.48,43.7-1.43,65.14-1.91,79.17-1.42,157.87.09,236.46-.46l9.74-.08c22.64-.41,44.9-.41,67.17-1.36-22.27.48-45.36.48-67.5.62L264,252c-59.13.3-118.11,0-177.49-1.62-31.33-1-62.67-.48-94,.95-10.72.95-20.62,1.43-31.34-.48,24.74,1.43,50.3-1.9,75-1.9,85.79,0,171.57,1.8,257.36.63l9.51-.14c19.28,0,38.25-1,57.21-1.45-19,.48-38.75,1-57.4,1l-9.57.1c-73.37.7-146.86-.37-220.82-2.57-29.69-.47-58.55,1-88.24,2.39-7.42,0-15.67.47-23.09-1,25.56,1.91,51.13-1.9,76.69-1.9,90.74.81,182.07,3.36,273,2.31q4.71,0,9.4-.12c12-.76,25.21-.29,37.58-.76-9.89,0-19.79,0-29.69.3l-9.9.09c-79.17.74-158.44,1-238.31-2.3-39.58-1.43-78.34,2.86-117.1,1.91,34.63,0,70.09-3.34,104.73-2.86,87.41,1.43,175.65,3.33,263.06.48-17.32.47-33.81.95-51.13.95-99,.47-197.09-5.72-296.87-1a138.07,138.07,0,0,1-19.79-1c21.44,1,42.05-.95,63.5-.95,114.62-1,230.07,5.24,344.69,0C264.6,247,157.39,242.7,51,241.75c-19,0-37.11.95-56.08,1.43-10.72.47-21.44,1.9-32.16-.48,111.32-2.86,221.83,1.43,333.15.48,19.79,0,40.41-1.43,60.2-1.43-23.91,0-48.65,1.9-72.57,1.43-106.38-1.43-212.76-2.86-319.13-2.38,106.37-2.39,213.58-1,320,.95C178,239.37,72.46,238.41-33.92,239.37c94.83-2.38,188.84-1.91,283.67-.48-95.66-2.38-192.14-.95-287.8-1.9,105.56-1.91,211.11-3.82,316.67-1,14.84.48,28.86-.95,43.7-.95-118.75-.48-236.67-1.91-355.42-1.43,109.68-2.38,218.53-2.86,328.21-1.43-108.86-3.33-217.71,0-326.56-1.9,6.6.47,13.2-.48,19.79-.48-8.24-.48-16.49,1.43-24.74-.48,134.42-.47,268.84.48,403.25-1q-200.39,0-400.77-.95C101.32,227,235.73,225.55,371,224.6c-63.49-.48-127-1.43-190.25-.79l-9.83,0q-54,.12-108.13.15H52.93c-23.35.62-45.62-.34-68.83-.21l-9.84-.06-9.83-.07,29.11-.3,9.7-.1,9.7-.09,9.7-.09q96.95-.88,193.66-1.52l9.68-.07c41.09-.21,82.32-.21,123.55-1.16H254.78c-97.34,0-194.9-.11-292-.47q155.51-.54,311-1.49l9.69-.05c28.95.12,57.82-.84,86.68-.36-28.86,0-57.73-1-86.21-.47h-9.68c-103.27,0-206.79,1.09-309.83,0,108.85,0,218.53-.48,327.38-.95-109.68,0-218.53.95-328.21-.95,137.72-.48,276.26-.48,414-3.81-140.19,1.42-279.55-.48-419.74,0,4.12-1.43,9.07,0,13.2-.47-5,0-9.08.47-14-.48,131.94-1.43,263.06-.47,395-2.38-80-.48-160,1.43-240,0-52-1-104.73.95-156.68-.48,84.94-.95,169.05-.95,254-1.9,56.89-1,113.8-.48,170.7-2.86-93.19.48-186.37,1.9-279.56,0-47.83-.95-95.66,1-143.48-.48,77.51,1,155-1.9,233.37.48,36.28,1.43,73.39-1.91,109.68-.95-113.81.47-226.78-1-340.58-1,85.76-1.43,170.7-.47,256.46-.95,47,0,94,.48,141-1-48.65,1-96.48,1-145.13.47-84.11-.47-169,0-253.16-.95,86.58-1.9,174-1.43,260.58-2.86,44.53-.47,89.89,0,134.42-1.43-42.06,1.43-84.12,0-126.17,0-88.24.48-177.3.48-265.54-.47,135.24-.48,271.31.95,406.55-1-134.42,1-268,0-402.42-.47,131.11,0,262.23.95,393.35-.48-132.77,0-264.71,0-397.48-.48,136.07-.95,273-1.42,409-3.33-133.59.48-268,.48-401.59-.48h97.3c-32.16-.47-64.32,1-96.48-.47,133.59-1.43,268,0,401.6-2.39-134.42,0-268,.48-402.42,0,131.11,0,263.06-1,394.17-1q-197.91-.72-395.82-.48c128.64-.47,256.46-1.42,385.1-1.42-67.62,0-134.41,0-201.75.08h-7l-13.73,0h-6.71c-4.15-.12-9.1-.12-13,0H85.87c-25-.16-48.87-.16-73.5,0H5.08c-11.62,0-20.55-.07-26.46-.13-2.36,0-4.25,0-5.62-.08a10.17,10.17,0,0,1-2.75-.13c-.11-.07,0-.21.14-.21l236-1.61,7,0c47.87-.34,94.87-.81,142.7-.81-42.88,0-84.94,0-127.68-.19h-6.4c-115.45,0-252.63.11-255,.11-.12,0-.21,0-.21-.12h0c0-.07.09-.12.21-.12l308-2.26,6.11,0c15.79-.14,31.6-.19,47.42-.32l7.92-.07c4.78.16,10.55-.79,15.82-.19l7.92-.13H328.71c-21.12,0-42.35,0-63.13.14h-5.26l-89.54.08c-146.72.15-196.38.17-200.32,0h-.05a.5.5,0,0,1-.2,0s-.07,0-.07-.08,0-.08.27-.11h0c.71-.07,3.19-.11,11.92-.2,7.3-.08,17.92-.18,32.48-.31l105.29-.85,62.21-.49,6.3,0c58.66,0,117.21-1.44,175.52-1.64l4.81-.07,7-.13c-1.88,0-4.49,0-7.77-.05q-164.07,0-328.72,0H34.22l-64.7.08c-.11,0-.2-.06-.2-.12h0c0-.07.09-.12.2-.12l61-.71,5.58-.06c108.14-1.06,215.34-3,323.37-3.91-110.5,0-220.18,0-330.68.15H-32.53c-.11,0-.21-.05-.21-.11h0c0-.06.09-.11.21-.12l55.87-.6,5.41-.05c109.68-.22,220.18-4,329.85-3.55-113-1.91-225.12,1-338.45,0H-30.2c-.11,0-.2-.05-.2-.11h0c0-.07.09-.12.2-.12L15,162.43l9.32-.09c115.75-.63,231.19-4.44,346.61-3.74,3.66,0,6.5,0,8.57-.09l-7-.08c-118.63-2.44-237.38.42-355.72.24H11.06c-38.62,0-47.42,0-47.57-.07A.1.1,0,0,1-36.57,158.52Z" fill="#d3ad65" style="mix-blend-mode:multiply"/></g></g><path d="M307.55,210.37c-24,22.5-85.54,34.18-146.55,34.18-61.31,0-123.18-11.79-146.95-34.51a16.41,16.41,0,0,0-2,7.59c0,23.14,52.87,42.37,122.52,46.28H148v24.47H128.72a12.49,12.49,0,0,0,0,25H191.8a12.49,12.49,0,0,0,0-25H172.53V263.91h14.35c69.59-3.91,122.44-23.11,122.53-46.23v-.1A16.31,16.31,0,0,0,307.55,210.37Z" fill="#664020"/><path d="M309.68,188.93V189c0,5-2.55,9.91-7.21,14.47h0C283.11,222.35,227.09,236,161,236c-66.44,0-122.68-13.77-141.76-32.76-4.52-4.49-6.95-9.28-6.95-14.25a17,17,0,0,1,2.61-8.63C27.74,158.5,88.18,142,161,142s133.25,16.54,146.08,38.38A17.2,17.2,0,0,1,309.68,188.93Z" fill="#d3ad65" style="mix-blend-mode:multiply"/><path d="M309.41,217.58v.1c-.09,23.12-52.94,42.32-122.53,46.23q-7.06.39-14.35.58-5.85.13-11.81.14-6.43,0-12.73-.17-6.81-.18-13.45-.55C64.89,260,12,240.77,12,217.63a16.41,16.41,0,0,1,2-7.59c23.77,22.72,85.64,34.51,147,34.51,61,0,122.54-11.68,146.55-34.18A16.31,16.31,0,0,1,309.41,217.58Z" fill="#905515"/><path d="M174.45,189c0,.92-6.15,1.67-13.73,1.67S147,189.93,147,189s6.15-1.68,13.73-1.68S174.45,188.08,174.45,189Z" fill="#95d1c8" opacity="0.5" style="mix-blend-mode:multiply"/><path d="M165,136.66c0-.49-6.14-1.26-8.37,6.1C156.66,142.76,165.33,146.61,165,136.66Z" fill="#477930"/><g clip-path="url(#clip-path-2)"><path d="M155.79,143.37a14.81,14.81,0,0,0,9.58-7.53S167,147.24,155.79,143.37Z" fill="#477930" opacity="0.4" style="mix-blend-mode:multiply"/></g><path d="M153.71,125.09s.78,18.81,9.6,33.06" fill="none" stroke="#477930" stroke-miterlimit="10" stroke-width="2"/><path d="M153,114.74s1.77-3,3.51-3.73c0,0,1.29,1.32,1.86,5.09S151.36,119.49,153,114.74Z" fill="#c93155"/><path d="M151.15,111.52a11.33,11.33,0,0,1-1,4.29c-.66,1.46-5,9.34,3.37,10.85C153.51,126.66,157.91,114.45,151.15,111.52Z" fill="#d84f6a"/><path d="M152.88,126.5s5.75,1.63,7.79-1.65.2-7.1-.35-8-1.6-3.53-.41-4.73a13.48,13.48,0,0,0-7.91,9.61S151.66,125.58,152.88,126.5Z" fill="#de7182"/><path d="M167.36,137.81A124.66,124.66,0,0,1,157,165.22" fill="none" stroke="#477930" stroke-miterlimit="10" stroke-width="2"/><path d="M169.91,129.57s-.85-2.74-2.11-3.69c0,0-1.3.82-2.49,3.75S170.34,133.74,169.91,129.57Z" fill="#d84f6a"/><path d="M172.05,127.34a9.36,9.36,0,0,0,0,3.66c.25,1.31,2.26,8.52-4.82,8.12C167.22,139.12,166,128.39,172.05,127.34Z" fill="#de7182"/><path d="M167.75,139.11s-5,.21-6-2.84,1.22-5.78,1.84-6.41,2-2.55,1.24-3.75a11.2,11.2,0,0,1,4.54,9.3S168.92,138.6,167.75,139.11Z" fill="#c93155"/><polygon points="152.04 146.64 168.88 146.64 163.38 152.49 172.95 188.82 147.96 188.82 157.44 152.93 152.04 146.64" fill="#dfa364"/><polygon points="152.04 146.64 168.88 146.64 163.38 152.49 172.95 188.82 147.96 188.82 157.44 152.93 152.04 146.64" fill="#664020"/><g clip-path="url(#clip-path-3)"><g opacity="0.2" style="mix-blend-mode:multiply"><path d="M147,183.3c1-.32,16,3,27.83-9s4.56,20.12,4.56,20.12L141.7,194Z" fill="#dfa364"/></g></g><path d="M155.17,138.71c.65-.12.4-8.42-9.85-9.85C145.32,128.86,142,141.18,155.17,138.71Z" fill="#477930"/><g clip-path="url(#clip-path-4)"><path d="M144.34,127.83s2.54,7.67,12,11.17C156.33,139,141.52,143.56,144.34,127.83Z" fill="#477930" opacity="0.4" style="mix-blend-mode:multiply"/></g><g opacity="0.49"><g clip-path="url(#clip-path-5)"><path d="M-26.44,227.55s0,0,.26,0h0c.9,0,5-.06,23.23-.1l25.2,0H30c118.59,0,238.16-.78,356.91-.39-121.22-.79-241.62.27-363.2,0h-8.5l-35.86,0h-.15l-.06,0s0,0,.21,0h7.34l20.4-.05,14.31,0h8c116.74,0,233.83-1.32,350.93-.79-117.1-.79-235,.26-352,0h-9l-38.31,0h0a.36.36,0,0,1-.21,0,.47.47,0,0,1,.21,0h0l33.41-.07,9.35,0C130.42,225.79,237.62,225,344,225c-107.2-.13-213.58.27-320.86.23H-25.47c-.11,0-.2,0-.2,0s0,0,.2,0h2.86l8.22,0L15.78,225l6.56,0c79.24-.27,158.82-.71,238.32-.92l9.54,0C311,224,350.59,224,391,224c-43.7-.14-86.58-.4-130.69-.24h-9.55c-76.43.09-152.71.41-229.4.28H14.84c-35.1,0-38.87,0-39,0s-.06,0-.06,0,0,0,.25,0h0c.8,0,4.1-.05,17.62-.1l19.71-.06,8.18,0q99.33-.18,198.65-.6l9.39,0c37.71-.23,74.82-.1,112.75-.1-38.76,0-78.34-.26-117.27,0h-9.86c-62.43.08-124.95.22-187.25.1H-25.14c-.12,0-.21,0-.21,0h0s.09,0,.21,0l45,0h9.28q38.7-.08,77.54-.12l9.71,0H155.2c16.45-.05,32.12-.05,48.65,0h19.38c54.8.13,108.4-.13,162.82-.13-54.42-.14-108.85-.4-162.86-.06h-19.4c-19.77,0-38.74,0-58.59.07H125.64c-6.77-.05-12.54-.05-19.52,0H96.35q-34.21,0-68.43,0H19.26c-27.66,0-42.72,0-43-.07l-.07,0s0-.05,14-.08l29.14,0h7.91q33.93,0,67.79,0l9.65,0c91.71-.19,182.42-.45,274-.45H-24.43a.44.44,0,0,1-.2,0h0c2.49,0,4.14,0,6.68-.05l7.12,0,34.38-.08,8.84,0,9.6,0,9.59,0c98.63-.3,196.76-.7,295.72-.7-124.52-.26-248.22.27-372.74-.13,131.12-.39,261.41-.66,392.53-.66-130.29-.79-259.76.27-390.06-.13,117.1-.26,234.2-1.06,351.3-.92-117.92-.27-235,.39-352.94,0,84.11-.66,167.4-.4,251.51-1.32,37.11-.4,73.39.13,110.5,0-122.87-.53-245.74.26-368.61,0,76.69-.4,154.2-.14,230.9-.53,19,0,38.75-.27,58.55-.13-19.8-.14-40.41.13-60.2.13-76.69.39-152.56-.13-229.25.26,76.69-.53,153.38-.13,230.07-.66,33-.26,66.8.13,100.61,0-33.81,0-67.62-.39-101.43-.13-75.87.53-152.56-.13-228.43.26,75.87-.79,151.74-.52,228.43-1.05,19.79-.13,39.58-.53,59.37-.27,34.64.27,68.45,0,103.08,0l-114.63-.4c-14.84-.13-28.86.13-43.7.13-77.52.26-155-.26-232.55.26,133.59-1,266.36-.39,400-.65-35.46-.27-70.09,0-105.55-.27-19.79-.26-39.59,0-59.38,0-80,.27-159.15-.26-239.14.27,27.21.13,55.25-.4,82.46-.53,63.5-.27,127.82.39,191.32,0,42.06-.13,84.94.13,127,.13-55.25.13-109.67-.4-164.92-.26-78.35.26-156.69,0-235,.39,136.06-1.32,272.12-.92,408.19-1.05-134.42-.4-269.66-.27-404.07,0,136.89-1.06,273-.8,409.84-1.46q-205.33,0-410.67.14c126.17-.8,251.52-.8,377.79-1.31l8.6,0,7.67,0c7.54,0,15-.23,22.38-.1H285.46c-5,0-10.73,0-16,0h-11c-11.84,0-22.56,0-33.7,0h-11.5c-79.62.21-158.78-.06-238.77.08,75.87-.53,150.91-.53,226.81-.78h6.13c78.1-.22,151.9-.44,173.32-.57h-274c-44-.1-88.52.3-132.23-.1,42.06-.13,84.11-.39,126.53-.38l9.07,0,71.71-.19,179.53-.45H-22.14c6.6-.26,12.37,0,18.82-.16l5.93,0,42.57-.07,145.58-.15c79.1-.07,160.42-.14,187-.23-59.78,0-395.48,0-399.28,0h0c-.11,0-.2,0-.2,0h0a.44.44,0,0,1,.2,0l405-.56c-60.72-.14-399.63.05-403.54.05h0c-.11,0-.21,0-.2,0s.09,0,.2,0h0l376.51-.8H-18.12c-.11,0-.21,0-.21,0a.51.51,0,0,1,.21,0c2.88,0,208.71,0,325.48-.1H-19s-.06,0-.06,0,0,0,.21,0h.05c1,0,5.44-.08,26.26-.17L74.37,206l183.49-.48L379,205.17H-26.1c-.11,0-.21,0-.21,0s0,0,.21,0h.22c1.06,0,4.75,0,17.6-.07l47-.09,142.54-.21,198.25-.26c-59.87-.15-398,.05-401.85.05h0c-.11,0-.2,0-.2,0s.09,0,.2,0l397.57-.7c-56.43,0-238.36,0-333.57,0-51.95,0-59.85,0-61.1,0h-.24s-.06,0-.06,0,0,0,.21,0h.16c1.13,0,5.76-.05,24.6-.09,14.62,0,35.36-.07,63.41-.11l177.21-.21,108.83-.13c-133.08,0-359.67.06-376.42,0h-1c-.11,0,0-.05.15-.05l348.27-.38H-24c-.11,0-.2,0-.2,0s.09,0,.2,0H387.22c.11,0,.2,0,.2,0h0s-.09,0-.2,0l-378.33.41c96.5,0,381.92,0,385.37,0h.15s.06,0,.06,0,0,0-.21,0H394c-.92,0-3.62,0-11.58,0l-32.12,0-104.49.12c-96.66.11-212.83.24-251.82.35H41.62c245.32-.06,342.72-.06,350.4,0h.49c.12,0,0,.05-.14.05l-360,.64c112.52-.06,348.28-.16,356.1,0h.2c.11,0,0,.06-.14.06-3.62,0-319,.39-397.21.58H394.18c.12,0,.21,0,.21,0s0,0-.21,0h-.13c-.74,0-3.09,0-10.59.05l-29.23.09-96.36.25c-103.93.26-242.37.6-271.25.8H386.05c.24,0,.24,0,.24,0s0,0-.23,0h-.19l-4.32,0H368.72l-45.79,0-109.76,0H387.5a.44.44,0,0,1,.2,0s-.09,0-.2,0l-366.1.78c106.23-.06,362.85-.17,371.34,0H393c.12,0,0,.05-.14.05L27.49,208H386.72c.31,0,.31,0,.31,0s0,0-.22,0h0c-.76,0-3.88,0-16.62.08-10,0-24.44.05-44.11.08l-135.29.13c-60.28.05-121.76.11-163,.17l-8,0c-11.46.14-23-.12-34.55.14,19.79,0,38.76,0,58.71-.06H388.78c.12,0,.21,0,.21,0h0a.44.44,0,0,1-.2,0h0c-2.73,0-167.6.41-288.37.74H94.28c-36.43,0-72.72.3-109,.3q56.9,0,113.88,0h288c.11,0,.2,0,.2,0s0,0-.2,0H387c-1,0-5.7.07-26.83.16-15.79.06-38.1.14-68.21.23l-71.37.21-9.45,0c-77.45.34-155,.21-232.48.74Q96.2,210.94,214,211h11.27c10.7,0,20.59,0,31.41,0H385.33c4.81,0,7.54,0,8.25,0h.18c-139.65.79-279,.52-418.37,1.45,137.71-.14,276.25-.27,414,0-136.89.52-273,.39-409.84,1.32,135.24-.53,271.3-.27,406.54,0-138.53.39-277.07-.4-415.61,1.05,136.89-.79,273.78-.39,410.67-.13-102.26-.13-204.51.26-306.77-.13q40.82.19,81.64.26c72.57,0,145.14-.13,217.71.27-60.2.66-120.4-.27-180.6.13-71.74.39-144.31-.13-216.06.52,74.22-.65,149.26-.13,223.48-.26,6.6,0,14-.13,21.44-.13,48.66-.26,98.13.26,146.79.4-128.65.26-257.29.26-385.93,1.31,31.33,0,61.84-.39,93.18-.52,47.83,0,95.66.52,143.49.13,48.65-.27,98.13.26,146.78.39-39.58,0-78.34,0-117.92-.39-19-.13-37.11.39-55.25.53-62.67.13-124.52-.27-187.19.26,120.39-.4,240-.26,360.36.13-131.11-.26-261.41-.13-392.52.27,75,.13,150.9-.14,226-.14,8.24,0,17.31-.26,26.38-.26,47-.13,93.19.26,140.19.4-44.53.26-89.06-.14-133.59,0-9.89,0-20.61.39-30.51.39-74.22.4-147.61.4-221.83.93,132.77,0,265.53-.27,398.3,0-124.52,0-249,.66-373.56.92,125.35.13,251.52-.4,376.86.13-135.24,0-269.66.53-404.9.66,135.24.53,270.49-.39,405.73.13-107.21,0-215.23.53-322.39.78l-9.38,0-18.86,0H24.94l-19.22.05h52c109.79-.1,219.46-.36,329.14,0-94.83.13-188.84.39-283.39.55l-9.79,0q-34.28,0-68.59,0H16.79l-34.78.07c7.25,0,21.23,0,39.69,0h8.12q33.68,0,67.43,0h9.64c6.21,0,12.81,0,19.27,0h19.32c18.75,0,38.54,0,57.91-.06h19.2c57.09-.06,113.16-.19,170.06.08-54.42.13-108.85,0-163,.18l-9.36,0-9.7,0-9.7,0c-7,0-12.76,0-19.41.05l-9.7,0-9.7,0H152.4l-9.69,0q-38.78.06-77.44,0,44.88.06,89.61,0h69.59c54.38-.21,108-.08,162.41.05-51.95.13-103.08.13-155.29.24l-9.5,0q-100.18.24-200.53.54l-8.5,0-30.33.11H27c76.61,0,153.43-.26,230.12-.3H267c42.36.05,85.24.05,127.3.32-37.93.26-75,0-113.36.14l-9.64,0c-83.58.22-167.15.73-250.87,1l-7.33,0-18.69,0H26.19c120.72.24,240.29-.82,360.69.11-122-.4-244.09.39-366.14.79,122.05,0,244.09-.93,366.14,0-119.57-.4-239.15.53-358.64.86H23.57c121.69,0,244.56-.88,366.8,0l2.37,0s.06,0,.06,0,0,0-1.69,0c-120.5-.45-240.9.47-361.09.39H21.74c-18.84,0-33.29.06-41.19.09H29.74c119.64.24,238.39-.81,357.65-.05l4.9,0,1.78,0s.06,0,.06,0a12.26,12.26,0,0,1-2.24,0l-5.4,0c-118.36-.38-237.93,1.07-356.52,1.06l-7.26,0-18.86,0H35.3c115.73.2,230.36-.33,345.76,0h11c.12,0,.21,0,.21,0s-.09,0-.2,0h-2.85l-8.27,0c-113.64,0-226.62.77-340.43,1l-8.93,0L-.25,230h40.6c113.16.16,226.13-.24,339,0h11c.11,0,.21,0,.21,0a.43.43,0,0,1-.21,0h-2.81l-8.08,0c-108.86.06-217.72.85-326.72,1l-9.72,0-40.31.13,35.34,0H48.3c107.68-.09,215.71-.35,323.41,0l9.73,0,8.32,0,.07,0s0,.07-16.28.13l-8.18,0c-55.18.35-110.43.09-165.58.42l-10,0-59.5.13c-63,.14-119.16.26-140.55.33,27.16,0,110.33,0,191.22,0l72.25,0h7.77c22.39,0,44.52,0,66.77,0h39.45l21.05,0h.5c.11,0,0,.06-.15.06l-17.82,0-7.36,0-19.43,0h-6.58l-13.23.05H312.26c-6.2,0-12.79,0-19,0h-6.62l-274.14.56,223.38,0h5.82q68.12,0,136.12,0h11.81c.06,0,.08,0,.05,0a.47.47,0,0,1-.19,0h-2.91l-8.35,0c-53.19.13-106,.26-159.46.3h-7.47L-12,234.05c6,0,15.43,0,27.46,0H23c24.12,0,48.86,0,72.5,0h89.07c67.06.05,133-.22,199.87-.07h3l.06,0s0,0-.27,0h-.05c-.46,0-1.62,0-4.53,0q-171.78,0-343.77.42H390.05c.11,0,.2,0,.2,0s0,0-.2,0h-.14l-4.28,0c-72.14.18-143.89.18-215.63.31,72.57.13,144.31-.27,216.88.13q-199.15.39-398.3.53c132.77.26,266.36,0,399.12,0-96.48.39-192.14.13-288.62.13q144.72.19,289.45.13c-130.29.66-261.41.66-391.7.93,129.46-.14,259.76.39,389.22,0-80.81.39-160.8.52-241.61.26,81.63.4,164.1.13,245.74,0-88.24.66-175.65.4-263.89.4,89.06.26,177.3.13,266.36,0-139.36.92-278.73.79-418.09,1.18,14,.14,28.86.14,42.88.14,61.85.13,124.52,0,186.37.26,63.5.26,127-.13,190.49-.26-93.18.39-185.54.79-278.73.26q-39.58,0-79.16.4c-20.62.13-41.23-.27-61.85-.14,73.39.53,147.61-.13,221,.27,66,.39,131.12,0,197.09-.13-103.08.52-207,.52-310.06.39-21.44,0-43.71.13-65.15.13,61.85-.13,122.87,0,184.72.27,63.5.13,127.82-.27,191.32-.27C254.11,241.1,115.57,241-23.79,241.1c75,.66,149.26,0,224.3.4,63.5.26,127-.27,190.49-.27-104.73.53-208.63.4-313.36.66C43,242,7.55,242-27.09,242c14,.14,27.21.14,41.23.27,18.14.13,37.11-.13,55.25-.13,46.18-.27,92.36,0,138.54.13,59.38.13,119.57-.4,179-.13q-205.33.39-410.67,0c12.37.26,25.56.13,37.93.13,23.09.26,47-.13,70.1,0,103.08.26,206.16-.13,309.24,0l-9.78.07-9.79.07-9.78.06c-127.21.8-255,.5-382.15,1,103.67.1,207.82,0,311.61,0H394.3c-30.51.13-61.85.13-92.62.24h-9.85c-72.27.09-144.66.05-216.66.14,71.43,0,142.48.06,213.56.07h9.67c29.93.2,60.44-.2,90.13.06-33.81.14-66.8.14-100.59.2H278c-89.07.09-178.13,0-267.2.32,87.89,0,175.37-.13,262.9-.13h9.73c35.79,0,72.07,0,107.53.26-51.95.27-104.73.14-157,.36l-9.75,0q-87.76.19-175.48.39l-9.76,0c-13.36-.13-25.73.14-39,.11l-9.77,0h208.2c61.46,0,122.48,0,184.33.26-129.47.66-258.94.4-388.41.79,130.29-.13,260.59.27,390.88.27-134.42.79-268.83,0-403.25.39,132.77-.26,265.54.4,398.3.14-131.94.39-263.06-.27-395,0,133.59-.27,267.18.65,400.77.13-42.05.26-83.28.39-125.34.26-94-.26-187.19-.13-281.2.53,133.59-.66,266.35.79,400,0-33.81.53-67.62.79-101.43.53-98.13-.4-197.09-.14-295.22.39,17.31,0,33.81-.13,51.12-.26,117.1-.53,234.2,1,351.3.39-24.74.27-49.48.53-74.22.53-109.67.13-220.18-.79-329.85,0,110.5-.53,221,.53,331.5.4,24.74,0,49.48-.13,74.22-.53-33.81.53-67.62.92-101.43.79-103.08-.26-205.34-1-308.42-.13,24.74.26,49.48-.4,74.22-.26,110.5,0,221.83,1.18,332.33.26-48.65.13-97.31,1.06-146,.53-14.84-.13-28.86.13-43.71,0-62.67-.27-126.16-.79-188.84,0,11.55-.13,22.27-.27,33.81-.27,116.28-.13,231.73,1.19,348,.27-62.67.92-125.35.53-188,.66,63.5,0,127.82.13,191.32-.4-33,.27-66.8.4-99.78.79-28,.14-55.25-.26-83.29-.13-69.27.27-139.36-1.19-208.63.27,12.36-.14,24.73-.4,37.11-.4,96.2-.11,191.83.6,287.85.54h9.61c12.6,0,25.79,0,38.41-.09l9.65,0-9.65.06c-19.22.2-39,.2-57.7.23l-9.62,0c-89.79.15-179.59-.37-269.38-.58,90.43.21,180.87.89,271.3.75l9.68,0c19.19-.2,39-.07,58.11-.26l9.73-.07-9.94.08c-23.05.18-46.14.18-69.08.41l-9.86,0c-69,.26-137.9.16-207.16-.39-37.11-.26-74.22.66-111.33.79,24.74.4,48.65-.53,72.57-.53,76.42.36,152.47.66,228.65.65h9.9c32.75,0,66.57-.12,99.55-.25-34.64.13-70.1.26-105,.46l-9.5,0c-57.16.21-114.25.29-171.65-.11-41.23-.26-82.46.66-123.7.93,19.8,0,39.59-.27,59.38-.26q79.16,0,158,.05h9.87c63.05.33,124.89-.06,187.57.07-135.24,1.18-269.66,0-404.9,1.32,133.59-.4,266.36.26,400-.14-136.07.8-273-.39-409,.4,136.06-.26,273,.66,409,0-28.86.26-58.55.53-87.41.4q-157.1-.21-314.19.52c132.77-.92,266.36.66,399.13-.13-19,.13-37.11.27-56.08.27-115.45,0-230.9-.66-346.35.13,136.07-.79,273,.39,409-.27-36.28.27-72.57.66-108.85.53-98.13-.53-197.09-.53-295.22,0,132.77-1.05,264.71.79,397.48-.26-34.64.39-68.45.92-103.08.66-101.43-.79-202,0-303.47,0,103.08.13,206.16-.53,309.24.39,35.46.27,70.09-.79,104.73-.39-27.22.26-53.6.66-80.82.66H19.92c89.88.26,179.77-.13,269.65.53,33.81.26,66.8-.53,100.61-.53-40.41.26-80,.92-120.4.79-92.36-.4-184.72-.13-277.08.26,104.73-.66,208.64.4,313.36.4,27.22,0,54.43-.4,81.64-.53-42.88.27-85.76,1.32-128.64.53,43.71.92,88.24-.66,131.94-.26-56.07.26-111.32.92-167.4.13,55.25.79,110.5.26,165.75-.13-58.55.92-117.09.65-175.65.52q89.07.6,178.13-.13c-126.17,1.45-253.17.26-380.16.66,94,0,187.19.13,281.2.4,30.51.13,61-.4,91.54-.4-28,.4-56.91.53-84.94.79-15.67.13-32.16-.13-47.83-.26-23.09-.13-45.36.26-68.45.26-68.44,0-136.06,0-204.51.53,137.72-.79,274.61.53,412.32-.13-47.83,0-94.83.53-142.66.53-91.54.13-182.24-.53-273.78.66,14.84-.14,28.86-.4,43.71-.27q185.54.19,371.08,0c-125.34.53-251.51.27-376.86.4-14.84,0-28.86.26-43.7.39,140.19-.52,281.2,0,421.39-.26-138.54.66-277.08.4-415.62,1.32q204.11-.19,407.89-.17h5.62l2.71,0h.38c.12,0,0,.05-.14.05h-2.78l-7,0c-132.91.32-264.85.46-397.62,1,122.05-.13,243.27,0,365-.17h8.8c24.93,0,36.74,0,37,.05l.07,0s0,.06-8.73.09l-23.52.05-33.79.05h-8.24c-93.24,0-186.43.3-279.61.17,86.59.13,172.35.13,259.3.07H389.3c.11,0,.2,0,.2,0s0,0-.2,0H389c-.55,0-1.74,0-4.32,0l-13,.05-46.28.13-27.9.08-7.74,0c-93.44.36-185.8.36-279,.75,61,0,122.87,0,184.18-.07h19.21c4.42-.05,8.55-.05,12.68,0H251.8c4-.05,8.09-.05,12.12,0h6c69.14,0,123.31,0,123.77.09l.07,0c0,.05,0,.09-18.06.15l-47.07.1c-33.39.05-79.54.11-137.22.16H167.94c-23.5.2-45.77.07-68.86.07,22.27,0,44.53,0,66.39,0h17.16c59.42,0,106.76,0,140.7,0h64c.21,0,.21,0,.21,0s-.1,0-.21,0c-2.3,0-131.65.27-244.87.54l-6.64,0c-3.71,0-8.66,0-13.14,0l-6.49,0c-59,.14-102.06.27-76.27.2l-9.87,0-9.24,0-8.55,0c-13.63,0-24.16.08-30.51.12,54,0,407.48,0,411.34,0h.14c.08,0,.07,0,0,.05H393l-1.75,0s.06,0,.06,0h0s-.09,0-.2,0c-42.22,0-412.51.24-414.09,0-.07,0-.08,0,0-.05l3.33,0H-24c-1.41,0-1.41,0-1.41,0,1.6,0,2.42,0,4.35-.08l5.24,0,8.34,0,19.75-.07,8.21,0c6-.07,12.61-.07,18.76-.06l6.58,0,63.73-.16,9.33,0c6.57-.06,13.17-.06,19.55,0l10.22,0,32.38-.07c72.48-.17,145.63-.33,182.23-.4-38.11,0-115.95,0-191.75,0H165c-62.64-.05-124.49-.05-187.16-.05,70.09,0,140.19-.26,209.9-.15h7.05c91.68-.08,181-.2,196.31-.33-13.78-.06-86.64-.07-167.23-.05H196c-72.2,0-143.94,0-216.51,0q154.62-.39,309.3-.82h5.8l76.26-.22H309.19c-112,.13-223.3-.13-335.45.13,116.27-.53,233.37-.13,349.87-.5l9.12,0c26.64,0,46.81-.06,56-.1H338.78c-120.95.1-241.35,0-362.57.1,132.77-.79,264.71-.39,397.48-1.05-133.6.13-268,.13-401.6.13,133.59-1.19,267.18-.53,400.77-1.32q-202.86.39-405.72.13c40.41-.53,81.64-.39,122-.39,85.77-.14,170.71,0,256.47-.14-126.17.4-252.34-.39-378.51.14,127-1.32,254.81-.27,382.63-1.06-127,.53-254-.53-381,0,114.62-.92,228.42-.4,343-.79,20.61,0,41.23-.27,61.85-.53-33,.26-66,.66-99,.53q-153.39-.8-306.77-.27c100.61-.79,201.21-.52,301.82-.13,31.34.13,62.67-.53,94-.53-15.67,0-31.34.27-47,.27-116.27,0-233.37-.66-349.64-.4,113-.52,226.77.13,339.75.13,23.09,0,46.18-.39,69.27-.52-20.62,0-41.23.39-61.85.39-114.62,0-230.07-.79-344.7-.26,21.44,0,43.71-.53,65.15-.4-22.27-.26-43.71.53-66,.27,100.6-.53,200.38-.27,301,.26,24.74.13,50.3.13,75-.39-10.72.26-20.61.39-31.33.26q-170.7-.39-341.4-.4c82.46-.79,165.75-.26,248.21-.66,37.94-.26,75.87.93,113.8,0-121.22.14-242.44-.66-363.66-.26,116.27-.66,231.72,0,348-.26,23.92-.14,47-.27,70.92-.66-138.54.92-277.9,0-416.44.13,104.73-.13,210.28-.66,315,0,14.85,0,29.69,0,44.53-.27-23.09.27-47,0-70.09-.13-95.66-.26-191.32,0-287-.13,105.55-.4,211.93-.4,317.48.13,26.39.13,53.6-.39,80-.39-14.84,0-28.86.26-43.71.13-117.09-.27-235,0-352.12-.27,52,0,103.91-.52,155.86-.13-53.6-.39-106.38.4-160-.13q165.75-.39,331.51-.4c-108.86,0-218.53-.26-327.39-.26,40.41-.13,81.64-.53,122.05-.4-41.23-.13-81.64.4-122.87,0,134.42-.52,268-.52,402.42-1.18-68.44,0-136.89.26-205.19.21l-9.38,0q-32.9-.06-65.8-.32c-27.49-.34-55-.12-82.94.2l-8.41.09c-5.14.23-10.08,0-14.75.1l-6.47,0c-4.33,0-8.66-.1-12.78-.23,22.27.13,43.71-.4,65.15-.53,79.16-.4,157.86,0,236.45-.13l9.74,0c22.64-.12,44.9-.12,67.17-.38-22.27.13-45.36.13-67.49.17l-9.84,0c-59.13.08-118.11,0-177.48-.45-31.34-.27-62.68-.13-94,.26-10.72.26-20.62.4-31.34-.13,24.74.39,50.3-.53,75-.53,85.79,0,171.58.5,257.36.18l9.52,0c19.27,0,38.24-.27,57.21-.4-19,.13-38.76.26-57.41.29l-9.56,0c-73.38.2-146.86-.1-220.83-.71-29.69-.13-58.55.27-88.24.66-7.42,0-15.67.13-23.09-.26,25.57.52,51.13-.53,76.69-.53,90.74.22,182.07.93,273,.64l9.4,0c12-.21,25.21-.08,37.58-.21-9.89,0-19.79,0-29.69.08l-9.89,0c-79.18.21-158.45.27-238.32-.63-39.58-.4-78.34.79-117.1.53,34.64,0,70.1-.93,104.73-.8,87.41.4,175.65.93,263.06.14-17.32.13-33.81.26-51.13.26-98.95.13-197.09-1.58-296.87-.26-6.59,0-13.19,0-19.79-.27,21.44.27,42.06-.26,63.5-.26,114.62-.27,230.07,1.45,344.7,0-106.38,1.05-213.58-.13-320-.4-19,0-37.11.27-56.08.4-10.72.13-21.44.53-32.16-.13,111.33-.8,221.83.39,333.15.13,19.8,0,40.41-.4,60.2-.4-23.91,0-48.65.53-72.57.4q-159.55-.6-319.13-.66c106.38-.66,213.58-.27,320,.26-106.38-.66-211.93-.92-318.31-.66,94.83-.66,188.84-.53,283.68-.13-95.66-.66-192.14-.26-287.8-.53,105.55-.53,211.1-1.05,316.66-.26,14.84.13,28.86-.27,43.7-.27-118.75-.13-236.67-.52-355.42-.39,109.68-.66,218.53-.79,328.21-.4-108.85-.92-217.7,0-326.56-.52,6.6.13,13.2-.14,19.8-.14-8.25-.13-16.5.4-24.74-.13,134.41-.13,268.83.13,403.24-.26q-200.39,0-400.77-.27c135.24-.13,269.65-.52,404.9-.79-63.5-.13-127-.39-190.26-.22H181q-54.06,0-108.14,0H63.06c-23.35.17-45.62-.09-68.83-.06h-9.84l-9.83,0,29.12-.09,9.7,0,9.69,0,9.7,0q96.95-.26,193.66-.42l9.68,0c41.09,0,82.32,0,123.56-.32H264.91c-97.33,0-194.9,0-292-.13q155.51-.15,311-.41h9.69c28.95,0,57.81-.24,86.67-.11-28.86,0-57.72-.26-86.21-.13h-9.68c-103.27,0-206.79.3-309.83,0,108.85,0,218.53-.13,327.38-.26-109.68,0-218.53.26-328.2-.27,137.71-.13,276.25-.13,414-1.05-140.18.39-279.55-.13-419.74,0,4.13-.4,9.07,0,13.2-.13-4.95,0-9.07.13-14-.14,131.94-.39,263.06-.13,395-.66-80-.13-160,.4-240,0-51.95-.26-104.73.27-156.68-.13,84.94-.26,169-.26,254-.53,56.9-.26,113.8-.13,170.7-.79-93.19.14-186.37.53-279.55,0-47.83-.26-95.66.27-143.49-.13,77.51.27,155-.53,233.37.13,36.29.4,73.39-.52,109.68-.26-113.8.13-226.78-.26-340.58-.26,85.77-.4,170.7-.14,256.46-.27,47,0,94,.13,141-.26-48.66.26-96.48.26-145.14.13-84.11-.13-169,0-253.16-.26,86.59-.53,174-.4,260.58-.8,44.53-.13,89.89,0,134.42-.39-42.06.39-84.11,0-126.17,0-88.24.13-177.3.13-265.53-.13,135.24-.14,271.3.26,406.54-.27-134.41.27-268,0-402.42-.13,131.12,0,262.23.26,393.35-.13-132.76,0-264.71,0-397.47-.13,136.06-.27,273-.4,409-.93-133.59.13-268,.13-401.6-.13H76.82c-32.17-.13-64.33.26-96.49-.13,133.59-.4,268,0,401.6-.66-134.41,0-268,.13-402.42,0,131.12,0,263.06-.27,394.18-.27q-197.92-.19-395.83-.13c128.64-.13,256.46-.39,385.1-.39-67.62,0-134.41,0-201.75,0H133.75c-4.16,0-9.11,0-13.06,0H96c-25,0-48.88,0-73.51,0H15.21l-26.46,0-5.62,0c-1.15,0-2,0-2.75,0-.11,0,0-.06.14-.06l236-.45h7c47.86-.09,94.86-.22,142.69-.22-42.88,0-84.93,0-127.68-.06h-6.39l-255,0c-.11,0-.21,0-.21,0h0s.1,0,.21,0l308-.63h6.11q23.68-.06,47.43-.09l7.91,0c4.78,0,10.55-.22,15.83,0l7.92,0H338.84l-63.13,0h-5.26l-89.54,0c-146.72,0-196.38,0-200.32,0h-.25s-.06,0-.06,0,0,0,.26,0h0c.7,0,3.19,0,11.92,0L25,232.25,130.24,232l62.22-.14h6.29c58.66,0,117.21-.4,175.52-.46l4.81,0,7,0-7.76,0q-164.07,0-328.73,0H44.35l-64.69,0a.47.47,0,0,1-.21,0h0s.09,0,.2,0l61-.19,5.58,0c108.14-.29,215.34-.82,323.37-1.08-110.5,0-220.18,0-330.68,0H-22.4c-.11,0-.2,0-.2,0h0s.09,0,.2,0l55.87-.16,5.42,0c109.67-.06,220.17-1.11,329.85-1-113-.53-225.13.26-338.46,0H-20.06c-.11,0-.21,0-.21,0h0s.09,0,.2,0l45.22-.13,9.32,0c115.74-.18,231.19-1.23,346.61-1l8.56,0-7,0c-118.64-.67-237.39.12-355.73.07H21.2c-38.63,0-47.43,0-47.57,0S-26.44,227.56-26.44,227.55Z" fill="#d3ad65" style="mix-blend-mode:multiply"/></g></g><g clip-path="url(#clip-path-6)"><path d="M172.25,256.63s0,0,.05,0h0a33.74,33.74,0,0,1,.15,3.87c0,1.15.05,2.54.07,4.19,0,.42,0,.85,0,1.29,0,19.74,1.19,39.64.58,59.41,1.22-20.18-.4-40.22,0-60.46,0-.49,0-1,0-1.41,0-3.61,0-5.85,0-6a0,0,0,0,1,0,0h0s0,0,0,0h0v.05c0,.05,0,.13,0,.26s0,.51,0,.91c0,.79,0,1.95.07,3.39,0,.73,0,1.52.05,2.39,0,.43,0,.87,0,1.33,0,19.43,2,38.92,1.21,58.41,1.21-19.49-.41-39.12,0-58.59v-1.49c0-3.84,0-6.25,0-6.38h0s0,0,.05,0,.05,0,.05,0h0s0,2.11.1,5.56c0,.5,0,1,0,1.56.2,17.75,1.41,35.6,1.41,53.3.2-17.84-.4-35.55-.34-53.41v-8.09s0,0,.05,0,0,0,0,0h0v0c0,.06,0,.19,0,.44s0,.77,0,1.36c0,1.19.08,2.91.13,5,0,.35,0,.71,0,1.09.41,13.19,1.08,26.44,1.41,39.67,0,.53,0,1.06,0,1.59.19,6.79.19,13.38.19,20.11.2-7.28.6-14.41.35-21.76,0-.53,0-1.06,0-1.59-.14-12.72-.63-25.42-.43-38.18V263.5c0-5.84,0-6.47,0-6.49h0s0,0,.05,0h0a21.54,21.54,0,0,1,.16,2.94c0,.88.06,2,.09,3.28,0,.43,0,.88,0,1.36.19,11,.65,22,.93,33.07,0,.52,0,1.05,0,1.56.35,6.28.15,12.46.15,18.77,0-6.45.4-13,.07-19.52,0-.55,0-1.1,0-1.64-.12-10.4-.33-20.8-.15-31.17,0-.59,0-1.16,0-1.71v-7.14s0,0,0,0h0s.05,0,.05,0,0,3,0,7.49c0,.5,0,1,0,1.55q.12,6.44.19,12.91c0,.54,0,1.07,0,1.61s0,1.08,0,1.62,0,1.08,0,1.62,0,1.07,0,1.61,0,1.08,0,1.62c.08,2.73.08,5.34.06,8.09,0,.54,0,1.08,0,1.62s0,1.08,0,1.61c-.2,9.12.2,18.05.2,27.11.21-9.06.61-18.12.1-27.12,0-.51,0-1.05,0-1.59s0-1.09,0-1.64c-.06-3.29-.06-6.44-.1-9.75,0-.54,0-1.08,0-1.63s0-1.08,0-1.62a20.92,20.92,0,0,0,0-3.26c0-.54,0-1.08,0-1.62,0-3.8,0-7.59,0-11.39,0-.5,0-1,0-1.44,0-4.61,0-7.12.11-7.16l0,0c.07,0,.08,0,.12,2.34,0,1.16.05,2.75.08,4.85,0,.42,0,.85,0,1.31,0,3.77,0,7.53.07,11.29l0,1.6c.29,15.27.69,30.37.69,45.61,0-17.85,0-35.55,0-53.46,0-.53,0-1.07,0-1.6v-4.71c0-4.39,0-7.18,0-7.33h0s0,0,0,0h0a5.24,5.24,0,0,0,.08,1.11c0,.33,0,.72,0,1.19,0,1.38.07,3.34.12,5.72l0,1.47c0,.53,0,1.07,0,1.6s0,1.06,0,1.6c.46,16.41,1.07,32.75,1.07,49.22.4-20.73-.41-41.32.2-62,.6,21.83,1,43.52,1,65.35,1.21-21.69-.41-43.24.2-64.93.4,19.49,1.62,39,1.41,58.48.41-19.63-.6-39.13,0-58.76,1,14,.61,27.87,2,41.87.61,6.18-.2,12.22,0,18.4.81-20.46-.4-40.91,0-61.37.61,12.77.2,25.67.81,38.44,0,3.16.4,6.45.2,9.75.2-3.3-.2-6.73-.2-10-.61-12.77.2-25.4-.41-38.17.81,12.77.21,25.54,1,38.3.41,5.49-.2,11.12,0,16.75,0-5.63.61-11.26.21-16.88-.81-12.63.2-25.4-.41-38,1.21,12.63.81,25.26,1.62,38,.2,3.29.8,6.59.4,9.88-.4,5.77,0,11.39,0,17.16.2-6.31.4-12.77.61-19.08.2-2.47-.21-4.81-.21-7.28-.4-12.9.41-25.81-.4-38.71,1.62,22.24.61,44.34,1,66.58.4-5.9,0-11.67.4-17.57.41-3.3,0-6.59,0-9.89-.4-13.31.41-26.49-.4-39.81-.2,4.53.61,9.2.81,13.73.4,10.57-.61,21.28,0,31.85.2,7-.21,14.14-.21,21.14-.2-9.2.61-18.26.41-27.45-.4-13.05,0-26.09-.61-39.13,2,22.65,1.42,45.3,1.62,68,.6-22.37.4-44.89,0-67.26,1.61,22.79,1.21,45.44,2.22,68.22,0-22.78,0-45.57-.2-68.36,1.21,21,1.21,41.87,2,62.89,0,.5,0,1,0,1.43s0,.88,0,1.28c-.06,1.25.34,2.49.14,3.73v-11c0-.51,0-1,0-1.57s0-1.08,0-1.64v-1.69c0-.28,0-.57,0-.86,0-.83,0-1.79,0-2.66v-1.82c0-2,0-3.76,0-5.61,0-.32,0-.64,0-.95v-1c-.33-13.25.08-26.43-.12-39.75.8,12.63.8,25.13,1.18,37.76,0,.34,0,.68,0,1,.34,13,.68,25.29.88,28.85V278.81c.14-7.33-.47-14.74.14-22,.2,7,.6,14,.59,21.07,0,.49,0,1,0,1.51.09,3.57.19,7.56.29,11.94.29,11.75.56,23.61.7,29.88,0-6.21,0-17.91,0-29.61v-21c0-4.45,0-8.84,0-13.24.4,1.1,0,2.06.25,3.14,0,.3,0,.63,0,1,0,1.76.07,4.1.11,7.09.08,6.66.15,15.6.22,24.24.11,13.16.22,26.7.36,31.13,0-10,0-65.84,0-66.47h0a0,0,0,0,1,.05,0h0a0,0,0,0,1,0,0l.86,67.42c.21-10.11-.08-66.53-.08-67.18h0s0,0,.05,0a0,0,0,0,1,.05,0h0l1.22,62.68V258s0,0,0,0,.05,0,.05,0c0,.48.08,34.75.16,54.19,0-19.48,0-53.83,0-54.31a0,0,0,0,1,0,0h0s0,0,0,0h0a33.61,33.61,0,0,1,.25,4.37c.1,2.57.21,6.22.34,11.14.24,9,.5,20.45.74,30.55.19,8.58.37,16.33.48,20.16V256.68s0,0,.05,0,0,0,0,0h0v0c0,.18.06.79.11,2.93,0,1.79.08,4.42.13,7.82.09,5.73.2,13.71.33,23.73.18,14.13.34,28.42.4,33,.22-10-.08-66.25-.09-66.9h0s0,0,0,0,.05,0,.05,0l1.07,66.19c.07-9.4,0-39.68,0-55.53,0-8.65,0-10,0-10.17h0s0,0,0,0h0a0,0,0,0,1,0,0h0v0c0,.19.08,1,.14,4.09.05,2.44.1,5.89.16,10.56.11,8.57.22,19.69.32,29.5.07,7,.14,13.54.2,18.12,0-22.16-.1-59.88,0-62.67v-.14h0v0s.09,0,.09,0l.57,58V257a.05.05,0,0,1,.1,0v68.46s0,0-.05,0h0s0,0,0,0l-.62-63c-.05,16.06.05,63.58.05,64.15v0h0s0,0,0,0h0v0c0-.15,0-.6,0-1.93s-.05-2.95-.07-5.35c-.06-4.5-.12-10.76-.19-17.39-.16-16.09-.36-35.43-.52-41.92,0,1.78,0,4.53,0,7.93.09,40.84.09,57.05,0,58.33v.06h0v0s-.08,0-.08,0l-1-59.93c.09,18.74.24,58-.05,59.28h0s0,0,0,0-.09,0-.09,0c0-.6-.59-53.1-.88-66.12v67.06s0,0-.05,0,0,0,0,0h0v0c0-.13,0-.52-.08-1.77,0-1.08-.07-2.68-.13-4.86-.1-4.11-.23-9.91-.38-16-.39-17.3-.93-40.35-1.22-45.16,0,3.73,0,18.26,0,32.79v23.18c0,3.16,0,5.79,0,7.63v2.14c0,.43,0,.62,0,.72a.08.08,0,0,1,0,0h0s0,0,0,0,0,0-.05,0h0v0c0-.08,0-.28,0-.71s0-1.22,0-2.14c0-1.74,0-4.31,0-7.62,0-4.62,0-10.76-.07-18.27v29s0,0-.05,0,0,0,0,0l-1.19-61c.09,17.69.25,60.41,0,61.82h0v0s-.09,0-.09,0l-.78-60.81c0,6.53,0,16.18,0,25.83v33.22c0,.48,0,.67,0,.75h0s0,0,0,0,0,0-.05,0h0a19.57,19.57,0,0,1-.13-2.77c0-1.67-.07-4.07-.11-7.34-.07-6.1-.14-14.08-.21-22.52-.08-10-.16-20.27-.26-27.13,0-.46,0-.9,0-1.33-.22-1.91.18-3.83-.22-5.75,0,3.29,0,6.45.09,9.77v.86c0,19.42,0,56,0,56.54h0s0,0-.05,0h0s0,0,0,0h0c0-.45-.62-27.9-1.13-48,0-.34,0-.68,0-1-.06-6.06-.46-12.1-.46-18.14,0,6.31,0,12.63,0,19v47.93s0,0-.05,0,0,0,0,0h0a39.41,39.41,0,0,1-.25-4.47c-.1-2.63-.21-6.34-.35-11.35-.11-3.67-.21-7.71-.32-11.89,0-.52,0-1,0-1.57-.52-12.89-.32-25.8-1.12-38.7.2,13,.2,26.08.22,39.17v1c0,.31,0,.62,0,.93,0,1.78,0,3.43,0,5.23V305c0,.4,0,.8,0,1.19v2.27c0,1.84,0,3.53,0,5.08,0,.31,0,.61,0,.91v7.28c0,.38,0,.73,0,1.06v.93c0,.57,0,1.06,0,1.46a12.12,12.12,0,0,1-.07,1.37h0v0c-1.2-23.25-.8-46.45-2.21-69.65.2,22.93.4,46,0,68.91-.81-22.78-.61-45.43-2-68.22.81,22.51.4,45.16,0,67.68-.61-23.07.6-46.13-1.62-69.19,1.21,22.79.61,45.57.2,68.36.21-17-.4-34,.21-51.07-.2,4.53-.41,9.07-.41,13.6,0,12.08.2,24.16-.4,36.24-1-10,.4-20.05-.2-30.07-.61-11.94.2-24-.81-36,1,12.35.2,24.84.4,37.2,0,1.1.21,2.33.21,3.57.4,8.1-.41,16.33-.61,24.43-.4-21.41-.4-42.83-2-64.24,0,5.21.61,10.29.81,15.51,0,8-.81,15.92-.2,23.89.4,8.09-.41,16.33-.61,24.43,0-6.59,0-13,.61-19.63.2-3.16-.61-6.18-.81-9.2-.2-10.43.4-20.73-.4-31.16.6,20,.4,39.95-.21,60,.41-21.83.21-43.52-.4-65.34-.2,12.49.2,25.12.2,37.61,0,1.37.41,2.88.41,4.39.2,7.83-.41,15.52-.61,23.34-.4-7.41.2-14.82,0-22.24,0-1.65-.6-3.43-.6-5.08-.61-12.35-.61-24.57-1.42-36.92,0,22.1.41,44.2,0,66.3,0-20.73-1-41.46-1.41-62.19-.2,20.87.61,41.87-.2,62.74,0-22.51-.81-44.89-1-67.4-.81,22.51.6,45-.2,67.54,0-17.85-.81-35.83-1.19-53.67l0-1.56c0-1,0-2.1-.05-3.14,0-.41,0-.81,0-1.2,0-1.17,0-2.24-.07-3.2,0,1,0,1.93,0,2.91v1c0,1.06,0,2.12,0,3.18,0,.52,0,1.05,0,1.58.14,18.28.54,36.54-.07,54.79-.2-15.78-.6-31.43-.85-47.17,0-.55,0-1.09,0-1.63,0-3.81-.05-7.61,0-11.42,0-.48,0-.94,0-1.39,0-2.66-.07-4.68-.1-5.79,0,1.21,0,3.54,0,6.61,0,.44,0,.89,0,1.35q0,5.61,0,11.23c0,.53,0,1.07,0,1.6.05,1,.05,2.13,0,3.21,0,.54,0,1.08,0,1.61s0,1.07,0,1.61c0,3.12,0,6.41.1,9.64,0,.54,0,1.08,0,1.61s0,1.07,0,1.58c.09,9.51.29,18.84-.12,28.31-.2-9.06,0-18.12-.28-27.13,0-.5,0-1,0-1.56l0-1.61,0-1.62c0-1.16,0-2.12-.07-3.23l0-1.61,0-1.62,0-1.61c0-.54,0-1.08,0-1.61q-.1-6.46,0-12.9c-.06,5-.05,10,0,14.92,0,.55,0,1.1,0,1.66s0,1.1,0,1.65,0,1.1,0,1.66,0,1.1,0,1.65,0,1.1,0,1.66,0,1.1,0,1.65,0,1.1,0,1.66c.32,9.05.12,18-.08,27-.2-8.65-.2-17.16-.36-25.85l0-1.58c-.25-11.12-.6-22.23-.83-33.38,0-.49,0-1,0-1.42-.06-2.26-.11-4-.16-5.05,0,1.2,0,3.3,0,6,0,.44,0,.91,0,1.38,0,12.76.4,25.54.46,38.31,0,.55,0,1.11,0,1.65-.08,7-.08,14.19-.48,21.19-.41-6.32,0-12.49-.23-18.87,0-.54,0-1.07,0-1.61-.34-13.91-1.11-27.82-1.48-41.76,0-.42,0-.83,0-1.22,0-1.18-.06-2.22-.08-3.11v4c0,.42,0,.87,0,1.33-.35,20.1,1.26,40-.15,60,.6-20.31-.61-40.63-1.21-60.95,0,20.32,1.41,40.64,0,60.95.6-19.9-.81-39.81-1.32-59.7,0-.38,0-.76,0-1.13s0-.73,0-1.07c0,.46,0,.93,0,1.42-.07,20.26,1.35,40.71,0,61.06a1.29,1.29,0,0,1,0,.4h0s-.06,0-.08-.28c.7-20.06-.71-40.11-.59-60.11,0-.47,0-.93,0-1.38,0-3.14-.09-5.54-.14-6.86,0,1.29,0,3.62,0,6.64V266c-.38,19.92,1.24,39.68.07,59.54q0,.54,0,.81a1,1,0,0,1,0,.3h0s-.05,0-.08-.37c0-.19,0-.47,0-.9.58-19.71-1.64-39.61-1.62-59.35,0-.42,0-.82,0-1.21,0-1.17-.06-2.22-.09-3.14v5.23c-.3,19.27.5,38.35,0,57.56,0,.61,0,1.06,0,1.37v.47a0,0,0,0,1,0,0s-.06,0-.06,0,0-.17,0-.48,0-.77,0-1.37c0-18.92-1.17-37.73-1.56-56.68,0-.51,0-1,0-1.48-.09-3.3-.14-5.3-.14-5.3v6.76c-.24,18.83.37,37.64,0,56.43V326s0,0-.05,0a.07.07,0,0,1-.06,0s0-.16,0-.46,0-.76,0-1.35c-.08-18.12-1.29-36.24-1.6-54.39,0-.56,0-1.1,0-1.62-.12-4.13-.2-6.71-.2-6.71,0,1.68,0,3.67,0,5.89v1.7c.14,17.93.54,35.91,0,53.84,0,.64,0,1.18,0,1.62a13.09,13.09,0,0,1-.06,1.38h0c-.07,0-.12,0-.21-2.71,0-.39,0-.84,0-1.36-.54-9.18-.14-18.38-.65-27.56l0-1.68c-.07-3.35-.14-6.69-.2-9.9-.21-10.48-.4-19.84-.5-23.4,0,4.52,0,18.37,0,31.84q0,6.78,0,12v1.3c0,3.72,0,7.41,0,11.11,0,.93,0,1.86,0,2.79s0,1.86,0,2.79c0,.35,0,.68,0,1,0,2.14,0,3.21,0,3.5v.06h0v0s-.09,0-.09,0,0-1.08-.06-3c0-.38,0-.79,0-1.23,0-1.17,0-2.13,0-3.24,0-.36,0-.72,0-1.09,0-.73,0-1.47-.07-2.2,0-.32,0-.65,0-1s0-.66,0-1c-.07-1-.07-2.13-.06-3.16,0-.37,0-.73,0-1.11-.34-18.53-.85-45.63-.85-45.63,0,12.79,0,26.12,0,37.18v1q0,11.34,0,22.66c0,.45,0,.82,0,1.12s0,.51,0,.66v.17h0s0,0,0,0h-.05l0,0s0-.17,0-.49,0-.78,0-1.39c-.21-8.85-.41-17.64-.47-26.54l0-1.25c-.31-17.86-.64-37.17-.64-37.17,0,1,0,2.57-.05,4.58,0,.4,0,.82,0,1.25,0,4,0,8.13,0,12.07,0,.31,0,.62,0,.93v2.87c0,.32,0,.64,0,1v2c0,1.33,0,2.67,0,4v1c0,.34,0,.68,0,1v2c-.08,11.16.33,22.14.1,33.27a3.48,3.48,0,0,1,0,.44v0h0a0,0,0,0,1,0,0h0s0,0-.05-.05h0c0-.07,0-.27,0-.75,0-19.07-.44-38.15-.64-57.23,0,19.36,0,38.58,0,57.93V326s0,0,0,0a0,0,0,0,1,0,0h0v0a5.73,5.73,0,0,1-.05-.71c-.26-12-.26-24-.47-35.9-.2,12.08.41,24-.2,36.1-.4-22.1-.6-44.2-.81-66.3-.4,22.1,0,44.34,0,66.44-.6-16.06-.2-32-.2-48.05-.2,16.06-.2,32.13-.2,48.19-1-21.69-1-43.52-1.41-65.21.2,21.55-.61,43.24,0,64.8-.61-13.46-.81-26.77-.41-40.23-.6,13.59-.2,27.32,0,40.91-1-14.69-.6-29.24-.6-43.93-.41,14.83-.2,29.52,0,44.34-1.41-23.2-1.21-46.4-1.82-69.6-.2,2.34-.2,4.81-.2,7.14-.2,10.3,0,20.73-.4,31-.41,10.57.2,21.14.4,31.71-.61-15.51-1.21-30.89-.4-46.4q0-6.58-.61-13.18c-.2-3.43.4-6.86.2-10.3-.8,12.22.2,24.58-.4,36.79-.61,11,0,21.83.2,32.81-.81-17.16-.81-34.45-.6-51.61,0-3.57-.21-7.28-.21-10.85.21,10.3,0,20.46-.4,30.75-.2,10.57.4,21.28.4,31.85-1.81-23.2-1.61-46.26-1.81-69.46-1,12.49,0,24.85-.61,37.34-.4,10.57.41,21.14.41,31.71-.81-17.43-.61-34.73-1-52.17-.21-5.76-.21-11.66-.21-17.43-.2,2.33-.2,4.53-.4,6.86-.2,3,.2,6.18.2,9.2.41,7.69,0,15.38-.2,23.06-.2,9.89.61,19.91.2,29.79-.4-22.79-.2-45.57,0-68.36a33.3,33.3,0,0,0-.2,6.31c-.4,3.85.2,7.83,0,11.67-.4,17.16.2,34.32,0,51.48,0-.54-.07-1.08-.11-1.63s-.07-1.08-.11-1.63l-.09-1.62c-1.22-21.18-.76-42.46-1.51-63.62-.15,17.26-.07,34.6,0,51.87,0,.54,0,1.08,0,1.62v15.15c-.2-5.08-.2-10.3-.37-15.42,0-.55,0-1.09,0-1.64-.12-12-.07-24.08-.21-36.07,0,11.89-.1,23.72-.1,35.55,0,.54,0,1.08,0,1.61-.3,5,.31,10.07-.09,15-.21-5.63-.21-11.12-.3-16.75,0-.55,0-1.1,0-1.65-.14-14.82-.06-29.65-.49-44.48,0,14.64.2,29.2.2,43.77v1.62c0,6,0,12-.4,17.9-.41-8.65-.2-17.43-.55-26.13l0-1.62c-.19-9.74-.36-19.47-.59-29.22,0-.54,0-1.08,0-1.62.2-2.22-.21-4.28-.16-6.5,0-.54,0-1.09-.05-1.63v34.66c0,10.23,0,20.39-.4,30.69-1-21.56-.6-43.11-1.21-64.66.2,21.69-.4,43.38-.4,65.07-1.21-22.38,0-44.75-.61-67.13.4,22.1-.6,44.2-.2,66.3-.61-22,.4-43.79,0-65.75.4,22.24-1,44.48-.2,66.72-.41-7-.61-13.87-.41-20.87.41-15.65.21-31.16-.8-46.81,1,22.24-1.22,44.34,0,66.58a78.44,78.44,0,0,1-.81-16.89c.6-16.33.2-32.81-.61-49.14,0,2.88.2,5.63.41,8.51.8,19.49-1.62,39-.61,58.48-.4-4.12-.81-8.24-.81-12.36-.2-18.25,1.21-36.65,0-54.91.81,18.4-.8,36.79-.6,55.19a84,84,0,0,0,.81,12.35A95,95,0,0,1,137,308.55c.41-17.16,1.62-34.18.21-51.34-.41,4.11.6,8.23.4,12.35,0,18.4-1.82,36.93-.4,55.32-.21-8.1-1.62-16.19-.81-24.29.2-2.48-.2-4.81,0-7.28.4-10.43,1.21-21,0-31.44a53.46,53.46,0,0,1,.4,5.63c.2,19.36-1.81,38.58-.4,57.93-1.41-10.43-.81-20.86-1-31.3,0,10.57-.2,21.28.61,31.85-.41-5.49-.61-11.12-1.22-16.61-.2-4.67.41-9.2.21-13.86-.41-11.53,1.81-23.2-.41-34.73.2,2.05.61,4.11.61,6.17.17,16-.93,31.94-.83,47.92,0,.54,0,1.07,0,1.6,0,2.1,0,4.3.15,6.4l.06,1.6-.09-1.6c-.31-3.2-.31-6.5-.36-9.61l0-1.6c-.23-15,.57-29.9.89-44.84-.32,15.05-1.36,30.11-1.15,45.16l0,1.61c.31,3.19.11,6.49.4,9.67,0,.55.07,1.09.11,1.62l-.12-1.65c-.28-3.84-.28-7.68-.63-11.5l-.06-1.64a320.34,320.34,0,0,1,.61-34.49c.4-6.18-1-12.35-1.21-18.53-.61,4.12.81,8.1.81,12.08-.55,12.72-1,25.38-1,38.06v1.65c0,5.45.18,11.08.38,16.57-.2-5.76-.4-11.67-.71-17.48l-.06-1.58c-.32-9.51-.44-19,.16-28.57.41-6.87-1-13.73-1.41-20.59,0,3.29.4,6.59.4,9.88,0,8.79,0,17.54-.08,26.3,0,.55,0,1.09,0,1.64-.51,10.5.09,20.79-.11,31.23-1.81-22.52,0-44.89-2-67.41.61,22.24-.4,44.34.21,66.58-1.21-22.65.6-45.44-.61-68.09.4,22.65-1,45.44,0,68.09a116,116,0,0,1-.6-14.55c.2-17.43.2-34.87-.81-52.3,1.41,22.1-1,44.34.2,66.44-.2-3.16-.4-6.18-.4-9.33,0-19.22,1-38.44-.21-57.66,1.22,22.65-.6,45.44.41,68.09A180.07,180.07,0,0,1,126.7,308c.81-16.34.81-32.81,0-49.15,1.62,22.1-1.21,44.07.4,66.17-.6-5.76-1.41-11.39-1-17.16,1.22-16.88,0-33.63,0-50.52-.2,17.16.81,34.32-.6,51.48-.4,5.91,1.21,11.67.6,17.44-.4-4.53-1-8.93-1-13.46V264.34c-.41,15,.2,29.93-.81,44.89-.4,5.63.81,11.12.81,16.75-.41-6.72-1.42-13.31-1.21-20,.6-15.38.2-30.75-.41-46.13,1,17.44-.6,34.74-.6,52.17,0,4.53.6,9.06.8,13.59-.4-7.14-2-14.28-.8-21.42-1.42,7.28,1,14.69.4,22-.4-9.34-1.41-18.53-.2-27.87-1.21,9.2-.41,18.4.2,27.59-1.41-9.74-1-19.49-.81-29.24a244.61,244.61,0,0,0,.2,29.66c-2.22-21-.4-42.15-1-63.29,0,15.65-.2,31.16-.6,46.81-.2,5.08.6,10.16.6,15.24-.6-4.67-.8-9.47-1.21-14.14a53.09,53.09,0,0,1,.41-8c.2-3.84-.41-7.55-.41-11.39,0-11.4,0-22.66-.8-34,1.21,22.93-.81,45.71.2,68.64,0-8-.81-15.79-.81-23.75-.2-15.24.81-30.34-1-45.58a44.51,44.51,0,0,1,.41,7.28q-.32,30.89,0,61.77c-.8-20.86-.4-41.86-.6-62.73,0-2.47-.4-4.81-.61-7.28.81,23.34,0,46.81.41,70.15-1-23.06-.61-46.12-2-69.19.2,22.66.2,45.31.27,67.91,0,.4,0,.7,0,.93a3.68,3.68,0,0,1,0,.45v0h0v0s-.09,0-.09,0,0-.18,0-.46,0-.67,0-1.16c-.5-22.13-.71-44.09-1.51-66.2.2,20.32,0,40.5.26,60.76v1.46c0,4.16,0,6.12-.08,6.16h0c-.07,0-.09,0-.13-1.45,0-.89,0-2.2-.08-3.92,0-1.53,0-3.41-.07-5.63,0-.44,0-.9,0-1.37-.06-15.52-.46-31-.26-46.54-.2,14.41-.2,28.69-.11,43.16,0,.36,0,.71,0,1.06v13.84s0,0-.05,0,0,0,0,0h0v0c0-.09,0-.29,0-.72s0-1.23-.06-2.16c0-1.76-.12-4.35-.21-7.7,0-1.41-.07-3-.11-4.64,0-.43,0-.85,0-1.29-.55-15.56-.55-30.93-1.15-46.45,0,10.16,0,20.46.12,30.66v3.2a9.3,9.3,0,0,1,0,2.11c0,.35,0,.7,0,1.05V303a9.65,9.65,0,0,1,0,2v1c0,11.51,0,20.52-.14,20.6h0c-.08,0-.13,0-.22-3,0-1.8-.1-4.43-.15-7.84-.08-5.56-.17-13.24-.25-22.84,0-.31,0-.63,0-.94,0-.49,0-1,0-1.48s0-1,0-1.48c-.31-3.92-.11-7.62-.11-11.47,0,3.71,0,7.42,0,11.06V290c0,.47,0,.95,0,1.42v23.42c0,3.36,0,6,0,7.72,0,.94,0,1.67,0,2.17s0,.62,0,.71v.05h0s0,0,0,0a0,0,0,0,1-.05,0c0-.38-.42-21.92-.83-40.76,0-.37,0-.74,0-1.11a17.19,17.19,0,0,1,0-2.19l0-1.08c-.22-9.81-.41-17-.3-12.69,0,.56,0-1.11,0-1.65s0-1,0-1.53,0-1,0-1.43c-.07-2.27-.13-4-.18-5.08,0,9,0,67.84,0,68.48a0,0,0,0,1,0,0,0,0,0,0,1-.07,0s0,0,0,0h0a1.06,1.06,0,0,1,0-.29h0s-.05,0-.05,0c0-7-.37-68.67,0-68.93,0,0,.06,0,.07,0a2.26,2.26,0,0,1,0,.55V257c0-.24,0-.24.06-.24.05.27.05.41.12.73s0,.5,0,.87,0,.83.06,1.39c0,.89.06,2,.1,3.29,0,.43,0,.88,0,1.36a29.51,29.51,0,0,1,.09,3.13c0,.35,0,.72,0,1.09.07,3,.16,6.53.25,10.61,0,.51,0,1,0,1.55a32.44,32.44,0,0,1,.07,3.26c0,.56,0,1.12,0,1.7,0,1.72.07,3.52.11,5.39.26,12.06.49,24.24.61,30.33,0-6.34,0-19.3,0-31.92V288.5c.07-10.43.07-20.72.07-31.16,0,11.67.4,23.34.24,34.94,0,.4,0,.79,0,1.18.13,15.26.3,30.13.5,32.68.09-2.3.1-14.42.08-27.84v-3.47c0-.39,0-.78,0-1.17,0-12,0-24,0-36q.6,25.74,1.25,51.49c0,.32,0,.64,0,1,.14,5.38.26,9.9.34,12.7V312.5c-.2-18.64.2-37.17-.2-55.84.81,19.35.2,38.85.77,58.24,0,.52,0,1,0,1.52,0,4.43.1,7.79.16,9.32,0-1.23,0-3.66,0-6.88v-1.43c-.16-20.14,0-40.18-.16-60.36,1.21,22.1.6,44.06,1.61,66.17-.2-22.24-.2-44.62-.2-66.86,1.82,22.24.81,44.48,2,66.72-.41-22.51-.41-45-.2-67.54.8,6.73.6,13.59.6,20.32.2,14.27,0,28.41.2,42.69-.6-21,.61-42-.2-63,2,21.14.4,42.42,1.62,63.7-.81-21.15.8-42.29,0-63.43,1.41,19.08.6,38,1.21,57.11a89.46,89.46,0,0,0,.8,10.3,151.53,151.53,0,0,1-.8-16.48c.8-17,1-34,.4-51.06,1.21,16.74.81,33.49.2,50.24-.2,5.22.81,10.43.81,15.65,0-2.61-.4-5.22-.4-7.83,0-19.35,1-38.85.6-58.2.81,18.81-.2,37.75-.2,56.56,0,3.84.61,7.68.81,11.53,0-3.43-.61-6.87-.61-10.3,0-19.08,1.21-38.3.41-57.38,0,3.57.8,7.28.6,10.85.41-3.71-.81-7.28-.4-11,.81,16.75.4,33.36-.41,50.11a51.86,51.86,0,0,0,.61,12.49,15.08,15.08,0,0,1-.4-5.21c.4-19,.8-37.89.6-56.84,1.21,13.73.41,27.6,1,41.32.4,6.32-1.41,12.63,0,18.95-.2-20.18,1-40.36.4-60.54,1,19.35,0,38.57.41,57.93a114.53,114.53,0,0,0,1,11.8c-1.42-23.06,0-46.26-.21-69.32.21,17.43,1,35,0,52.44a44.92,44.92,0,0,0,.41,7.41,74.59,74.59,0,0,1,.2-11.67c.4-15.92,0-31.84.2-47.77.61,17.57.61,35.28-.2,52.85-.2,4.4.61,8.93.61,13.32,0-2.47-.41-4.81-.21-7.28.41-19.49,0-39.12.41-58.61,0,8.64.81,17.29.2,25.94.61-8.92-.61-17.71.2-26.63q.61,27.59.61,55.19c0-18.13.4-36.38.4-54.5.2,6.72.81,13.59.61,20.31.2-6.86-.61-13.59,0-20.45.8,22.38.8,44.61,1.81,67,0-11.39-.4-22.79-.32-34.16,0-.52,0-1,0-1.56.07-3.65.22-7.3.5-10.95a65.2,65.2,0,0,0-.3-13.81l-.15-1.4c-.35-.86,0-1.68-.14-2.46,0-.35,0-.71,0-1.07a10.19,10.19,0,0,1,.35-2.13c-.2,3.71.61,7.28.81,10.84.61,13.18,0,26.28.2,39.37l0,1.62c.17,3.77.17,7.47.58,11.18-.2-3.71-.2-7.55-.27-11.24,0-.54,0-1.09,0-1.63-.13-9.85,0-19.66.69-29.55a81.1,81.1,0,0,0-.4-15.65,7.66,7.66,0,0,1,.2-5.21c-.61,4.11.81,8.37.81,12.49,0,14.28-.77,28.56-.27,42.84l.06,1.58c0,3.21.41,6.37.61,9.53-.2-3.16-.4-6.45-.44-9.56,0-.53,0-1.06,0-1.59A367.71,367.71,0,0,1,135,274.78a90.7,90.7,0,0,0-1-14.69,8.42,8.42,0,0,1,.4-3.84c-.81,4.25.81,8.51.81,12.76-.35,15.11-1.43,30.31-1,45.44,0,.53,0,1.05.05,1.57.32,2,.12,4.2.32,6.26,0-1.65,0-3.3-.13-4.95l0-1.64c-.32-13.19-.41-26.38,1-39.68.61-6.59-1.21-13-.81-19.49,0,5.77,1.42,11.67,1.21,17.43-.6,14.56-1.41,29.24-.2,43.8-.2-2.89-.4-5.63-.4-8.52-.2-16.47,2.42-32.81.4-49.42a9.11,9.11,0,0,1,.41-3.29c-.41,3.57.4,7,.4,10.57.4,19.08-2.22,38.3,0,57.38-1.62-17.71.2-35.55.6-53.26,0-3.16-.4-6.18-.6-9.34-.2-1.78-.81-3.57.2-5.35,1.21,18.53-.6,36.93-.2,55.46,0,3.29.6,6.73.6,10,0-4-.8-8.1-.6-12.08.6-17.71,1.21-35.42,1-53.13,1,17.71.4,35.56-.41,53.27,1-17.71,1.42-35.28,1-53a462,462,0,0,1,.21,47.22c1-15.92.4-32,.8-47.91.81,17.57,1.62,35.15.41,52.72-.21,2.47.4,4.8.4,7.27.2-19.77.81-39.4.61-59.16,1,18.25,1.21,36.37.6,54.63,1.41-18.12,0-36.24.81-54.36a18.29,18.29,0,0,0,.2,3.3c.2-1.38-.6-2.75.2-4.12.2,22.37-.2,44.75.41,67.13,0-22.24.2-44.48.4-66.72.2,22.51.81,44.89,1.21,67.4.2-10.57.61-21.14.34-31.67,0-.55,0-1.09,0-1.64q-.06-9-.07-18v-1.63c-.26-3.89.14-7.6.09-11.46l0-1.64c0-.54,0-1.09,0-1.64.05,1.62.09,3.24.13,4.85,0,.54,0,1.08,0,1.62s0,1.07,0,1.61,0,1.08,0,1.61c.25,10.76.43,21.5.64,32.24,0,.54,0,1.08,0,1.62.08,6.84.08,13.7.49,20.56V305.13c0-16.2,0-32.45.2-48.61.15,17.26.42,34.52.63,51.77,0,.54,0,1.08,0,1.62-.05,4.82.36,9.62.16,14.42,0-4.8.4-9.6.19-14.35,0-.53,0-1.07,0-1.61,0-17.19-.46-34.42,0-51.58,0,18.12.2,36.38.4,54.5,0-18.25-.4-36.38.41-54.63.2,22.92.2,46,1.61,68.91-.61-23.34.2-46.54,0-69.87.61.68,0,1.51.2,2.19a4.65,4.65,0,0,1,.2-2.33c.61,22,.21,43.79,1,65.75.21-13.31-.6-26.63,0-39.94.41-8.65-.4-17.44.21-26.09.4,14.14.4,28.15.8,42.29.41,9.47.2,18.94,1.21,28.41-.2-15.51-.8-31,0-46.53.41-8-.4-15.93.21-23.89-.41,12.9.8,25.81-.21,38.85-.6,6,.81,12.22.41,18.26-.2-18.95.4-37.76.4-56.7.61,14.28.2,28.42.4,42.69,0,7.83-.2,15.65.41,23.48-.41-8.1-.41-16.06-.2-24.16.2-14,0-28.14.4-42.15.81,14.42.61,29,1.21,43.38.2,7.42,0,15,.61,22.38-.61-7,0-14,0-21-.21-14.69-.21-29.52.2-44.21.2,22.52-.41,45.17.4,67.68-.4-22.38,0-44.61.2-67,0,21.83-.4,43.65.21,65.48,0-22.1,0-44.07.2-66.17.4,22.65.6,45.44,1.41,68.09-.2-22.24-.2-44.61.2-66.85v16.2c.2-5.36-.4-10.71.2-16.06.61,22.23,0,44.61,1,66.85,0-22.38-.2-44.62,0-67,0,21.83.41,43.79.41,65.62.2-22,.2-43.93.2-65.9.2,21.42.6,42.7.6,64.11,0-11.25,0-22.37,0-33.58,0-.4,0-.79,0-1.17v-2.29c0-.38,0-.75,0-1.12a14.27,14.27,0,0,0,0-2.17V278c0-.34,0-.67,0-1,.07-4.15.07-8.14,0-12.24,0-.42,0-.82,0-1.21,0-1.93,0-3.42.05-4.4,0-.4,0-.71,0-.94a.69.69,0,0,1,.06-.46s.09,0,.09,0,.37,21.23.68,39.29c0,.39,0,.78,0,1.17.14,8,.35,15.79.35,23.75,0-7.14,0-14.14.07-21.25v-1.07c0-19.22,0-42.05,0-42.45,0,0,0,0,.05,0h0s0,0,0,0l1,51.28c0,.34,0,.68,0,1,.06,2.63.08,5.26.13,7.9l0,1.31c-.06.8.34,1.76.08,2.64l.06,1.32v-5.25c0-3.52,0-7.05-.06-10.51,0-.29,0-.58,0-.88,0-4.7,0-9.83,0-14.9-.06-24.43-.07-32.7,0-33.35h0v0h0s0,0,0,0h0c0,.12,0,.53.08,2,0,1.21.08,3,.13,5.4.1,4.55.23,10.85.36,17.53.07,3.36.14,6.86.21,10.36,0,.35,0,.7,0,1.05,0,9.76.61,19.51.69,29.21q0,.44,0,.81c0,.48,0,.88.06,1.16,0-.31,0-.74,0-1.29q0-27.31,0-54.72v-.88c0-6.33,0-10.6,0-10.77,0,0,0,0,0,0h0s.05,0,.05,0l.3,10.15c0,.3,0,.61,0,.93.45,18,1.26,35.85,1.66,53.83,0-18.4,0-36.65-.07-55.05v-.9c0-5.62,0-9.3,0-9.3s0,0,.05,0h0s.05,0,.05,0,.1,3.68.25,9.3l0,.9c.09,18.26,1.7,36.65,1.5,54.91.81-18.8-.41-37.47,0-56.34v-8.38s0,0,0,0h0s.05,0,.05,0,.08,3,.2,7.53c0,.5,0,1,0,1.55.26,19.26,1.88,38.48,1.58,57.7,0,.61,0,1.08,0,1.42,0-.29,0-.68,0-1.16,1-19.75-.17-39.52-.1-59.22v-.95c0-6.43,0-7.9,0-7.92Z" fill="#d3ad65" style="mix-blend-mode:multiply"/></g> </g></g></svg>