<svg xmlns="http://www.w3.org/2000/svg" viewBox="0 0 32 32"><title>icono</title><g id="Capa_4" data-name="Capa 4"><rect x="8.84" y="5.09" width="7.31" height="4.09" fill="#f0c419"/><rect x="16.15" y="1" width="8.18" height="8.18" fill="#8697cb"/><rect x="24.33" y="2.46" width="5.26" height="6.72" fill="#fb7b76"/><path d="M8.24,23.09,5.5,8.77H31.05V21a2.11,2.11,0,0,1-2.11,2.11H8.25" fill="#ecf0f1"/><path d="M29,23.38H8.14L5.23,8.18H31.64V20.74A2.64,2.64,0,0,1,29,23.38ZM8.81,22.5H28.89a1.58,1.58,0,0,0,1.58-1.58V9.35H6.29Z" fill="#556080"/><circle cx="12" cy="27.83" r="2.65" fill="#fff"/><path d="M12,31a3.18,3.18,0,1,1,3.18-3.17A3.17,3.17,0,0,1,12,31Zm0-5.29a2.12,2.12,0,1,0,2.12,2.12A2.12,2.12,0,0,0,12,25.71Z" fill="#556080"/><circle cx="24.17" cy="27.83" r="2.65" fill="#fff"/><path d="M24.17,31a3.18,3.18,0,1,1,3.18-3.17A3.17,3.17,0,0,1,24.17,31Zm0-5.29a2.12,2.12,0,1,0,2.12,2.12A2.11,2.11,0,0,0,24.17,25.71Z" fill="#556080"/><path d="M29.46,27.76h-2.7a.44.44,0,0,1-.53-.46.89.89,0,0,1,.53-.7h2.7a.87.87,0,0,1,.53.7A.44.44,0,0,1,29.46,27.76Z" fill="#556080"/><path d="M21.58,27.76h-7a.43.43,0,0,1-.52-.46.87.87,0,0,1,.52-.7h7a.89.89,0,0,1,.53.7A.44.44,0,0,1,21.58,27.76Z" fill="#556080"/><path d="M5.56,9.31A.54.54,0,0,1,5,8.86L4.68,6.72H3.54A.62.62,0,0,1,3,6.13a.61.61,0,0,1,.53-.58h2l.52,3.14a.53.53,0,0,1-.44.61Z" fill="#556080"/><path d="M31.64,12.86H27V8.18H21.12v4.68h-3.8V8.18H11.47v4.68H5.81L6.93,18.7l4.54.3v4.67h5.85V19h3.8v4.67H27v-5h4.68ZM22,9.35h3.8v3.8H22ZM25.79,14v3.8H22V14ZM12.35,9.35h3.8v3.8h-3.8ZM16.15,14v3.8h-3.8V14Zm-8.42,3.8L7,14h4.47v3.8Zm8.42,4.67h-3.8V18.7h3.8Zm1.17-4.67V14h3.8v3.8Zm8.47,4.67H22V18.7h3.8Zm4.68-4.67h-3.8V14h3.8Z" fill="#556080"/><path d="M9.41,27.76H7.77a2.35,2.35,0,0,1-2-.81,2.63,2.63,0,0,1-.67-2,2.72,2.72,0,0,1,2.73-2.37.53.53,0,1,1,0,1.05A1.66,1.66,0,0,0,6.19,25a1.57,1.57,0,0,0,.4,1.22,1.06,1.06,0,0,0,1.18.36H9.41a.89.89,0,0,1,.53.7A.44.44,0,0,1,9.41,27.76Z" fill="#556080"/><circle cx="1.95" cy="6.13" r="1.59" fill="#e64c3c"/></g></svg>