<svg xmlns="http://www.w3.org/2000/svg" viewBox="0 0 32 32"><title>icono</title><g id="Capa_4" data-name="Capa 4"><circle cx="16" cy="15.93" r="14.9" fill="#cdd6e0" stroke="#000" stroke-miterlimit="10" stroke-width="0.25"/><circle cx="16" cy="15.93" r="10.74" fill="#acb3ba" stroke="#000" stroke-miterlimit="10" stroke-width="0.25"/><path d="M16.64,1.07a.48.48,0,0,0-.58.5V7.23a.58.58,0,0,1-.35.54.62.62,0,0,1-.88-.56V1.59S14.63,1,14.32,1s-.47.56-.47.56V7.21a.61.61,0,0,1-.61.62h0a.62.62,0,0,1-.62-.62V1.59S12.4,1,12.09,1s-.45.56-.45.56V7.21a.61.61,0,0,1-.61.62h0a.61.61,0,0,1-.61-.62V1.62A.56.56,0,0,0,9.87,1a.62.62,0,0,0-.68.61V8a4,4,0,0,0,1.1,2.7,5.35,5.35,0,0,1,1.6,4.17L10.66,28.1v.71A2.43,2.43,0,0,0,13.5,31a2.48,2.48,0,0,0,2-2.71l-1.2-13.58a5.5,5.5,0,0,1,1.64-4.3A3.92,3.92,0,0,0,17,7.6v-6A.56.56,0,0,0,16.64,1.07Z" fill="#f2f2f2" stroke="#000" stroke-miterlimit="10" stroke-width="0.25"/><path d="M14.44,15H12.09L10.91,28.23v.43a2.38,2.38,0,0,0,2.79,2.11,2.44,2.44,0,0,0,1.92-2.67Z" fill="#40596b" stroke="#000" stroke-miterlimit="10" stroke-width="0.25"/><path d="M21.86,1s-2.67,1.06-3.79,9.06a18.8,18.8,0,0,0,1.49,9.56,2.81,2.81,0,0,1,.19,1.06l-.75,8V29a2,2,0,0,0,2.17,1.81,2,2,0,0,0,1.62-2.17Z" fill="#f2f2f2" stroke="#000" stroke-miterlimit="10" stroke-width="0.25"/><path d="M19.74,20.59v.12l-.74,8V29a1.94,1.94,0,0,0,2.15,1.81,2,2,0,0,0,1.59-2.17l-.24-8H19.74v-.06Z" fill="#ff7058" stroke="#000" stroke-miterlimit="10" stroke-width="0.25"/></g></svg>