<svg id="Capa_1" data-name="Capa 1" xmlns="http://www.w3.org/2000/svg" viewBox="0 0 183.12 59.04"><title>logoFlechas</title><path d="M74.26,35.26c1.13-1.66,2.25-3.32,3.39-5,3.79-5.49,7.54-11,11.4-16.46,2.41-3.42,5-6.75,7.48-10.1a29.29,29.29,0,0,1,2-2.31c.45-.48.73-.49,1.16,0,1.36,1.6,2.73,3.2,4,4.86s2.36,3.26,3.57,4.87c.52.7.14,1.38.07,2.07s-.27,1.68-.41,2.52c0,.1,0,.22.18.41l2.08-2.33c4.55,6.76,10.16,13.86,14.58,20.44a42.6,42.6,0,0,0-5.38-.61,1.07,1.07,0,0,1-.64-.38c-2.79-3.41-5.5-6.88-8.36-10.25-2.68-3.16-5.49-6.22-8.26-9.32a10.11,10.11,0,0,0-1.38-1.23,1,1,0,0,0-1.33.13C97.26,14,96,15.29,95,16.74c-3.27,4.57-6.46,9.2-9.68,13.81-.69,1-1.33,2-2,2.95a.82.82,0,0,1-.64.32,11.82,11.82,0,0,0-8,1.41l-.28.13Z" fill="#477ec2"/><path d="M46,27a3.22,3.22,0,0,1,.19-.77c.6-1.09,1.22-2.18,1.84-3.26a.73.73,0,0,1,.28-.27,30.54,30.54,0,0,1,9.06-4,13.67,13.67,0,0,1,6.36,0,.83.83,0,0,1,.51.38,4.08,4.08,0,0,0,3.1,2.61,7.93,7.93,0,0,0,1.52.26,1,1,0,0,1,.82.46,9.06,9.06,0,0,1,1.9,6.46,15.61,15.61,0,0,1-6,11.54,9.57,9.57,0,0,1-7.4,2.14C56.6,42.27,55.85,41.38,56,40a2.86,2.86,0,0,1,2.82-2.35.52.52,0,0,1,.48.65,1.8,1.8,0,0,1-.24.48c-.45.75-.26,1.47.6,1.68a8.08,8.08,0,0,0,2.5.23,5.83,5.83,0,0,0,4.45-2.61A12.93,12.93,0,0,0,68.33,26c-1.18-3.45-3.9-5-7.44-5.17a17.6,17.6,0,0,0-9.1,2.31,25.84,25.84,0,0,0-5.28,3.64l-.39.33Z" fill="#477ec2"/><path d="M52.54,45.59a17.82,17.82,0,0,1-6.06,8.13,12.09,12.09,0,0,1-5.73,2.39,4,4,0,0,1-3.34-1h0a5.22,5.22,0,0,1-1.12-1.58v0a4.94,4.94,0,0,1-.4-1.68v0c0-.31,0-.62,0-.93h0l0-.46v0a23.16,23.16,0,0,1,1.47-6,1.18,1.18,0,0,1,.38-.52q1.68-1.23,3.39-2.4a1.88,1.88,0,0,1,.69-.14,2,2,0,0,1-.11.66c-.66,1.32-1.41,2.61-2,3.95a8.93,8.93,0,0,0-.85,5.09A4.25,4.25,0,0,0,42,54.56a4.52,4.52,0,0,0,3-.7,10.21,10.21,0,0,0,4.57-5.19,26.89,26.89,0,0,0,1.92-16.52c-.28-1.38-.51-2.77-.75-4.16a.75.75,0,0,1,.07-.47c.64-.91,1.3-1.81,2-2.71l.21,0c.14.39.31.77.43,1.16A28.7,28.7,0,0,1,52.54,45.59Z" fill="#477ec2"/><path d="M132,48.39c.28-.37.55-.76.84-1.13,1.91-2.42,3.74-4.91,5.78-7.23A8.75,8.75,0,0,1,144.48,37a4.18,4.18,0,0,1,1,0c1.08.13,1.44.54,1.44,1.63a9.93,9.93,0,0,0,0,1.22,18.71,18.71,0,0,1-1.59,8.67c-.59,1.56-1.22,3.11-1.83,4.67-.1.25-.17.51-.31.92,1.06-.21,2-.37,2.88-.56.4-.09.75-.17.84.4s-.3.55-.65.61a27.22,27.22,0,0,0-7.52,2.27,3.51,3.51,0,0,1-1.2,0c.26-.53.41-.84.57-1.14a60.58,60.58,0,0,0,5-12.08,9.57,9.57,0,0,0,.37-2.76c0-1.43-1.11-2-2.29-1.22a15.65,15.65,0,0,0-2.82,2.51,74.54,74.54,0,0,0-8.74,12.13,2.92,2.92,0,0,1-1.12,1c-1.13.59-2.32,1.1-3.68,1.73a16.91,16.91,0,0,1,.4-1.68c1-2.8,2.06-5.57,3-8.38.64-1.92,1.14-3.88,1.68-5.84a9.45,9.45,0,0,0,.18-1.3c-.94.33-1.75.58-2.52.91s-.89.07-.94-.64c.64-.23,1.3-.41,1.91-.69,1.68-.76,3.33-1.58,5-2.36.23-.1.58-.2.75-.09s.2.49.15.72q-.65,2.7-1.34,5.38c-.37,1.45-.76,2.9-1.12,4.35a5.74,5.74,0,0,0-.08.93Z" fill="#477ec2"/><path d="M92.7,48.39c.28-.37.55-.76.84-1.13,1.91-2.42,3.75-4.91,5.78-7.23A8.77,8.77,0,0,1,105.14,37a4.18,4.18,0,0,1,1,0c1.09.13,1.44.54,1.44,1.63a9.92,9.92,0,0,0,0,1.22A18.83,18.83,0,0,1,106,48.49c-.6,1.56-1.23,3.11-1.84,4.67-.09.25-.17.51-.3.92,1.06-.21,2-.37,2.87-.56.4-.09.76-.17.85.4s-.31.55-.65.61a27.12,27.12,0,0,0-7.52,2.27,3.52,3.52,0,0,1-1.2,0c.26-.53.41-.84.57-1.14a61.18,61.18,0,0,0,5-12.08,9.57,9.57,0,0,0,.37-2.76c0-1.43-1.12-2-2.29-1.22A16.05,16.05,0,0,0,99,42.13a75.09,75.09,0,0,0-8.73,12.13,3,3,0,0,1-1.12,1c-1.14.59-2.32,1.1-3.68,1.73a14.71,14.71,0,0,1,.39-1.68c1-2.8,2.07-5.57,3-8.38.65-1.92,1.79-9.16,1.87-9.72-.94.33-1.75.58-2.53.9-.63.27-.89.07-.93-.63.64-.23,1.3-.41,1.91-.69,1.67-.77,3.32-1.58,5-2.36a1,1,0,0,1,.75-.1.91.91,0,0,1,.15.73c-.43,1.8-.89,6.17-1.35,8C93.37,44.5,93,46,92.62,47.4a5.75,5.75,0,0,0-.09.93Z" fill="#477ec2"/><path d="M72.68,56.28a6.22,6.22,0,0,1-6.42-5.48,10.74,10.74,0,0,1,1.57-6.66,17,17,0,0,1,8.91-7.34,9.85,9.85,0,0,1,5.3-.45c2.31.43,3.29,2.07,2.54,4.21a6.15,6.15,0,0,1-2.21,2.84,29.11,29.11,0,0,1-9.5,4.48,11.83,11.83,0,0,1-1.63.42c-.62.1-.69.4-.61.91.43,2.72,3.41,4.78,6.44,4.44a10.73,10.73,0,0,0,4.56-1.76,9.36,9.36,0,0,1,1.4-.74.91.91,0,0,1,.78.14c.11.14,0,.51-.11.74a1.55,1.55,0,0,1-.48.51A16.6,16.6,0,0,1,72.68,56.28ZM71,46.85c1-.33,1.8-.56,2.57-.86,2.4-.94,4.56-2.18,5.72-4.52a5.24,5.24,0,0,0,.59-1.87c.09-1.08-.64-1.75-1.78-1.84a4.21,4.21,0,0,0-3.43,1.37,12.91,12.91,0,0,0-3.48,6.08A15.65,15.65,0,0,0,71,46.85Z" fill="#477ec2"/><path d="M121.05,42.71c.94-.47,1.79-1,2.68-1.34s1.52,0,1.73,1.19a12.49,12.49,0,0,1-.23,5.2c-1.42,5.5-6.33,9.48-11.37,9.25-2.25-.11-3.81-1.48-5-3.5a9.76,9.76,0,0,1,1.18-11.65A14.76,14.76,0,0,1,119.86,37a7.86,7.86,0,0,1,4,.67c.25.12.65.49.62.66a1.39,1.39,0,0,1-.61.8,11.57,11.57,0,0,1-1.87.83.71.71,0,0,1-.63-.16,4.9,4.9,0,0,0-7.22.49,12,12,0,0,0-2.51,10.27,5.57,5.57,0,0,0,4.48,4.64c2.3.32,4.2-.78,5.3-3.33a15.78,15.78,0,0,0,1-3.84,7.26,7.26,0,0,0-.81-4.09Z" fill="#477ec2"/><path d="M73.08,11.32c-.66-.23-1.16-.39-1.65-.58-2.05-.76-2.55-2.74-1-4.26a8.34,8.34,0,0,1,7.3-2.22,2.91,2.91,0,0,1,1.13.48,1.18,1.18,0,0,1,.25,1.7,1.31,1.31,0,0,1-1.84.29c.57-1.21.34-1.66-1-2a5.28,5.28,0,0,0-5,2,1.64,1.64,0,0,0,.79,2.67,26.25,26.25,0,0,0,2.81.71l.87.19a2.33,2.33,0,0,1-1.5,1.13,10.74,10.74,0,0,0-4.34,2,4.74,4.74,0,0,0-2.06,3.65,2.11,2.11,0,0,0,.85,1.84A5.69,5.69,0,0,0,76,18.3a1.35,1.35,0,0,0,0-2c-.1-.12,0-.6.1-.64a2.58,2.58,0,0,1,1.26-.24,1,1,0,0,1,.79,1.07,2.26,2.26,0,0,1-1,1.92,8.69,8.69,0,0,1-5.44,1.93,13.58,13.58,0,0,1-3.43-.39,2.92,2.92,0,0,1-1.51-4.85A10,10,0,0,1,69.36,13a26,26,0,0,1,3.08-1.42Z" fill="#477ec2"/><path d="M81,18.91l2-1c-.06.18-.07.28-.11.3-.83.43-1.64.87-2.49,1.24a.9.9,0,0,1-.79-.09.89.89,0,0,1-.07-.79c.51-1.51,1.13-3,1.58-4.5.85-2.86,1.6-5.74,2.39-8.61a3.94,3.94,0,0,0,0-.44L82,5.5l-.09-.25L84.8,4a5.12,5.12,0,0,1,0,1c-.46,2-.89,3.92-1.46,5.83-.71,2.34-1.55,4.63-2.33,6.94-.09.3-.16.6-.24.9Z" fill="#477ec2"/><path d="M98.86,31.64q-1.22-.29-2.43-.6a6.35,6.35,0,0,1-1.12-.44,2.35,2.35,0,0,0-3.28.55.24.24,0,0,1-.12.07.26.26,0,0,1-.35-.31s0,0,0,0c1.09-1.5,2.18-3,3.29-4.46a1.18,1.18,0,0,1,1.7-.31c1,.55,2.07,1,3.11,1.52a6.1,6.1,0,0,0,6.7-.65c.3-.21.82-.56,1-.37s-.19.76-.44,1A28.15,28.15,0,0,1,104,30.4a6.45,6.45,0,0,1-3,1.31A5.31,5.31,0,0,1,98.86,31.64Z" fill="#477ec2"/><path d="M98.46,20.53a2,2,0,1,1-3.91-.12,2,2,0,1,1,3.91.12Z" fill="#477ec2"/><g opacity="0.8"><polyline points="168.64 9.37 180.5 32.17 168.78 54.71" fill="none" stroke="#477ec2" stroke-linecap="round" stroke-miterlimit="10" stroke-width="2"/><polyline points="14.24 9.37 2.38 32.17 14.11 54.71" fill="none" stroke="#477ec2" stroke-linecap="round" stroke-miterlimit="10" stroke-width="2"/></g></svg>