<svg id="Capa_1" data-name="Capa 1" xmlns="http://www.w3.org/2000/svg" viewBox="0 0 32 32"><defs><style>.cls-1,.cls-2{fill:none;stroke:#000;stroke-miterlimit:10;stroke-width:0.75px;}.cls-2{stroke-dasharray:6 6;}.cls-3{fill:#bf6221;}</style></defs><title>mozos</title><polyline class="cls-1" points="30.76 25 30.76 31 24.76 31"/><polyline class="cls-1" points="7.24 31 1.24 31 1.24 25"/><line class="cls-2" x1="1.24" y1="19" x2="1.24" y2="10"/><polyline class="cls-1" points="1.24 7 1.24 1 7.24 1"/><polyline class="cls-1" points="24.76 1 30.76 1 30.76 7"/><line class="cls-2" x1="30.76" y1="13" x2="30.76" y2="22"/><path class="cls-3" d="M9.41,19.65a12,12,0,0,1-1.61-.11,3.38,3.38,0,0,1-1.37-.47,2.67,2.67,0,0,1-1-1.08,4.44,4.44,0,0,1-.35-1.93A5,5,0,0,1,5.47,14a2.52,2.52,0,0,1,1-1.11,3.36,3.36,0,0,1,1.37-.45,14,14,0,0,1,1.61-.09H22.59a13.17,13.17,0,0,1,1.52.09,3.5,3.5,0,0,1,1.39.45,2.72,2.72,0,0,1,1,1.11,4.61,4.61,0,0,1,.38,2.06A4.13,4.13,0,0,1,26.5,18a2.91,2.91,0,0,1-1,1.08,3.52,3.52,0,0,1-1.39.47,11.33,11.33,0,0,1-1.52.11H9.41Z"/></svg>