<svg xmlns="http://www.w3.org/2000/svg" xmlns:xlink="http://www.w3.org/1999/xlink" viewBox="0 0 326.52 86.04"><defs><linearGradient id="linear-gradient" x1="295.14" y1="11.49" x2="302.86" y2="26.58" gradientUnits="userSpaceOnUse"><stop offset="0" stop-color="#4479fa"/><stop offset="0.02" stop-color="#457bfa"/><stop offset="0.68" stop-color="#66b1fb"/><stop offset="1" stop-color="#73c6fb"/></linearGradient><linearGradient id="linear-gradient-2" x1="-130.92" y1="191.67" x2="224.79" y2="21.19" gradientUnits="userSpaceOnUse"><stop offset="0" stop-color="#2d2d2d"/><stop offset="1" stop-color="#6f6f6f"/></linearGradient><linearGradient id="linear-gradient-3" x1="20.21" y1="119.23" x2="307.55" y2="-18.47" xlink:href="#linear-gradient-2"/><linearGradient id="linear-gradient-4" x1="-57.65" y1="248.46" x2="255.91" y2="-49.25" xlink:href="#linear-gradient"/><linearGradient id="linear-gradient-5" x1="73.16" y1="124.26" x2="256.12" y2="-49.46" xlink:href="#linear-gradient"/></defs><title>mozos</title><g style="isolation:isolate"><g id="Capa_1" data-name="Capa 1"><polygon points="305.71 3.87 313.89 21.64 289.19 28.15 305.71 3.87" fill="url(#linear-gradient)"/><path d="M305.63,4.88l7.56,16.42-22.83,6L305.63,4.88m.17-2L288,29l26.56-7L306.38,4.13l-.58-1.27Z" fill="#b2ffff"/><polygon points="308.1 83.96 3.31 83.96 19.66 16.8 324.45 16.8 308.1 83.96" fill="url(#linear-gradient-2)"/><path d="M323,17.91,307.23,82.85H4.72L20.53,17.91H323m1.41-1.11H19.66L3.31,84H308.1L324.45,16.8Z" fill="url(#linear-gradient-3)" style="mix-blend-mode:screen"/><polygon points="288.03 71.94 23.48 71.94 41.25 2.86 305.8 2.86 288.03 71.94" fill="url(#linear-gradient-4)"/><path d="M304.39,4,287.16,70.84H24.89L42.12,4H304.39m1.41-1.1H41.25L23.48,71.94H288L305.8,2.86Z" fill="url(#linear-gradient-5)" style="mix-blend-mode:screen"/></g></g></svg>