<svg id="Capa_1" data-name="Capa 1" xmlns="http://www.w3.org/2000/svg" viewBox="0 0 32 32"><defs><style>.cls-1,.cls-2{fill:none;stroke:#000;stroke-miterlimit:10;stroke-width:0.75px;}.cls-2{stroke-dasharray:6 6;}.cls-3{fill:#7a933b;}</style></defs><title>mozos</title><polyline class="cls-1" points="30.76 25 30.76 31 24.76 31"/><polyline class="cls-1" points="7.24 31 1.24 31 1.24 25"/><line class="cls-2" x1="1.24" y1="19" x2="1.24" y2="10"/><polyline class="cls-1" points="1.24 7 1.24 1 7.24 1"/><polyline class="cls-1" points="24.76 1 30.76 1 30.76 7"/><line class="cls-2" x1="30.76" y1="13" x2="30.76" y2="22"/><path class="cls-3" d="M9.47,19.62a12.2,12.2,0,0,1-1.64-.11A3.52,3.52,0,0,1,6.44,19a2.69,2.69,0,0,1-1-1.08A4.44,4.44,0,0,1,5.12,16,5,5,0,0,1,5.47,14a2.52,2.52,0,0,1,1-1.11,3.36,3.36,0,0,1,1.37-.45,14,14,0,0,1,1.61-.09h2.92V9.39a13,13,0,0,1,.09-1.52,3.45,3.45,0,0,1,.45-1.39,2.71,2.71,0,0,1,1.1-1A4.52,4.52,0,0,1,16,5.08a4,4,0,0,1,1.91.39,2.81,2.81,0,0,1,1.09,1,3.63,3.63,0,0,1,.47,1.39,11.22,11.22,0,0,1,.11,1.52v2.93h3a13.17,13.17,0,0,1,1.52.09,3.5,3.5,0,0,1,1.39.45,2.72,2.72,0,0,1,1,1.11A4.64,4.64,0,0,1,26.88,16,4.13,4.13,0,0,1,26.5,18a2.91,2.91,0,0,1-1,1.08,3.52,3.52,0,0,1-1.39.47,11.33,11.33,0,0,1-1.52.11h-3v3a12.12,12.12,0,0,1-.11,1.62A3.59,3.59,0,0,1,19,25.6a2.63,2.63,0,0,1-1.09,1,4.31,4.31,0,0,1-1.91.36A4.85,4.85,0,0,1,14,26.56a2.54,2.54,0,0,1-1.1-1,3.41,3.41,0,0,1-.45-1.37,14.13,14.13,0,0,1-.09-1.62v-3H9.47Z"/></svg>