<svg id="Capa_1" data-name="Capa 1" xmlns="http://www.w3.org/2000/svg" viewBox="0 0 32 32"><defs><style>.cls-1,.cls-2{fill:none;stroke:#000;stroke-miterlimit:10;stroke-width:0.75px;}.cls-2{stroke-dasharray:6 6;}.cls-3{fill:#5b0011;}</style></defs><title>mozos</title><polyline class="cls-1" points="30.76 25 30.76 31 24.76 31"/><polyline class="cls-1" points="7.24 31 1.24 31 1.24 25"/><line class="cls-2" x1="1.24" y1="19" x2="1.24" y2="10"/><polyline class="cls-1" points="1.24 7 1.24 1 7.24 1"/><polyline class="cls-1" points="24.76 1 30.76 1 30.76 7"/><line class="cls-2" x1="30.76" y1="13" x2="30.76" y2="22"/><path class="cls-3" d="M8.85,13.94a13.21,13.21,0,0,1-1.08-1.23,3.51,3.51,0,0,1-.64-1.32A2.58,2.58,0,0,1,7.2,9.94,4.17,4.17,0,0,1,8.31,8.33,4.71,4.71,0,0,1,10,7.12,2.57,2.57,0,0,1,11.48,7a3.42,3.42,0,0,1,1.29.65A15,15,0,0,1,14,8.74L16,10.81l2.07-2.08a12.43,12.43,0,0,1,1.14-1,3.44,3.44,0,0,1,1.3-.67A2.64,2.64,0,0,1,22,7.12,4.55,4.55,0,0,1,23.77,8.3a4,4,0,0,1,1.07,1.63,2.65,2.65,0,0,1,.06,1.47,3.48,3.48,0,0,1-.64,1.33,11.22,11.22,0,0,1-1,1.15L21.18,16l2.11,2.11a12.43,12.43,0,0,1,1,1.14A3.51,3.51,0,0,1,25,20.5,2.71,2.71,0,0,1,24.89,22a4.54,4.54,0,0,1-1.19,1.74,4,4,0,0,1-1.63,1.09,2.84,2.84,0,0,1-1.47.05,3.37,3.37,0,0,1-1.32-.64,11.3,11.3,0,0,1-1.15-1L16,21.11l-2.11,2.12a11.85,11.85,0,0,1-1.22,1.06,3.47,3.47,0,0,1-1.31.64,2.69,2.69,0,0,1-1.45-.09,4.38,4.38,0,0,1-1.6-1.1A4.79,4.79,0,0,1,7.13,22,2.44,2.44,0,0,1,7,20.58a3.35,3.35,0,0,1,.65-1.29c.33-.41.69-.81,1.08-1.21L10.88,16,9.27,14.36Z"/></svg>