<svg xmlns="http://www.w3.org/2000/svg" viewBox="0 0 32 32"><defs><style>.cls-1{fill:#cbcfd7;}.cls-2{fill:#aaafba;}.cls-3{fill:#676d77;}.cls-4{fill:#f4f6f9;}.cls-5{fill:#e5e7eb;}</style></defs><title>interfaces</title><g id="Capa_4" data-name="Capa 4"><path class="cls-1" d="M13.06,11.1v1.47H5.24V11.1a3.91,3.91,0,1,1,7.82,0Z"/><path class="cls-2" d="M9.15,7.19a4.3,4.3,0,0,0-.73.07,3.92,3.92,0,0,1,3.17,3.84v1.47h1.47V11.1A3.92,3.92,0,0,0,9.15,7.19Z"/><path class="cls-3" d="M16,29.1v.1H.85V4.75H2.32v22.5H14.05A2,2,0,0,1,16,29.1Z"/><path class="cls-3" d="M31.15,4.75V29.2H16v-.1A1.94,1.94,0,0,1,18,27.25H29.68V4.75Z"/><path class="cls-4" d="M13.06,12.57V11.1a3.91,3.91,0,1,0-7.82,0v1.47ZM16,29.1a2,2,0,0,0-1.95-1.85H2.32V2.8H14.05a2,2,0,0,1,1.95,2V29.1Z"/><path class="cls-5" d="M18,27.25A1.94,1.94,0,0,0,16,29.1V4.75A2,2,0,0,1,18,2.8H29.68V27.25Z"/><path d="M31.15,29.69a.49.49,0,0,1-.49-.49V4.75a.49.49,0,0,1,1,0V29.2A.49.49,0,0,1,31.15,29.69Z"/><path d="M16,29.69a.49.49,0,0,1-.49-.49V4.75a.49.49,0,0,1,1,0V29.2A.49.49,0,0,1,16,29.69Z"/><path d="M27.24,18.45h-2a.49.49,0,0,1,0-1h2a.49.49,0,1,1,0,1Z"/><path d="M22.35,18.45H18.44a.49.49,0,0,1,0-1h3.91a.49.49,0,0,1,0,1Z"/><path d="M20.4,20.4h-2a.49.49,0,1,1,0-1h2a.49.49,0,0,1,0,1Z"/><path d="M22.84,22.36h-4.4a.49.49,0,0,1,0-1h4.4a.49.49,0,0,1,0,1Z"/><path d="M21.37,24.32H18.44a.49.49,0,0,1,0-1h2.93a.49.49,0,0,1,0,1Z"/><path d="M27.24,20.4h-1a.49.49,0,1,1,0-1h1a.49.49,0,1,1,0,1Z"/><path d="M27.24,22.36h-.49a.49.49,0,0,1,0-1h.49a.49.49,0,1,1,0,1Z"/><path d="M27.24,24.32H25.77a.49.49,0,1,1,0-1h1.47a.49.49,0,1,1,0,1Z"/><path d="M27.24,6.71h-2a.49.49,0,0,1-.49-.49.48.48,0,0,1,.49-.48h2a.48.48,0,0,1,.49.48A.49.49,0,0,1,27.24,6.71Z"/><path d="M22.35,6.71H18.44A.49.49,0,0,1,18,6.22a.48.48,0,0,1,.49-.48h3.91a.48.48,0,0,1,.49.48A.49.49,0,0,1,22.35,6.71Z"/><path d="M20.4,8.67h-2a.49.49,0,1,1,0-1h2a.49.49,0,0,1,0,1Z"/><path d="M22.84,10.62h-4.4a.49.49,0,1,1,0-1h4.4a.49.49,0,1,1,0,1Z"/><path d="M21.37,12.58H18.44a.49.49,0,0,1,0-1h2.93a.49.49,0,1,1,0,1Z"/><path d="M27.24,8.67h-1a.49.49,0,0,1,0-1h1a.49.49,0,0,1,0,1Z"/><path d="M27.24,10.62h-.49a.49.49,0,1,1,0-1h.49a.49.49,0,1,1,0,1Z"/><path d="M27.24,12.58H25.77a.49.49,0,0,1,0-1h1.47a.49.49,0,1,1,0,1Z"/><path d="M22.84,14.54h-4.4a.49.49,0,0,1,0-1h4.4a.49.49,0,1,1,0,1Z"/><path d="M27.24,14.54h-2a.49.49,0,0,1,0-1h2a.49.49,0,1,1,0,1Z"/><path d="M20.4,16.49h-2a.49.49,0,1,1,0-1h2a.49.49,0,0,1,0,1Z"/><path d="M27.24,16.49h-.49a.49.49,0,0,1,0-1h.49a.49.49,0,1,1,0,1Z"/><path d="M13.56,18.45h-2a.49.49,0,1,1,0-1h2a.49.49,0,0,1,0,1Z"/><path d="M8.67,18.45H4.76a.49.49,0,1,1,0-1H8.67a.49.49,0,0,1,0,1Z"/><path d="M6.71,20.4H4.76a.49.49,0,1,1,0-1h2a.49.49,0,1,1,0,1Z"/><path d="M9.16,22.36H4.76a.49.49,0,0,1,0-1h4.4a.49.49,0,0,1,0,1Z"/><path d="M7.69,24.32H4.76a.49.49,0,1,1,0-1H7.69a.49.49,0,1,1,0,1Z"/><path d="M13.56,20.4h-1a.49.49,0,1,1,0-1h1a.49.49,0,0,1,0,1Z"/><path d="M6.71,16.49H4.76a.49.49,0,1,1,0-1h2a.49.49,0,1,1,0,1Z"/><path d="M13.56,16.49h-1a.49.49,0,1,1,0-1h1a.49.49,0,0,1,0,1Z"/><path d="M13.56,22.36h-.49a.49.49,0,1,1,0-1h.49a.49.49,0,0,1,0,1Z"/><path d="M13.56,24.32H12.09a.49.49,0,0,1,0-1h1.47a.49.49,0,0,1,0,1Z"/><path d="M16,29.69a.49.49,0,0,1-.49-.49A2.44,2.44,0,0,1,18,26.76a.49.49,0,1,1,0,1,1.46,1.46,0,0,0-1.46,1.46A.49.49,0,0,1,16,29.69Z"/><path d="M29.68,27.74H18a.49.49,0,1,1,0-1H29.68a.49.49,0,1,1,0,1Z"/><path d="M16,5.24a.49.49,0,0,1-.49-.49A2.44,2.44,0,0,1,18,2.32a.48.48,0,0,1,.49.48.49.49,0,0,1-.49.49,1.46,1.46,0,0,0-1.46,1.46A.49.49,0,0,1,16,5.24Z"/><path d="M29.68,3.29H18a.49.49,0,0,1-.49-.49A.48.48,0,0,1,18,2.32H29.68a.48.48,0,0,1,.49.48A.49.49,0,0,1,29.68,3.29Z"/><path d="M29.68,27.74a.49.49,0,0,1-.49-.49V2.8a.49.49,0,1,1,1,0V27.25A.49.49,0,0,1,29.68,27.74Z"/><path d="M31.15,5.24H29.68a.49.49,0,0,1-.49-.49.48.48,0,0,1,.49-.48h1.47a.48.48,0,0,1,.49.48A.49.49,0,0,1,31.15,5.24Z"/><path d="M16,29.69a.48.48,0,0,1-.48-.49V4.75a.49.49,0,0,1,1,0V29.2A.48.48,0,0,1,16,29.69Z"/><path d="M.85,29.69a.49.49,0,0,1-.49-.49V4.75a.48.48,0,0,1,.49-.48.48.48,0,0,1,.49.48V29.2A.49.49,0,0,1,.85,29.69Z"/><path d="M16,29.69a.49.49,0,0,1-.49-.49V4.75a.49.49,0,0,1,1,0V29.2A.49.49,0,0,1,16,29.69Z"/><path d="M16,29.69a.49.49,0,0,1-.49-.49,1.46,1.46,0,0,0-1.46-1.46.49.49,0,1,1,0-1,2.44,2.44,0,0,1,2.44,2.44A.49.49,0,0,1,16,29.69Z"/><path d="M14.05,27.74H2.32a.49.49,0,1,1,0-1H14.05a.49.49,0,1,1,0,1Z"/><path d="M16,5.24a.49.49,0,0,1-.49-.49,1.46,1.46,0,0,0-1.46-1.46.49.49,0,0,1-.49-.49.48.48,0,0,1,.49-.48,2.44,2.44,0,0,1,2.44,2.43A.49.49,0,0,1,16,5.24Z"/><path d="M14.05,3.29H2.32a.49.49,0,0,1-.49-.49.48.48,0,0,1,.49-.48H14.05a.48.48,0,0,1,.49.48A.49.49,0,0,1,14.05,3.29Z"/><path d="M2.32,27.74a.49.49,0,0,1-.49-.49V2.8a.49.49,0,1,1,1,0V27.25A.49.49,0,0,1,2.32,27.74Z"/><path d="M2.32,5.24H.85a.49.49,0,0,1-.49-.49.48.48,0,0,1,.49-.48H2.32a.48.48,0,0,1,.49.48A.49.49,0,0,1,2.32,5.24Z"/><path d="M16,29.69a.48.48,0,0,1-.49-.49V4.75a.49.49,0,0,1,1,0V29.2a.48.48,0,0,1-.48.49Z"/><path d="M13.55,13.06H4.75a.49.49,0,1,1,0-1h8.8a.49.49,0,0,1,0,1Z"/><path d="M13.06,11.59a.48.48,0,0,1-.49-.48,3.42,3.42,0,1,0-6.84,0,.49.49,0,0,1-1,0,4.4,4.4,0,0,1,8.8,0A.48.48,0,0,1,13.06,11.59Z"/><path d="M5.24,13.06a.49.49,0,0,1-.49-.49V11.11a.49.49,0,1,1,1,0v1.46A.49.49,0,0,1,5.24,13.06Z"/><path d="M13.06,13.06a.49.49,0,0,1-.49-.49V11.11a.49.49,0,1,1,1,0v1.46A.49.49,0,0,1,13.06,13.06Z"/><path d="M9.15,7.68a.49.49,0,0,1-.49-.49V6.71a.49.49,0,1,1,1,0v.48A.49.49,0,0,1,9.15,7.68Z"/></g></svg>