<svg xmlns="http://www.w3.org/2000/svg" viewBox="0 0 32 32"><defs><style>.cls-1{fill:#e2c75b;}.cls-2{fill:#93eaf2;}.cls-3{fill:#c96a76;}</style></defs><title>interfaces</title><g id="Capa_4" data-name="Capa 4"><g id="group-24svg"><path id="path-1" class="cls-1" d="M.72,16.57H30.84V14.25c0-.55,0-1.14-.55-1.14H2.14c-.55,0-1.42.59-1.42,1.14Z"/><path id="path-2" class="cls-1" d="M.94,16.1V29.93H3.41V16.1Z"/><path id="path-3" class="cls-1" d="M28.1,16.57V30.4h3V16.57Z"/><path id="path-4" class="cls-2" d="M16.74,9.17h4.94v1.89A1.74,1.74,0,0,1,20,12.63H18a1.41,1.41,0,0,1-1.29-1.57Z"/><path id="path-5" class="cls-1" d="M21.6,3.91a1,1,0,0,0-1-1,1.05,1.05,0,0,0-.43.11V3a1,1,0,1,0-1.95,0s0,0,0,.06A1,1,0,0,0,17.81,3a1,1,0,0,0,0,2,1,1,0,0,0,.7,1.65,1,1,0,0,0,.84-.5,1,1,0,0,0,1.81-.46,1,1,0,0,0-.37-.76A1,1,0,0,0,21.6,3.91Z"/><path id="path-6" d="M31.06,17.31H.94a.74.74,0,0,1-.74-.74V14.49a2.26,2.26,0,0,1,1.91-2.12H30.26c1,0,1.54,1.09,1.54,2.12v2.08A.74.74,0,0,1,31.06,17.31ZM1.68,15.82H30.32V14.49a1.42,1.42,0,0,0-.16-.64h-28a1.13,1.13,0,0,0-.43.64Z"/><path id="path-7" d="M3.41,31.14H.94A.74.74,0,0,1,.2,30.4V16.57a.75.75,0,0,1,.74-.75H3.41a.75.75,0,0,1,.74.75V30.4A.74.74,0,0,1,3.41,31.14ZM1.68,29.66h1V17.31h-1Z"/><path id="path-8" d="M31.06,31.14h-3a.74.74,0,0,1-.74-.74V16.57a.75.75,0,0,1,.74-.75h3a.75.75,0,0,1,.74.75V30.4A.74.74,0,0,1,31.06,31.14Zm-2.22-1.48h1.48V17.31H28.84Z"/><path id="path-9" class="cls-3" d="M3.57,13.16l12.55,8.52a3.46,3.46,0,0,0,4.32-.49l8-8Z"/><path id="path-10" d="M17.74,23h0a3.93,3.93,0,0,1-2.16-.64L3,13.72a.74.74,0,0,1,.42-1.35H28.28a.74.74,0,0,1,.53,1.26l-8,8.09A4.4,4.4,0,0,1,17.74,23ZM5.81,13.85l10.59,7.3a2.53,2.53,0,0,0,1.34.38h0a2.86,2.86,0,0,0,2-.86l6.74-6.82Z"/><path id="path-11" d="M19.87,7.31A1.72,1.72,0,0,1,19,7.09a1.72,1.72,0,0,1-2.56-1.5,2.46,2.46,0,0,1,0-.26,1.72,1.72,0,0,1-.71-1.4A1.74,1.74,0,0,1,17.42,2.2a1.71,1.71,0,0,1,3,0A1.7,1.7,0,0,1,22,3.9a1.68,1.68,0,0,1-.53,1.23,1.49,1.49,0,0,1,.07.47A1.72,1.72,0,0,1,19.87,7.31ZM19,5.45h0a.68.68,0,0,1,.64.32.22.22,0,0,0,.19.09.24.24,0,0,0,.23-.24A.28.28,0,0,0,20,5.43a.77.77,0,0,1-.26-.78.75.75,0,0,1,.62-.54.21.21,0,0,0,.19-.21.2.2,0,0,0-.31-.19A.75.75,0,0,1,19.17,3V3a.23.23,0,0,0-.46,0V3a.74.74,0,0,1-1.09.7.24.24,0,0,0-.36.22.25.25,0,0,0,.24.25.72.72,0,0,1,.67.45.74.74,0,0,1-.15.8.22.22,0,0,0-.06.16.25.25,0,0,0,.43.17A.69.69,0,0,1,19,5.45Z"/><path id="path-12" d="M19.44,9.94a.76.76,0,0,1-.57-.26,4.2,4.2,0,0,1-.53-3.86.74.74,0,1,1,1.39.5A2.77,2.77,0,0,0,20,8.72a.74.74,0,0,1-.08,1A.78.78,0,0,1,19.44,9.94Z"/><path id="path-13" d="M20.25,13.35h-2A2.13,2.13,0,0,1,16,11.29V9.15a.74.74,0,0,1,.74-.74h4.94a.74.74,0,0,1,.74.74v2.14A2,2,0,0,1,20.25,13.35ZM17.48,9.89v1.4c0,.46.52.58.8.58h2c.26,0,.69-.07.69-.58V9.89Z"/></g></g></svg>