<svg xmlns="http://www.w3.org/2000/svg" viewBox="0 0 32 32"><title>icono</title><g id="Capa_4" data-name="Capa 4"><path d="M5.8,28.58a.32.32,0,0,1-.32-.32V5.6H3.38a.32.32,0,0,0-.32.32V27.8a15.94,15.94,0,0,0,3,3.2H24.26a.33.33,0,0,0,.33-.33V28.58Z" fill="#ffaf10"/><path d="M4.27,5.92a.31.31,0,0,1,.31-.32H3.38a.32.32,0,0,0-.32.32v22a14.55,14.55,0,0,0,1.21,1.51Z" fill="#ef9614"/><path d="M8,26.16a.34.34,0,0,1-.33-.34V3.42H5.56a.33.33,0,0,0-.33.33V28.49a.33.33,0,0,0,.33.33H26.44a.33.33,0,0,0,.33-.33V26.16Z" fill="#ff9518"/><path d="M6.44,28.5V3.75a.34.34,0,0,1,.34-.33H5.56a.33.33,0,0,0-.33.33V28.49a.33.33,0,0,0,.33.33H6.78A.33.33,0,0,1,6.44,28.5Z" fill="#ef8318"/><path d="M28.62,26.4H7.74a.32.32,0,0,1-.33-.32V1.33A.33.33,0,0,1,7.74,1H28.62a.32.32,0,0,1,.32.33V26.08A.32.32,0,0,1,28.62,26.4Z" fill="#d9eafc"/><path d="M8.62,26.08V1.33A.32.32,0,0,1,8.93,1H7.74a.33.33,0,0,0-.33.33V26.08a.32.32,0,0,0,.33.32H8.93A.31.31,0,0,1,8.62,26.08Z" fill="#c3ddf4"/><path d="M26.4,4.39H21.94A.52.52,0,0,1,21.43,4a.49.49,0,0,1,.48-.56h4.45a.52.52,0,0,1,.52.41A.49.49,0,0,1,26.4,4.39Z" fill="#db722c"/><path d="M26.4,6.08H21.94a.52.52,0,0,1-.51-.41.49.49,0,0,1,.48-.56h4.45a.52.52,0,0,1,.52.41A.49.49,0,0,1,26.4,6.08Z" fill="#db722c"/><path d="M26.4,7.77H21.94a.51.51,0,0,1-.51-.41.48.48,0,0,1,.48-.55h4.45a.51.51,0,0,1,.52.41A.48.48,0,0,1,26.4,7.77Z" fill="#db722c"/><path d="M26.4,9.23H21.94a.52.52,0,0,1-.51-.41.49.49,0,0,1,.48-.56h4.45a.51.51,0,0,1,.52.41A.49.49,0,0,1,26.4,9.23Z" fill="#db722c"/><path d="M17.87,21.08H10.34a.5.5,0,0,1-.51-.41.48.48,0,0,1,.48-.56h7.52a.5.5,0,0,1,.51.41A.48.48,0,0,1,17.87,21.08Z" fill="#52bbef"/><path d="M17.87,22.77H10.34a.49.49,0,0,1-.51-.41.47.47,0,0,1,.48-.55h7.52a.49.49,0,0,1,.51.41A.47.47,0,0,1,17.87,22.77Z" fill="#52bbef"/><path d="M17.87,24.47H10.34a.5.5,0,0,1-.51-.41.48.48,0,0,1,.48-.56h7.52a.5.5,0,0,1,.51.41A.48.48,0,0,1,17.87,24.47Z" fill="#52bbef"/><path d="M26.38,12.37H19.52A.52.52,0,0,1,19,12a.49.49,0,0,1,.48-.56h6.85a.52.52,0,0,1,.52.41A.49.49,0,0,1,26.38,12.37Z" fill="#fe3745"/><path d="M26.38,13.82H19.52a.51.51,0,0,1-.51-.41.49.49,0,0,1,.48-.56h6.85a.52.52,0,0,1,.52.41A.49.49,0,0,1,26.38,13.82Z" fill="#fe3745"/><path d="M26.38,15.52H19.52a.52.52,0,0,1-.51-.41.49.49,0,0,1,.48-.56h6.85a.52.52,0,0,1,.52.41A.49.49,0,0,1,26.38,15.52Z" fill="#fe3745"/><path d="M26.38,17.21H19.52A.52.52,0,0,1,19,16.8a.49.49,0,0,1,.48-.56h6.85a.52.52,0,0,1,.52.41A.49.49,0,0,1,26.38,17.21Z" fill="#fe3745"/><path d="M9.38,15H11.3a1.92,1.92,0,0,1,1.92-1.92V11.2A3.83,3.83,0,0,0,9.38,15Z" fill="#fe3745"/><path d="M14.19,10.23v1.92a1.92,1.92,0,0,1,1.91,1.91H18A3.84,3.84,0,0,0,14.19,10.23Z" fill="#91e0e8"/><path d="M15.11,15a1.92,1.92,0,1,1-3.83,0H9.36A3.84,3.84,0,1,0,17,15Z" fill="#ffaf10"/><path d="M11.52,8.5V3.86a.19.19,0,0,0-.19-.2H10a.2.2,0,0,0-.2.2V8.5Z" fill="#ffaf10"/><path d="M14.19,8.5V5.07a.2.2,0,0,0-.2-.2h-1.3a.2.2,0,0,0-.2.2V8.5Z" fill="#fe3745"/><path d="M16.85,8.5V6.76a.2.2,0,0,0-.2-.2h-1.3a.2.2,0,0,0-.2.2V8.5Z" fill="#37c47a"/><path d="M19.27,8.5V3.86a.2.2,0,0,0-.2-.2h-1.3a.2.2,0,0,0-.2.2V8.5Z" fill="#91e0e8"/><path d="M24.1,22c0-.11.2-.16.2-.16h1V19.72a.32.32,0,0,0-.32-.33H22a.32.32,0,0,0-.32.33v2.81s0,.33.22.24H24.1Z" fill="#fe3745"/><path d="M26.2,24H24.43a.32.32,0,0,1-.33-.32V21.89a.33.33,0,0,1,.33-.33H26.2a.32.32,0,0,1,.32.33v1.77A.32.32,0,0,1,26.2,24Z" fill="#37c47a"/><path d="M19.52,9.23H9.75a.52.52,0,0,1-.51-.41.49.49,0,0,1,.48-.56h9.77a.51.51,0,0,1,.51.41A.49.49,0,0,1,19.52,9.23Z" fill="#52bbef"/></g></svg>