<svg xmlns="http://www.w3.org/2000/svg" viewBox="0 0 32 32"><title>icono</title><g id="Capa_4" data-name="Capa 4"><rect x="13.09" y="24.13" width="5.59" height="2.67" fill="#445ea0"/><rect x="13.09" y="24.13" width="1.21" height="2.67" fill="#2e4c89"/><path d="M21.34,28.47a.28.28,0,0,1-.27.28H10.69a.28.28,0,0,1-.28-.27v-1.4a.28.28,0,0,1,.28-.27H21.07a.27.27,0,0,1,.27.27v1.39Z" fill="#293d7c"/><path d="M11.63,28.47V27.08a.27.27,0,0,1,.27-.27H10.69a.28.28,0,0,0-.28.27v1.4a.28.28,0,0,0,.28.27H11.9A.28.28,0,0,1,11.63,28.47Z" fill="#1a2b63"/><path d="M31.3,3.25H.57a.36.36,0,0,0-.35.36V23.78a.35.35,0,0,0,.35.35H21.83v-1a.2.2,0,0,1,.19-.2h.65a.44.44,0,0,0,.41-.28l.17-.37a.44.44,0,0,0-.09-.47l-.6-.57a.16.16,0,0,1-.06-.13.18.18,0,0,1,.06-.14l1.09-1a.2.2,0,0,1,.14-.06.2.2,0,0,1,.15.06l.6.57a.45.45,0,0,0,.31.11.48.48,0,0,0,.18,0l.39-.16a.43.43,0,0,0,.29-.39v-.8a.19.19,0,0,1,.2-.19h1.55a.19.19,0,0,1,.2.19V20a.42.42,0,0,0,.29.39l.39.16a.48.48,0,0,0,.18,0,.45.45,0,0,0,.31-.11l.6-.57a.2.2,0,0,1,.15-.06.2.2,0,0,1,.14.06l1.09,1a.18.18,0,0,1,.06.14.16.16,0,0,1-.06.13l-.6.57a.41.41,0,0,0-.08.48l.16.36a.44.44,0,0,0,.41.28h.7s.2,0,.14.12v.9c.09-.05.12-.12.24-.2V3.47C31.66,3.28,31.3,3.25,31.3,3.25Z" fill="#293d7c"/><path d="M1.67,20.52a.22.22,0,0,0,.22.22H22.62l1-1a.2.2,0,0,1,.15-.06.2.2,0,0,1,.14.06l.61.6a.45.45,0,0,0,.32.12.34.34,0,0,0,.18,0l.4-.16a.47.47,0,0,0,.29-.41V19a.2.2,0,0,1,.2-.2h1.55a.2.2,0,0,1,.2.2v.82a.45.45,0,0,0,.28.4l.37.15a.29.29,0,0,0,.17,0,.45.45,0,0,0,.3-.12l.57-.58a.18.18,0,0,1,.14-.06.16.16,0,0,1,.13.06l.46.47V6.65H1.67Z" fill="#fff"/><path d="M3.13,20.52V6.65H1.92V20.52a.21.21,0,0,0,.21.22H3.34A.22.22,0,0,1,3.13,20.52Z" fill="#d9eafc"/><path d="M15.55,16.05a1.94,1.94,0,0,0-2.07-.44l-2.35-2.35-.47.47a.06.06,0,0,0,0,0,.6.6,0,0,1-.11.39s0,.05,0,.07a.51.51,0,0,1,0,.62l1.86,1.86a2,2,0,0,0,.44,2.08,1.93,1.93,0,0,0,1.84.51l0,0,0,0a.09.09,0,0,0,0-.1L13.48,18l1.22-1.22,1.2,1.2a.1.1,0,0,0,.1,0l0,0,0-.05A1.92,1.92,0,0,0,15.55,16.05Z" fill="#ff9518"/><path d="M9.37,13.29a.53.53,0,0,1,.3.09h.07a.57.57,0,0,1,.33-.11h.11l.47-.48L8.3,10.43a1.94,1.94,0,0,0-.44-2.07A1.92,1.92,0,0,0,6,7.84l0,0a.08.08,0,0,0,0,0A.12.12,0,0,0,6,8l1.2,1.2L6,10.43l-1.2-1.2a.08.08,0,0,0-.09,0l0,0,0,0a1.92,1.92,0,0,0,.51,1.84,2,2,0,0,0,2.08.44l1.86,1.86A.53.53,0,0,1,9.37,13.29Z" fill="#ff9518"/><circle cx="15.94" cy="22.42" r="0.96" fill="#445ea0"/><path d="M29.87,5h-28a.22.22,0,0,0-.22.21V6.65H30.08V5.16A.21.21,0,0,0,29.87,5Z" fill="#5dc1d8"/><path d="M3.34,5H2.13a.21.21,0,0,0-.21.21V6.65H3.13V5.16A.21.21,0,0,1,3.34,5Z" fill="#28a5a5"/><path d="M25.71,28.5a.26.26,0,0,0,.25.25H27.4a.26.26,0,0,0,.26-.26v-.8a.36.36,0,0,1,.23-.33l.38-.16a.37.37,0,0,1,.4.07l.57.56a.24.24,0,0,0,.36,0l1-1a.25.25,0,0,0,0-.36l-.57-.57a.36.36,0,0,1-.06-.41l.15-.37a.37.37,0,0,1,.33-.24h.8a.25.25,0,0,0,.26-.25V22.94a.25.25,0,0,0-.26-.26h-.8a.37.37,0,0,1-.33-.24L30,22.07a.36.36,0,0,1,.06-.41l.57-.57a.25.25,0,0,0,0-.36l-1-1a.25.25,0,0,0-.36,0l-.57.56a.37.37,0,0,1-.4.07l-.38-.16a.36.36,0,0,1-.23-.33v-.8a.26.26,0,0,0-.26-.26H26a.26.26,0,0,0-.26.26v.8a.36.36,0,0,1-.23.33l-.38.16a.37.37,0,0,1-.4-.07l-.57-.56a.27.27,0,0,0-.37,0l-1,1a.25.25,0,0,0,0,.36l.57.57a.4.4,0,0,1,.06.41l-.15.37a.39.39,0,0,1-.33.24h-.8a.25.25,0,0,0-.26.26v1.67a.25.25,0,0,0,.26.25h.8a.39.39,0,0,1,.33.24l.15.37a.36.36,0,0,1-.06.41l-.57.57a.25.25,0,0,0,0,.36l1,1a.25.25,0,0,0,.37,0l.57-.56a.37.37,0,0,1,.4-.07l.38.16a.36.36,0,0,1,.23.33v.81Z" fill="#ff9518"/><path d="M26.66,26.16a2.39,2.39,0,1,1,2.41-2.38A2.39,2.39,0,0,1,26.66,26.16Z" fill="#ffaf10"/><path d="M25,23.78a2.4,2.4,0,0,1,2-2.36,2.22,2.22,0,0,0-.37,0,2.39,2.39,0,1,0,0,4.77l.37,0A2.41,2.41,0,0,1,25,23.78Z" fill="#ff9518"/><path d="M26.66,26.55a2.77,2.77,0,1,1,2.79-2.77A2.78,2.78,0,0,1,26.66,26.55Zm0-4.77a2,2,0,1,0,2,2A2,2,0,0,0,26.66,21.78Z" fill="#db722c"/><path d="M26.66,24.79a1,1,0,1,1,1-1A1,1,0,0,1,26.66,24.79Z" fill="#ffaf10"/><path d="M26.38,23.78a1,1,0,0,1,.65-.94,1.11,1.11,0,0,0-.37-.07,1,1,0,0,0,0,2,1.11,1.11,0,0,0,.37-.07A1,1,0,0,1,26.38,23.78Z" fill="#ff9518"/><path d="M26.66,25.17a1.4,1.4,0,1,1,1.41-1.39A1.4,1.4,0,0,1,26.66,25.17Zm0-2a.62.62,0,1,0,0,1.24.62.62,0,1,0,0-1.24Z" fill="#db722c"/><path d="M8.85,14.4l.67.66a.76.76,0,0,1,.12.19L9.93,15a.59.59,0,0,1-.19-.13l-.66-.66A.59.59,0,0,1,9,14l-.29.29A.5.5,0,0,1,8.85,14.4Z" fill="#445ea0"/><path d="M15.74,8.51l-.34-.34a.16.16,0,0,0-.16,0l-.77.38a.27.27,0,0,0-.13.13l-.34.7-3.87,3.86a.59.59,0,0,0-.47.16l.12.1.66.66.1.12a.59.59,0,0,0,.16-.47l3.86-3.87.7-.34a.35.35,0,0,0,.14-.13l.37-.77A.16.16,0,0,0,15.74,8.51Z" fill="#445ea0"/><path d="M10.53,14.92a.6.6,0,0,1-.83,0L9,14.21a.61.61,0,0,1,0-.83.6.6,0,0,1,.83,0l.67.67A.6.6,0,0,1,10.53,14.92Z" fill="#293d7c"/><path d="M26.87,9.56H18.33a.45.45,0,0,1-.42-.24.49.49,0,0,1,.42-.73h8.55a.47.47,0,0,1,.42.25A.49.49,0,0,1,26.87,9.56Z" fill="#69cdff"/><path d="M26.87,11H18.33a.47.47,0,0,1-.42-.24.49.49,0,0,1,.42-.73h8.55a.47.47,0,0,1,.42.25A.49.49,0,0,1,26.87,11Z" fill="#69cdff"/><path d="M26.87,12.72H18.33a.47.47,0,0,1-.42-.24.49.49,0,0,1,.42-.73h8.55a.47.47,0,0,1,.42.25A.49.49,0,0,1,26.87,12.72Z" fill="#69cdff"/><path d="M26.87,15.15H18.33a.47.47,0,0,1-.42-.24.49.49,0,0,1,.42-.73h8.55a.48.48,0,0,1,.42.24A.49.49,0,0,1,26.87,15.15Z" fill="#37c47a"/><path d="M26.87,16.61H18.33a.46.46,0,0,1-.42-.25.49.49,0,0,1,.42-.72h8.55a.46.46,0,0,1,.42.24A.49.49,0,0,1,26.87,16.61Z" fill="#37c47a"/><path d="M22.69,18.06H18.44a.46.46,0,0,1-.42-.24.49.49,0,0,1,.43-.73h4.24a.47.47,0,0,1,.43.25A.49.49,0,0,1,22.69,18.06Z" fill="#37c47a"/><path d="M6.71,18.73a.62.62,0,0,1-.87,0l-.66-.66a.62.62,0,0,1,0-.87L8,14.35a.6.6,0,0,1,.86,0l.67.67a.6.6,0,0,1,0,.86Z" fill="#293d7c"/><path d="M6.21,18.07a.62.62,0,0,1,0-.87L9,14.43l-.09-.08a.6.6,0,0,0-.86,0L5.18,17.2a.62.62,0,0,0,0,.87l.66.66a.62.62,0,0,0,.87,0l.08-.08Z" fill="#1a2b63"/><path d="M9.39,13.78a.6.6,0,0,1,.83,0l-.4-.4a.6.6,0,0,0-.83,0,.61.61,0,0,0,0,.83l.4.4A.6.6,0,0,1,9.39,13.78Z" fill="#1a2b63"/></g></svg>