<svg xmlns="http://www.w3.org/2000/svg" viewBox="0 0 32 32"><defs><style>.cls-1{fill:#9fd7fd;}.cls-2{fill:#593431;}.cls-3{fill:#7ab6d6;}.cls-4{fill:#f5f2f2;}.cls-5{fill:#cbcfd7;}.cls-6{fill:#aaafba;}.cls-7{fill:#e3a086;}.cls-8{fill:#c3775c;}.cls-9{fill:#f0db9e;}.cls-10{fill:#e2c16f;}</style></defs><title>interfaces</title><g id="Capa_4" data-name="Capa 4"><path class="cls-1" d="M3.56,30.47H2.45A.49.49,0,0,1,2,30V5.06a.48.48,0,0,1,.49-.48H3.56a.48.48,0,0,1,.49.48V30A.49.49,0,0,1,3.56,30.47Z"/><path class="cls-2" d="M3.56,30.71H2.45A.73.73,0,0,1,1.72,30V5.06a.73.73,0,0,1,.73-.73H3.56a.73.73,0,0,1,.73.73V30A.73.73,0,0,1,3.56,30.71ZM2.45,4.82a.24.24,0,0,0-.24.24V30a.25.25,0,0,0,.24.25H3.56A.25.25,0,0,0,3.8,30V5.06a.24.24,0,0,0-.24-.24Z"/><path class="cls-3" d="M9.84,30.47H8.73A.49.49,0,0,1,8.25,30V5.06a.48.48,0,0,1,.48-.48H9.84a.48.48,0,0,1,.49.48V30A.49.49,0,0,1,9.84,30.47Z"/><path class="cls-2" d="M9.84,30.71H8.73A.73.73,0,0,1,8,30V5.06a.73.73,0,0,1,.73-.73H9.84a.73.73,0,0,1,.73.73V30A.73.73,0,0,1,9.84,30.71ZM8.73,4.82a.24.24,0,0,0-.24.24V30a.25.25,0,0,0,.24.25H9.84a.25.25,0,0,0,.25-.25V5.06a.25.25,0,0,0-.25-.24Z"/><path class="cls-4" d="M4.05,16.53H21.8v2H4.05Z"/><path class="cls-2" d="M21.8,18.76H4.05a.25.25,0,0,1-.25-.25v-2a.25.25,0,0,1,.25-.24H21.8a.24.24,0,0,1,.24.24v2A.25.25,0,0,1,21.8,18.76ZM4.29,18.27H21.55V16.78H4.29Z"/><path class="cls-4" d="M4.05,7H21.8V9H4.05Z"/><path class="cls-2" d="M21.8,9.24H4.05A.25.25,0,0,1,3.8,9V7a.25.25,0,0,1,.25-.25H21.8A.25.25,0,0,1,22,7V9A.24.24,0,0,1,21.8,9.24ZM4.29,8.75H21.55V7.26H4.29Z"/><path class="cls-4" d="M4.05,26.05H21.8v2H4.05Z"/><path class="cls-2" d="M21.8,28.27H4.05A.24.24,0,0,1,3.8,28v-2a.25.25,0,0,1,.25-.25H21.8a.25.25,0,0,1,.24.25v2A.24.24,0,0,1,21.8,28.27ZM4.29,27.79H21.55v-1.5H4.29Z"/><path class="cls-1" d="M23.39,30.47h-1.1A.49.49,0,0,1,21.8,30V5.06a.48.48,0,0,1,.49-.48h1.1a.48.48,0,0,1,.49.48V30A.49.49,0,0,1,23.39,30.47Z"/><path class="cls-2" d="M23.39,30.71h-1.1a.73.73,0,0,1-.74-.73V5.06a.74.74,0,0,1,.74-.73h1.1a.73.73,0,0,1,.73.73V30A.72.72,0,0,1,23.39,30.71ZM22.29,4.82a.25.25,0,0,0-.25.24V30a.25.25,0,0,0,.25.25h1.1a.25.25,0,0,0,.25-.25V5.06a.25.25,0,0,0-.25-.24Z"/><path class="cls-3" d="M29.68,30.47H28.57a.49.49,0,0,1-.49-.49V5.06a.48.48,0,0,1,.49-.48h1.11a.48.48,0,0,1,.48.48V30A.49.49,0,0,1,29.68,30.47Z"/><path class="cls-2" d="M29.68,30.71H28.57a.73.73,0,0,1-.73-.73V5.06a.73.73,0,0,1,.73-.73h1.11a.73.73,0,0,1,.73.73V30A.73.73,0,0,1,29.68,30.71ZM28.57,4.82a.25.25,0,0,0-.25.24V30a.25.25,0,0,0,.25.25h1.11a.25.25,0,0,0,.24-.25V5.06a.24.24,0,0,0-.24-.24Z"/><path class="cls-2" d="M28.08,18.76h-4.2a.25.25,0,0,1-.24-.25v-2a.24.24,0,0,1,.24-.24h4.2a.24.24,0,0,1,.24.24v2A.24.24,0,0,1,28.08,18.76Zm-4-.49h3.72V16.78H24.12Z"/><path class="cls-2" d="M28.08,9.24h-4.2A.24.24,0,0,1,23.64,9V7a.25.25,0,0,1,.24-.25h4.2a.24.24,0,0,1,.24.25V9A.24.24,0,0,1,28.08,9.24Zm-4-.48h3.72V7.26H24.12Z"/><path class="cls-2" d="M28.08,28.27h-4.2a.24.24,0,0,1-.24-.24v-2a.25.25,0,0,1,.24-.25h4.2a.24.24,0,0,1,.24.25v2A.23.23,0,0,1,28.08,28.27Zm-4-.48h3.72v-1.5H24.12Z"/><path class="cls-5" d="M11.83,14.54v1.19H5.48V14.54a3.18,3.18,0,0,1,6.35,0Z"/><path class="cls-6" d="M8.66,11.37a2.91,2.91,0,0,0-.6.06,3.17,3.17,0,0,1,2.58,3.11v1.19h1.19V14.54A3.17,3.17,0,0,0,8.66,11.37Z"/><path class="cls-2" d="M12.23,16.13H5.09a.39.39,0,0,1-.4-.39.4.4,0,0,1,.4-.4h7.14a.4.4,0,0,1,.4.4A.39.39,0,0,1,12.23,16.13Z"/><path class="cls-2" d="M11.83,15.14a.39.39,0,0,1-.39-.4,2.78,2.78,0,0,0-5.56,0,.4.4,0,1,1-.79,0,3.57,3.57,0,1,1,7.14,0A.4.4,0,0,1,11.83,15.14Z"/><path class="cls-2" d="M5.48,16.13a.39.39,0,0,1-.39-.39v-1.2a.4.4,0,0,1,.79,0v1.2A.39.39,0,0,1,5.48,16.13Z"/><path class="cls-2" d="M11.83,16.13a.38.38,0,0,1-.39-.39v-1.2a.39.39,0,0,1,.39-.39.4.4,0,0,1,.4.39v1.2A.39.39,0,0,1,11.83,16.13Z"/><path class="cls-2" d="M8.66,12a.4.4,0,0,1-.4-.4v-.4a.4.4,0,0,1,.8,0v.4A.4.4,0,0,1,8.66,12Z"/><path class="cls-5" d="M20.34,14.54v1.19H14V14.54a3.18,3.18,0,0,1,6.35,0Z"/><path class="cls-6" d="M17.17,11.37a2.91,2.91,0,0,0-.6.06,3.17,3.17,0,0,1,2.58,3.11v1.19h1.19V14.54A3.17,3.17,0,0,0,17.17,11.37Z"/><path class="cls-2" d="M20.74,16.13H13.6a.39.39,0,0,1-.4-.39.4.4,0,0,1,.4-.4h7.14a.39.39,0,0,1,.39.4A.38.38,0,0,1,20.74,16.13Z"/><path class="cls-2" d="M20.34,15.14a.4.4,0,0,1-.4-.4,2.78,2.78,0,0,0-5.55,0,.4.4,0,0,1-.4.4.39.39,0,0,1-.39-.4,3.57,3.57,0,1,1,7.14,0A.4.4,0,0,1,20.34,15.14Z"/><path class="cls-2" d="M14,16.13a.38.38,0,0,1-.39-.39v-1.2a.39.39,0,0,1,.39-.39.4.4,0,0,1,.4.39v1.2A.39.39,0,0,1,14,16.13Z"/><path class="cls-2" d="M20.34,16.13a.39.39,0,0,1-.4-.39v-1.2a.4.4,0,0,1,.8,0v1.2A.39.39,0,0,1,20.34,16.13Z"/><path class="cls-2" d="M17.17,12a.4.4,0,0,1-.4-.4v-.4a.39.39,0,0,1,.4-.39.38.38,0,0,1,.39.39v.4A.39.39,0,0,1,17.17,12Z"/><path class="cls-7" d="M18.2,5.08v1.2H11.8V5.08a3.2,3.2,0,0,1,6.4,0Z"/><path class="cls-8" d="M15,1.88a3.05,3.05,0,0,0-.6.06A3.2,3.2,0,0,1,17,5.08v1.2h1.2V5.08A3.2,3.2,0,0,0,15,1.88Z"/><path class="cls-2" d="M18.6,6.68H11.41a.4.4,0,1,1,0-.8H18.6a.4.4,0,0,1,0,.8Z"/><path class="cls-2" d="M18.2,5.68a.4.4,0,0,1-.4-.4,2.8,2.8,0,0,0-5.59,0,.4.4,0,0,1-.4.4.39.39,0,0,1-.4-.4,3.6,3.6,0,0,1,7.19,0A.4.4,0,0,1,18.2,5.68Z"/><path class="cls-2" d="M11.81,6.68a.39.39,0,0,1-.4-.4V5.08a.39.39,0,0,1,.4-.4.4.4,0,0,1,.4.4v1.2A.4.4,0,0,1,11.81,6.68Z"/><path class="cls-2" d="M18.2,6.68a.4.4,0,0,1-.4-.4V5.08a.4.4,0,0,1,.8,0v1.2A.4.4,0,0,1,18.2,6.68Z"/><path class="cls-2" d="M15,2.48a.39.39,0,0,1-.4-.39v-.4a.4.4,0,1,1,.8,0v.4A.39.39,0,0,1,15,2.48Z"/><path class="cls-9" d="M12.05,24v1.28H5.26V24a3.4,3.4,0,1,1,6.79,0Z"/><path class="cls-10" d="M8.66,20.55a3.39,3.39,0,0,0-.64.07A3.4,3.4,0,0,1,10.78,24v1.28h1.27V24A3.4,3.4,0,0,0,8.66,20.55Z"/><path class="cls-2" d="M12.48,25.65H4.84a.43.43,0,1,1,0-.85h7.64a.43.43,0,0,1,0,.85Z"/><path class="cls-2" d="M12.06,24.59a.42.42,0,0,1-.43-.42,3,3,0,1,0-5.94,0,.43.43,0,0,1-.85,0,3.82,3.82,0,0,1,7.64,0A.42.42,0,0,1,12.06,24.59Z"/><path class="cls-2" d="M5.26,25.65a.42.42,0,0,1-.42-.42V24a.43.43,0,0,1,.85,0v1.28A.42.42,0,0,1,5.26,25.65Z"/><path class="cls-2" d="M12.06,25.65a.42.42,0,0,1-.43-.42V24a.43.43,0,0,1,.85,0v1.28A.42.42,0,0,1,12.06,25.65Z"/><path class="cls-2" d="M8.66,21.19a.42.42,0,0,1-.43-.42v-.43a.43.43,0,0,1,.85,0v.43A.42.42,0,0,1,8.66,21.19Z"/><path class="cls-9" d="M20.56,24v1.28H13.77V24a3.4,3.4,0,1,1,6.79,0Z"/><path class="cls-10" d="M17.17,20.55a3.3,3.3,0,0,0-.64.07A3.4,3.4,0,0,1,19.29,24v1.28h1.27V24A3.4,3.4,0,0,0,17.17,20.55Z"/><path class="cls-2" d="M21,25.65H13.35a.43.43,0,1,1,0-.85H21a.43.43,0,0,1,0,.85Z"/><path class="cls-2" d="M20.56,24.59a.42.42,0,0,1-.42-.42,3,3,0,1,0-5.94,0,.43.43,0,0,1-.85,0,3.82,3.82,0,1,1,7.64,0A.42.42,0,0,1,20.56,24.59Z"/><path class="cls-2" d="M13.77,25.65a.42.42,0,0,1-.42-.42V24a.43.43,0,0,1,.85,0v1.28A.42.42,0,0,1,13.77,25.65Z"/><path class="cls-2" d="M20.56,25.65a.42.42,0,0,1-.42-.42V24A.43.43,0,0,1,21,24v1.28A.42.42,0,0,1,20.56,25.65Z"/><path class="cls-2" d="M17.17,21.19a.42.42,0,0,1-.43-.42v-.43a.43.43,0,0,1,.85,0v.43A.42.42,0,0,1,17.17,21.19Z"/></g></svg>