<svg id="Capa_1" data-name="Capa 1" xmlns="http://www.w3.org/2000/svg" viewBox="0 0 53 53"><title>a</title><circle cx="26.5" cy="26.5" r="25" transform="translate(-8.12 12.16) rotate(-22.5)" fill="#dc772d" stroke="#bc642b" stroke-miterlimit="10"/><path d="M26.5,5.83A20.67,20.67,0,1,0,47.17,26.5,20.66,20.66,0,0,0,26.5,5.83Zm0,38.69a18,18,0,1,1,18-18A18,18,0,0,1,26.5,44.52Z" fill="#fff"/><g opacity="0.8"><path d="M23.71,18.13h5.58a1.32,1.32,0,0,0,1-.41,1.36,1.36,0,0,0,.41-1V12.56a1.42,1.42,0,0,0-1.39-1.4H23.71a1.42,1.42,0,0,0-1.39,1.4v4.18a1.36,1.36,0,0,0,.41,1A1.32,1.32,0,0,0,23.71,18.13Z"/><path d="M33.06,36.67a1.38,1.38,0,0,0-1-.41h-1.4V23.71a1.4,1.4,0,0,0-1.39-1.39H20.92a1.38,1.38,0,0,0-1,.41,1.36,1.36,0,0,0-.41,1V26.5a1.36,1.36,0,0,0,.41,1,1.34,1.34,0,0,0,1,.41h1.4v8.37h-1.4a1.4,1.4,0,0,0-1.39,1.39v2.79a1.42,1.42,0,0,0,1.39,1.4H32.08a1.42,1.42,0,0,0,1.39-1.4V37.65A1.38,1.38,0,0,0,33.06,36.67Z"/></g></svg>