<svg id="Capa_1" data-name="Capa 1" xmlns="http://www.w3.org/2000/svg" viewBox="0 0 53 53"><defs><style>.cls-1{fill:#dc772d;stroke:#bc642b;stroke-miterlimit:10;}.cls-2{fill:#fff;}.cls-3{opacity:0.8;}</style></defs><title>platillos</title><circle class="cls-1" cx="26.5" cy="26.5" r="25" transform="translate(-8.12 12.16) rotate(-22.5)"/><path class="cls-2" d="M26.5,5.83A20.67,20.67,0,1,0,47.17,26.5,20.66,20.66,0,0,0,26.5,5.83Zm0,38.69a18,18,0,1,1,18-18A18,18,0,0,1,26.5,44.52Z"/><path class="cls-3" d="M36.54,28.27c-.36-.28-4-4.35-5-4.92V12.79a1.93,1.93,0,0,0-1.94-1.93h-10a1.94,1.94,0,0,0-1.94,1.93V31.27a1.94,1.94,0,0,0,1.94,1.94H24l-.18-1.52-.15-.14H21.72a1.73,1.73,0,0,0,0-.82,2,2,0,0,0-1.57-1.59,1.82,1.82,0,0,0-.84,0V14.78a2.19,2.19,0,0,0,.36,0,2,2,0,0,0,1.93-2.3h5.95a2,2,0,0,0,1.93,2.3,2,2,0,0,0,.35,0v14h0v4a7.51,7.51,0,0,1-1.43-2.06s-.37-4.14-2.47-4.14H25.8s-1.59.14-.28,4.68l.59,5.05A11.54,11.54,0,0,0,28.58,41v.56a.55.55,0,0,0,.55.55H35a.55.55,0,0,0,.55-.49c.21-2,1-9.27,1.5-10.38a2.19,2.19,0,0,0,.17-.55A2.51,2.51,0,0,0,36.54,28.27Z"/><circle cx="24.83" cy="15.99" r="1.17"/><path d="M20.37,22.17a4.26,4.26,0,0,0,3.31,4.14,3,3,0,0,1,.19-.3,2.44,2.44,0,0,1,1.76-1.11l.34,0a3.33,3.33,0,0,1,1.54.38,4.2,4.2,0,0,0,1.34-3.09,4.24,4.24,0,1,0-8.48,0Zm1.7-.38c.25,0,.26,0,.3-.25a2.67,2.67,0,0,1,.16-.57.17.17,0,0,1,.22-.11l.47.14c.15,0,.17.1.1.24a1.73,1.73,0,0,0-.17.9.46.46,0,0,0,.05.23.34.34,0,0,0,.6.09,1.5,1.5,0,0,0,.22-.39,6.62,6.62,0,0,1,.32-.71A1.27,1.27,0,0,1,26.28,21a1.34,1.34,0,0,1,.45.71c0,.12.1.18.23.17h.37c.12,0,.18.06.18.17v.4c0,.12-.07.17-.19.17h-.27c-.21,0-.21,0-.25.2a2.33,2.33,0,0,1-.2.73c-.09.17-.13.19-.32.14s-.28-.07-.41-.12-.18-.09-.11-.24a2.26,2.26,0,0,0,.25-.8,1,1,0,0,0-.07-.52.41.41,0,0,0-.72-.1.9.9,0,0,0-.17.3,6,6,0,0,1-.37.82,1.14,1.14,0,0,1-1.1.65,1.22,1.22,0,0,1-1.13-.89c-.08-.21-.08-.21-.31-.22h-.23c-.17,0-.2,0-.2-.21v-.15C21.7,21.8,21.7,21.8,22.07,21.79Z"/></svg>